<?xml version="1.0" encoding="UTF-8" standalone="no"?>
<!-- Created with Inkscape (http://www.inkscape.org/) -->

<svg
   width="32"
   height="32"
   viewBox="0 0 32 32"
   version="1.1"
   id="svg1"
   inkscape:version="1.3.2 (091e20e, 2023-11-25, custom)"
   sodipodi:docname="ambulance.svg"
   inkscape:export-filename="ambulance.png"
   inkscape:export-xdpi="96"
   inkscape:export-ydpi="96"
   xmlns:inkscape="http://www.inkscape.org/namespaces/inkscape"
   xmlns:sodipodi="http://sodipodi.sourceforge.net/DTD/sodipodi-0.dtd"
   xmlns="http://www.w3.org/2000/svg"
   xmlns:svg="http://www.w3.org/2000/svg">
  <sodipodi:namedview
     id="namedview1"
     pagecolor="#ffffff"
     bordercolor="#000000"
     borderopacity="0.25"
     inkscape:showpageshadow="2"
     inkscape:pageopacity="0.0"
     inkscape:pagecheckerboard="true"
     inkscape:deskcolor="#d1d1d1"
     inkscape:document-units="px"
     inkscape:zoom="32"
     inkscape:cx="14.890625"
     inkscape:cy="11.25"
     inkscape:window-width="1920"
     inkscape:window-height="1002"
     inkscape:window-x="-8"
     inkscape:window-y="-8"
     inkscape:window-maximized="1"
     inkscape:current-layer="layer1" />
  <defs
     id="defs1" />
  <g
     inkscape:label="Layer 1"
     inkscape:groupmode="layer"
     id="layer1">
    <path
       id="rect1"
       style="fill:#666666;fill-rule:evenodd"
       d="M 5.78125 7.3457031 C 5.3934516 7.3457031 5.0820313 7.6571235 5.0820312 8.0449219 L 5.0820312 18.644531 C 5.0820312 19.032331 5.3934516 19.345703 5.78125 19.345703 L 8.0332031 19.345703 A 2 2 0 0 1 8 19 A 2 2 0 0 1 10 17 A 2 2 0 0 1 12 19 A 2 2 0 0 1 11.966797 19.345703 L 16.033203 19.345703 A 2 2 0 0 1 16 19 A 2 2 0 0 1 18 17 A 2 2 0 0 1 20 19 A 2 2 0 0 1 19.974609 19.314453 L 23.890625 19.314453 L 23.890625 13.234375 C 23.886725 13.225675 23.884612 13.216301 23.882812 13.207031 C 23.881216 13.197231 23.879306 13.187634 23.878906 13.177734 C 23.879081 13.175934 23.879029 13.173575 23.878906 13.171875 C 23.872506 13.167675 23.867188 13.160094 23.867188 13.146484 L 23.867188 13.140625 C 23.866471 13.138625 23.866134 13.136766 23.865234 13.134766 C 23.863334 13.130666 23.861575 13.126967 23.859375 13.123047 L 23.857422 13.121094 L 23.855469 13.119141 C 23.852469 13.115541 23.850156 13.111442 23.847656 13.107422 C 23.845156 13.106631 23.842644 13.106971 23.839844 13.105469 C 23.828494 13.099569 23.819447 13.091031 23.810547 13.082031 C 23.802047 13.073431 23.798258 13.063791 23.798828 13.056641 C 23.795528 13.055041 23.792462 13.054181 23.789062 13.050781 C 23.788069 13.049881 23.786156 13.047875 23.785156 13.046875 C 23.778056 13.039875 23.771525 13.033391 23.765625 13.025391 C 23.761425 13.019691 23.758712 13.014606 23.757812 13.009766 L 23.675781 12.943359 C 23.672881 12.941659 23.670769 12.9394 23.667969 12.9375 C 23.648589 12.92461 23.630801 12.910071 23.613281 12.894531 C 23.608681 12.890831 23.604279 12.886432 23.599609 12.882812 L 23.597656 12.880859 L 23.595703 12.880859 C 23.579793 12.868589 23.563645 12.856703 23.546875 12.845703 C 23.532115 12.836003 23.521875 12.826396 23.515625 12.816406 L 23.513672 12.814453 L 20.498047 10.394531 L 16.669922 7.3632812 L 16.669922 7.4082031 C 16.58189 7.3684448 16.486011 7.3457031 16.382812 7.3457031 L 5.78125 7.3457031 z M 13.53125 9.9375 A 3 3 0 0 1 16.53125 12.9375 A 3 3 0 0 1 13.53125 15.9375 A 3 3 0 0 1 10.53125 12.9375 A 3 3 0 0 1 13.53125 9.9375 z " />
    <ellipse
       style="opacity:1;fill:#808080;fill-opacity:0;fill-rule:evenodd"
       id="path63"
       cx="9.9768343"
       cy="20.428757"
       rx="2.3091457"
       ry="3.215126" />
    <circle
       style="fill:#808080;fill-opacity:1;fill-rule:evenodd;stroke-width:0.875"
       id="path64-4"
       cx="10.03125"
       cy="19.125"
       r="1.75" />
    <circle
       style="fill:#808080;fill-opacity:1;fill-rule:evenodd;stroke-width:0.875"
       id="path64-4-6"
       cx="18.03125"
       cy="19"
       r="1.75"
       inkscape:transform-center-x="-5.5625"
       inkscape:transform-center-y="5.1875" />
    <path
       id="path64"
       style="opacity:1;fill:#808080;fill-opacity:1;fill-rule:evenodd"
       d="m 15.108088,5.7601844 a 0.9375,1.453125 0 0 0 -0.935547,1.390625 h 1.873047 a 0.9375,1.453125 0 0 0 -0.9375,-1.390625 z" />
    <text
       xml:space="preserve"
       style="font-size:6.22656px;opacity:1;fill:#808080;fill-opacity:1;fill-rule:evenodd;stroke-width:1.16748"
       x="10.802"
       y="15.128167"
       id="text65"
       transform="scale(1.0120326,0.98811046)"><tspan
         sodipodi:role="line"
         id="tspan65"
         x="10.802"
         y="15.128167"
         style="stroke-width:1.16748">+</tspan></text>
    <path
       style="fill:#ffffff;fill-rule:evenodd;stroke-width:0.03125"
       d="M 5.6465844,19.313524 C 5.4785097,19.280997 5.2791203,19.130652 5.1875,18.967362 L 5.109375,18.828125 V 13.34375 7.859375 L 5.1875,7.7201377 C 5.2304687,7.6435571 5.3266029,7.5380884 5.4011315,7.4857626 L 5.5366381,7.390625 h 5.5684419 5.568442 l 0.889,0.703125 c 3.946668,3.121485 6.167332,4.905504 6.245624,5.017559 l 0.06685,0.09568 V 16.259746 19.3125 H 21.9375 20 l -4.62e-4,-0.304688 c -5.84e-4,-0.385286 -0.05996,-0.637001 -0.225819,-0.957373 -0.247603,-0.478257 -0.760228,-0.880591 -1.277283,-1.002474 -0.255887,-0.06032 -0.736985,-0.06032 -0.992872,0 -0.519918,0.122558 -1.025852,0.520429 -1.277949,1.004992 -0.166712,0.320443 -0.224575,0.56985 -0.225153,0.97048 L 16,19.34375 h -2 -2 l -4.62e-4,-0.320313 c -5.78e-4,-0.400681 -0.05831,-0.649453 -0.225819,-0.972998 -0.247603,-0.478257 -0.760228,-0.880591 -1.277283,-1.002474 -0.255887,-0.06032 -0.7369851,-0.06032 -0.9928722,0 -0.5199175,0.122558 -1.0258516,0.520429 -1.2779485,1.004992 -0.1667127,0.320443 -0.2245756,0.56985 -0.2251534,0.97048 L 8,19.34375 6.8828125,19.340156 c -0.6144531,-0.002 -1.1707558,-0.01396 -1.2362281,-0.02663 z m 8.6950636,-3.467736 c 0.852414,-0.249267 1.562979,-0.854881 1.926712,-1.642134 0.206267,-0.446436 0.247265,-0.656375 0.247265,-1.266154 0,-0.476971 -0.0091,-0.578412 -0.07146,-0.793595 -0.302203,-1.043369 -1.075951,-1.817117 -2.11932,-2.11932 -0.215183,-0.062326 -0.316624,-0.07146 -0.793595,-0.07146 -0.476971,0 -0.578412,0.00913 -0.793595,0.07146 -1.044617,0.302564 -1.816756,1.074703 -2.11932,2.11932 -0.06233,0.215183 -0.07146,0.316624 -0.07146,0.793595 0,0.476971 0.0091,0.578412 0.07146,0.793595 0.316293,1.092015 1.182535,1.913871 2.272777,2.15632 0.328042,0.07295 1.13823,0.0497 1.450536,-0.04163 z"
       id="path1" />
    <path
       style="fill:#ffffff;fill-rule:evenodd;stroke-width:0.03125"
       d="m 17.580243,20.670866 c -0.584275,-0.160332 -1.064908,-0.645795 -1.221327,-1.233602 -0.05276,-0.198281 -0.05947,-0.63891 -0.01284,-0.843514 0.13368,-0.586534 0.692388,-1.145242 1.278922,-1.278922 0.204604,-0.04663 0.645233,-0.03993 0.843514,0.01284 0.595184,0.158382 1.076688,0.639886 1.23507,1.23507 0.0586,0.220221 0.0586,0.654307 0,0.874528 -0.158382,0.595184 -0.639886,1.076688 -1.23507,1.23507 -0.211468,0.05627 -0.680679,0.0555 -0.888271,-0.0015 z"
       id="path2" />
    <path
       style="fill:#ffffff;fill-rule:evenodd;stroke-width:0.03125"
       d="M 9.5802433,20.795866 C 8.9959679,20.635534 8.5153351,20.150071 8.3589159,19.562264 8.3061521,19.363983 8.2994461,18.923354 8.3460783,18.71875 8.479758,18.132216 9.0384656,17.573508 9.625,17.439828 c 0.2046041,-0.04663 0.645233,-0.03993 0.843514,0.01284 0.595184,0.158382 1.076688,0.639886 1.23507,1.23507 0.0586,0.220221 0.0586,0.654307 0,0.874528 -0.158382,0.595184 -0.639886,1.076688 -1.23507,1.23507 -0.211468,0.05627 -0.6806788,0.0555 -0.8882707,-0.0015 z"
       id="path3" />
    <path
       style="fill:#ffffff;fill-rule:evenodd;stroke-width:0.03125"
       d="m 13.28125,14.03125 v -0.8125 H 12.4375 11.59375 V 12.984375 12.75 h 0.84375 0.84375 V 11.9375 11.125 H 13.515625 13.75 v 0.8125 0.8125 h 0.84375 0.84375 v 0.234375 0.234375 H 14.59375 13.75 v 0.8125 0.8125 H 13.515625 13.28125 Z"
       id="path4" />
    <path
       style="fill:#ffffff;fill-rule:evenodd;stroke-width:0.03125"
       d="m 14.2016,6.9609375 c 0.07775,-0.6388655 0.439766,-1.13216 0.860545,-1.1725915 0.311819,-0.029962 0.635891,0.220335 0.80925,0.6250239 0.05924,0.1382889 0.159855,0.5558679 0.159855,0.6634377 0,0.042338 -0.112353,0.048192 -0.924807,0.048192 h -0.924808 z"
       id="path5" />
  </g>
</svg>
