<svg width="474" height="232" viewBox="0 0 474 232" fill="none" xmlns="http://www.w3.org/2000/svg">
  <g>
    <g>
      <rect width="474" height="35" fill="var(--vscode-editorGroupHeader-tabsBackground, #292929)" />
      <g clip-path="url(#clip0_729_69685)">
        <g>
          <rect width="123" height="35" fill="var(--vscode-tab-activeBackground, #252526)" />
          <g>
            <path d="M14.44 17.44C14.44 16.64 14.56 15.9333 14.8 15.32C15.0533 14.6933 15.3867 14.1733 15.8 13.76C16.2133 13.3467 16.72 13.0067 17.32 12.74C17.7867 12.54 18.3867 12.44 19.12 12.44C19.7467 12.44 20.3067 12.5667 20.8 12.82C21.3067 13.06 21.7267 13.3467 22.06 13.68L20.68 15.24L20.52 15.12C20.3067 14.9467 20.1333 14.8467 20 14.82L19.8 14.76C19.5333 14.6667 19.3067 14.62 19.12 14.62C18.8267 14.62 18.56 14.6867 18.32 14.82C18.0267 14.9533 17.7933 15.14 17.62 15.38C17.4467 15.6067 17.3 15.9067 17.18 16.28C17.06 16.64 17 17.0267 17 17.44C17 18.4 17.2067 19.0867 17.62 19.5C17.8467 19.7533 18.0867 19.9467 18.34 20.08C18.6067 20.2 18.9067 20.26 19.24 20.26C19.5733 20.26 19.8667 20.1933 20.12 20.06C20.4 19.9267 20.6333 19.74 20.82 19.5L22.18 21.06C21.7933 21.5 21.34 21.8533 20.82 22.12C20.3133 22.3733 19.7467 22.5 19.12 22.5C18.5467 22.5 17.9467 22.3933 17.32 22.18C16.7467 21.9933 16.2467 21.6867 15.82 21.26C15.62 21.06 15.44 20.8 15.28 20.48C15.1733 20.28 15.04 19.9733 14.88 19.56C14.5867 19.04 14.44 18.3333 14.44 17.44ZM23.62 18.18H23L22.76 19.68H22L22.26 18.18H21.5V17.5H22.44L22.56 16.5H21.76V15.82H22.68L22.94 14.32H23.68L23.44 15.82H24.06L24.32 14.32H25.06L24.82 15.82H25.62V16.5H24.62L24.5 17.5H25.32V18.18H24.32L24.06 19.68H23.32C23.32 19.7067 23.3667 19.4667 23.46 18.96L23.62 18.18ZM23.12 17.56H23.76L23.88 16.56H23.26L23.12 17.56Z" fill="#519ABA" />
          </g>
          <rect x="32" y="14" width="79" height="7" rx="3.5" fill="var(--vscode-tab-inactiveForeground, #FFFFFF)" fill-opacity="0.12" />
        </g>
      </g>
      <g clip-path="url(#clip1_729_69685)">
        <g>
          <path d="M432.027 11.0133H420.987L420.027 11.9733V23.0133L420.987 23.9733H432.027L432.987 23.0133V11.9733L432.027 11.0133ZM426 23.0133H420.987V11.9733H426V23.0133ZM432.027 23.0133H427.013V11.9733H432.027V23.0133Z" fill="var(--vscode-icon-foreground, #CCCCCC)" />
        </g>
        <g>
          <path d="M450 18C450 18.2844 449.893 18.5333 449.68 18.7467C449.502 18.9244 449.271 19.0133 448.987 19.0133C448.702 19.0133 448.471 18.9244 448.293 18.7467C448.116 18.5333 448.027 18.2844 448.027 18C448.027 17.7156 448.116 17.4844 448.293 17.3067C448.471 17.0933 448.702 16.9867 448.987 16.9867C449.271 16.9867 449.502 17.0933 449.68 17.3067C449.893 17.4844 450 17.7156 450 18ZM455.013 18C455.013 18.2844 454.907 18.5333 454.693 18.7467C454.516 18.9244 454.284 19.0133 454 19.0133C453.716 19.0133 453.467 18.9244 453.253 18.7467C453.076 18.5333 452.987 18.2844 452.987 18C452.987 17.7156 453.076 17.4844 453.253 17.3067C453.467 17.0933 453.716 16.9867 454 16.9867C454.284 16.9867 454.516 17.0933 454.693 17.3067C454.907 17.4844 455.013 17.7156 455.013 18ZM460.027 18C460.027 18.2844 459.92 18.5333 459.707 18.7467C459.529 18.9244 459.298 19.0133 459.013 19.0133C458.729 19.0133 458.48 18.9244 458.267 18.7467C458.089 18.5333 458 18.2844 458 18C458 17.7156 458.089 17.4844 458.267 17.3067C458.48 17.0933 458.729 16.9867 459.013 16.9867C459.298 16.9867 459.529 17.0933 459.707 17.3067C459.92 17.4844 460.027 17.7156 460.027 18Z" fill="var(--vscode-icon-foreground, #CCCCCC)" />
        </g>
      </g>
    </g>
    <g filter="url(#filter0_d_729_69685)">
      <rect x="25" y="31" width="425" height="182" rx="6" fill="var(--vscode-quickInput-background, #252526)" />
      <g>
        <g>
          <rect x="32.5" y="38.5" width="410" height="25" rx="2.5" fill="var(--vscode-input-background, #3C3C3C)" />
          <path d="M38.168 54.3242L42.8779 52.4326V52.3691L38.168 50.4204V49.0239L44.4648 51.7598V52.9595L38.168 55.708V54.3242ZM51.2378 56.0952C50.7046 56.0952 50.3047 55.6953 50.3047 55.1812C50.3047 54.667 50.7046 54.2671 51.2378 54.2671C51.7773 54.2671 52.1709 54.667 52.1709 55.1812C52.1709 55.6953 51.7773 56.0952 51.2378 56.0952ZM55.8208 56H54.437V46.8403H55.7192L60.4229 53.5054H60.5244V46.8403H61.9082V56H60.626L55.9224 49.3477H55.8208V56ZM70.0269 54.7749V56H64.2124V46.8403H70.0269V48.0654H65.6343V50.7441H69.792V51.9248H65.6343V54.7749H70.0269ZM75.8286 56H74.4067V48.0654H71.5249V46.8403H78.7041V48.0654H75.8286V56ZM80.9321 51.3281C80.3989 51.3281 79.999 50.9282 79.999 50.4141C79.999 49.8999 80.3989 49.5 80.9321 49.5C81.4717 49.5 81.8652 49.8999 81.8652 50.4141C81.8652 50.9282 81.4717 51.3281 80.9321 51.3281ZM80.9321 56.0952C80.3989 56.0952 79.999 55.6953 79.999 55.1812C79.999 54.667 80.3989 54.2671 80.9321 54.2671C81.4717 54.2671 81.8652 54.667 81.8652 55.1812C81.8652 55.6953 81.4717 56.0952 80.9321 56.0952ZM87.686 46.8403H91.2725C93.0625 46.8403 94.2939 48.0718 94.2939 49.8745C94.2939 51.6392 93.0244 52.8706 91.228 52.8706H89.1079V56H87.686V46.8403ZM89.1079 48.04V51.6772H90.8979C92.123 51.6772 92.8403 51.0234 92.8403 49.8745C92.8403 48.6875 92.1484 48.04 90.8979 48.04H89.1079ZM95.9697 56V49.1064H97.2837V50.1538H97.3853C97.582 49.4746 98.3501 48.9858 99.2515 48.9858C99.4546 48.9858 99.7148 49.0049 99.8608 49.0366V50.3188C99.7466 50.2871 99.3403 50.2427 99.0991 50.2427C98.0645 50.2427 97.3345 50.9092 97.3345 51.8804V56H95.9697ZM103.917 56.1333C101.892 56.1333 100.654 54.7812 100.654 52.5532C100.654 50.3315 101.898 48.9731 103.917 48.9731C105.929 48.9731 107.173 50.3252 107.173 52.5532C107.173 54.7812 105.936 56.1333 103.917 56.1333ZM103.917 54.9717C105.098 54.9717 105.771 54.083 105.771 52.5532C105.771 51.0171 105.098 50.1284 103.917 50.1284C102.73 50.1284 102.063 51.0171 102.063 52.5532C102.063 54.0894 102.73 54.9717 103.917 54.9717ZM109.535 47.875C109.059 47.875 108.671 47.4878 108.671 47.0181C108.671 46.542 109.059 46.1548 109.535 46.1548C110.004 46.1548 110.398 46.542 110.398 47.0181C110.398 47.4878 110.004 47.875 109.535 47.875ZM110.201 49.1064V56.2983C110.201 57.7139 109.471 58.3613 107.973 58.3613C107.922 58.3613 107.7 58.355 107.668 58.355V57.2632C107.688 57.2632 107.84 57.2632 107.859 57.2632C108.589 57.2632 108.843 56.9839 108.843 56.292V49.1064H110.201ZM116.739 54.1528H118.053C117.755 55.3716 116.638 56.1333 115.057 56.1333C113.077 56.1333 111.864 54.7686 111.864 52.5659C111.864 50.376 113.102 48.9731 115.051 48.9731C116.974 48.9731 118.136 50.2871 118.136 52.4453V52.915H113.254V52.9785C113.299 54.229 114.003 55.0161 115.095 55.0161C115.92 55.0161 116.485 54.7114 116.739 54.1528ZM115.044 50.084C114.035 50.084 113.331 50.8203 113.254 51.9312H116.746C116.714 50.814 116.054 50.084 115.044 50.084ZM125.626 51.3218H124.299C124.141 50.6489 123.582 50.1348 122.668 50.1348C121.525 50.1348 120.827 51.0361 120.827 52.5278C120.827 54.0513 121.532 54.9717 122.668 54.9717C123.531 54.9717 124.122 54.5654 124.299 53.8164H125.626C125.448 55.1748 124.382 56.1333 122.674 56.1333C120.662 56.1333 119.431 54.7622 119.431 52.5278C119.431 50.3379 120.656 48.9731 122.668 48.9731C124.401 48.9731 125.448 49.9824 125.626 51.3218ZM127.771 47.3672H129.136V49.1255H130.634V50.2173H129.136V53.8545C129.136 54.5972 129.435 54.9209 130.114 54.9209C130.323 54.9209 130.444 54.9082 130.634 54.8892V55.9746C130.412 56.0127 130.158 56.0444 129.892 56.0444C128.375 56.0444 127.771 55.5112 127.771 54.1846V50.2173H126.673V49.1255H127.771V47.3672Z" fill="var(--vscode-input-foreground, #CCCCCC)" />
          <rect x="32.5" y="38.5" width="410" height="25" rx="2.5" stroke="var(--vscode-focusBorder, #007FD4)" />
        </g>
      </g>
      <g>
        <g>
          <g>
            <rect x="37" y="77" width="38" height="6" rx="3" fill="var(--vscode-descriptionForeground, #606060)" />
            <rect x="112" y="77" width="105" height="6" rx="3" fill="var(--vscode-descriptionForeground, #FFFFFF)" fill-opacity="0.16" />
            <rect x="79" y="77" width="29" height="6" rx="3" fill="var(--vscode-list-highlightForeground, #3794FF)" fill-opacity="0.6" />
          </g>
        </g>
        <g>
          <rect width="425" height="24" transform="translate(25 93)" fill="var(--vscode-list-activeSelectionBackground, #062F4A)" />
          <g>
            <path d="M39.2598 110.159C38.5806 110.159 38.1362 109.702 38.1362 109.08C38.1362 108.458 38.5806 108.007 39.2598 108.007C39.9453 108.007 40.3833 108.458 40.3833 109.08C40.3833 109.702 39.9453 110.159 39.2598 110.159ZM44.4648 110H42.6304V100.84H44.23L48.4448 106.674H48.5591V100.84H50.3936V110H48.8066L44.5791 104.141H44.4648V110ZM58.6899 108.419V110H52.6216V100.84H58.6899V102.421H54.5386V104.63H58.4551V106.103H54.5386V108.419H58.6899ZM64.8472 110H62.9302V102.421H60.1816V100.84H67.5957V102.421H64.8472V110ZM70.1855 105.652C69.5063 105.652 69.062 105.195 69.062 104.573C69.062 103.951 69.5063 103.5 70.1855 103.5C70.8711 103.5 71.3091 103.951 71.3091 104.573C71.3091 105.195 70.8711 105.652 70.1855 105.652ZM70.1855 110.159C69.5063 110.159 69.062 109.702 69.062 109.08C69.062 108.458 69.5063 108.007 70.1855 108.007C70.8711 108.007 71.3091 108.458 71.3091 109.08C71.3091 109.702 70.8711 110.159 70.1855 110.159ZM108.367 100.84H112.188C114.073 100.84 115.362 102.097 115.362 103.989C115.362 105.855 114.022 107.112 112.093 107.112H110.284V110H108.367V100.84ZM110.284 102.364V105.607H111.674C112.772 105.607 113.413 105.036 113.413 103.995C113.413 102.929 112.785 102.364 111.68 102.364H110.284ZM116.942 110V103.011H118.732V104.122H118.847C119.031 103.424 119.754 102.897 120.643 102.897C120.897 102.897 121.208 102.929 121.367 102.979V104.604C121.221 104.554 120.789 104.503 120.491 104.503C119.481 104.503 118.79 105.106 118.79 106.09V110H116.942ZM125.543 110.146C123.392 110.146 122.097 108.781 122.097 106.502C122.097 104.243 123.411 102.859 125.543 102.859C127.676 102.859 128.99 104.236 128.99 106.502C128.99 108.788 127.695 110.146 125.543 110.146ZM125.543 108.686C126.527 108.686 127.092 107.886 127.092 106.502C127.092 105.131 126.521 104.325 125.543 104.325C124.56 104.325 123.995 105.131 123.995 106.502C123.995 107.886 124.553 108.686 125.543 108.686ZM131.447 101.938C130.875 101.938 130.399 101.481 130.399 100.91C130.399 100.333 130.875 99.8755 131.447 99.8755C132.018 99.8755 132.488 100.333 132.488 100.91C132.488 101.481 132.018 101.938 131.447 101.938ZM132.361 103.011V110.229C132.361 111.657 131.504 112.38 129.885 112.38C129.752 112.38 129.466 112.368 129.39 112.361V110.984C129.428 110.99 129.568 110.997 129.625 110.997C130.272 110.997 130.514 110.755 130.514 110.178V103.011H132.361ZM138.759 108.026H140.479C140.207 109.327 138.994 110.146 137.28 110.146C135.147 110.146 133.891 108.8 133.891 106.541C133.891 104.268 135.173 102.859 137.255 102.859C139.318 102.859 140.537 104.179 140.537 106.388V106.94H135.731V107.036C135.757 108.102 136.366 108.769 137.331 108.769C138.061 108.769 138.562 108.502 138.759 108.026ZM137.261 104.236C136.404 104.236 135.801 104.852 135.738 105.792H138.721C138.683 104.833 138.125 104.236 137.261 104.236ZM148.249 105.449H146.522C146.396 104.776 145.919 104.332 145.132 104.332C144.136 104.332 143.577 105.1 143.577 106.49C143.577 107.899 144.142 108.68 145.132 108.68C145.888 108.68 146.383 108.305 146.522 107.607H148.249C148.097 109.143 146.954 110.146 145.132 110.146C142.949 110.146 141.711 108.819 141.711 106.49C141.711 104.186 142.942 102.859 145.132 102.859C146.986 102.859 148.097 103.887 148.249 105.449ZM150.287 101.342H152.134V103.075H153.587V104.478H152.134V107.689C152.134 108.318 152.413 108.61 153.042 108.61C153.283 108.61 153.41 108.597 153.587 108.578V109.943C153.359 109.987 153.016 110.025 152.661 110.025C150.959 110.025 150.287 109.473 150.287 108.115V104.478H149.195V103.075H150.287V101.342Z" fill="var(--vscode-list-highlightForeground, #40A6FF)" />
            <path d="M78.5327 110H77.1489V100.84H78.4312L83.1348 107.505H83.2363V100.84H84.6201V110H83.3379L78.6343 103.348H78.5327V110ZM91.2979 108.153H92.6118C92.3135 109.372 91.1963 110.133 89.6157 110.133C87.6353 110.133 86.4229 108.769 86.4229 106.566C86.4229 104.376 87.6606 102.973 89.6094 102.973C91.5327 102.973 92.6943 104.287 92.6943 106.445V106.915H87.813V106.979C87.8574 108.229 88.562 109.016 89.6538 109.016C90.479 109.016 91.0439 108.711 91.2979 108.153ZM89.603 104.084C88.5938 104.084 87.8892 104.82 87.813 105.931H91.3042C91.2725 104.814 90.6123 104.084 89.603 104.084ZM103.282 103.106L101.384 110H99.9688L98.5405 104.858H98.4326L97.0107 110H95.6079L93.7036 103.106H95.0874L96.3252 108.426H96.4268L97.8486 103.106H99.1562L100.578 108.426H100.686L101.917 103.106H103.282ZM156.253 110.095C155.72 110.095 155.32 109.695 155.32 109.181C155.32 108.667 155.72 108.267 156.253 108.267C156.793 108.267 157.187 108.667 157.187 109.181C157.187 109.695 156.793 110.095 156.253 110.095ZM160.354 110.095C159.821 110.095 159.421 109.695 159.421 109.181C159.421 108.667 159.821 108.267 160.354 108.267C160.894 108.267 161.287 108.667 161.287 109.181C161.287 109.695 160.894 110.095 160.354 110.095ZM164.455 110.095C163.921 110.095 163.521 109.695 163.521 109.181C163.521 108.667 163.921 108.267 164.455 108.267C164.994 108.267 165.388 108.667 165.388 109.181C165.388 109.695 164.994 110.095 164.455 110.095Z" fill="var(--vscode-list-activeSelectionForeground, #E3E3E3)" />
          </g>
        </g>
        <g>
          <g>
            <rect x="37" y="127" width="62.5" height="6" rx="3" fill="var(--vscode-descriptionForeground, #FFFFFF)" fill-opacity="0.16" />
            <rect x="103.5" y="127" width="29" height="6" rx="3" fill="var(--vscode-list-highlightForeground, #3794FF)" fill-opacity="0.6" />
            <rect x="136.5" y="127" width="62.5" height="6" rx="3" fill="var(--vscode-descriptionForeground, #FFFFFF)" fill-opacity="0.16" />
          </g>
        </g>
        <g>
          <g>
            <rect x="37" y="149" width="41" height="6" rx="3" fill="var(--vscode-descriptionForeground, #FFFFFF)" fill-opacity="0.16" />
            <rect x="82" y="149" width="69" height="6" rx="3" fill="var(--vscode-descriptionForeground, #FFFFFF)" fill-opacity="0.16" />
            <rect x="155" y="149" width="26" height="6" rx="3" fill="var(--vscode-list-highlightForeground, #3794FF)" fill-opacity="0.6" />
          </g>
        </g>
        <g>
          <g>
            <rect x="37" y="171" width="26" height="6" rx="3" fill="var(--vscode-list-highlightForeground, #3794FF)" fill-opacity="0.6" />
            <rect x="67" y="171" width="164" height="6" rx="3" fill="var(--vscode-descriptionForeground, #FFFFFF)" fill-opacity="0.16" />
          </g>
        </g>
        <g>
          <g>
            <rect x="37" y="193" width="46" height="6" rx="3" fill="var(--vscode-descriptionForeground, #FFFFFF)" fill-opacity="0.16" />
            <rect x="87" y="193" width="29" height="6" rx="3" fill="var(--vscode-list-highlightForeground, #3794FF)" fill-opacity="0.6" />
            <rect x="120" y="193" width="46" height="6" rx="3" fill="var(--vscode-descriptionForeground, #FFFFFF)" fill-opacity="0.16" />
          </g>
        </g>
      </g>
      <rect x="24.5" y="30.5" width="426" height="183" rx="6.5" stroke="var(--vscode-editorHoverWidget-border, #333333)" />
    </g>
  </g>
  <defs>
    <filter id="filter0_d_729_69685" x="8" y="16" width="459" height="216" filterUnits="userSpaceOnUse" color-interpolation-filters="sRGB">
      <feFlood flood-opacity="0" result="BackgroundImageFix" />
      <feColorMatrix in="SourceAlpha" type="matrix" values="0 0 0 0 0 0 0 0 0 0 0 0 0 0 0 0 0 0 127 0" result="hardAlpha" />
      <feOffset dy="2" />
      <feGaussianBlur stdDeviation="8" />
      <feColorMatrix type="matrix" values="0 0 0 0 0 0 0 0 0 0 0 0 0 0 0 0 0 0 0.36 0" />
      <feBlend mode="normal" in2="BackgroundImageFix" result="effect1_dropShadow_729_69685" />
      <feBlend mode="normal" in="SourceGraphic" in2="effect1_dropShadow_729_69685" result="shape" />
    </filter>
    <clipPath id="clip0_729_69685">
      <rect width="123" height="35" fill="#FFFFFF" />
    </clipPath>
    <clipPath id="clip1_729_69685">
      <rect width="52" height="24" fill="#FFFFFF" transform="translate(414 6)" />
    </clipPath>
  </defs>
</svg>