<svg width="474" height="232" viewBox="0 0 474 232" fill="none" xmlns="http://www.w3.org/2000/svg">
  <g>
    <g>
      <rect width="474" height="35" fill="var(--vscode-editorGroupHeader-tabsBackground, #292929)" />
      <g clip-path="url(#clip0_729_69800)">
        <g>
          <rect width="123" height="35" fill="var(--vscode-tab-activeBackground, #252526)" />
          <g>
            <path d="M14.44 17.44C14.44 16.64 14.56 15.9333 14.8 15.32C15.0533 14.6933 15.3867 14.1733 15.8 13.76C16.2133 13.3467 16.72 13.0067 17.32 12.74C17.7867 12.54 18.3867 12.44 19.12 12.44C19.7467 12.44 20.3067 12.5667 20.8 12.82C21.3067 13.06 21.7267 13.3467 22.06 13.68L20.68 15.24L20.52 15.12C20.3067 14.9467 20.1333 14.8467 20 14.82L19.8 14.76C19.5333 14.6667 19.3067 14.62 19.12 14.62C18.8267 14.62 18.56 14.6867 18.32 14.82C18.0267 14.9533 17.7933 15.14 17.62 15.38C17.4467 15.6067 17.3 15.9067 17.18 16.28C17.06 16.64 17 17.0267 17 17.44C17 18.4 17.2067 19.0867 17.62 19.5C17.8467 19.7533 18.0867 19.9467 18.34 20.08C18.6067 20.2 18.9067 20.26 19.24 20.26C19.5733 20.26 19.8667 20.1933 20.12 20.06C20.4 19.9267 20.6333 19.74 20.82 19.5L22.18 21.06C21.7933 21.5 21.34 21.8533 20.82 22.12C20.3133 22.3733 19.7467 22.5 19.12 22.5C18.5467 22.5 17.9467 22.3933 17.32 22.18C16.7467 21.9933 16.2467 21.6867 15.82 21.26C15.62 21.06 15.44 20.8 15.28 20.48C15.1733 20.28 15.04 19.9733 14.88 19.56C14.5867 19.04 14.44 18.3333 14.44 17.44ZM23.62 18.18H23L22.76 19.68H22L22.26 18.18H21.5V17.5H22.44L22.56 16.5H21.76V15.82H22.68L22.94 14.32H23.68L23.44 15.82H24.06L24.32 14.32H25.06L24.82 15.82H25.62V16.5H24.62L24.5 17.5H25.32V18.18H24.32L24.06 19.68H23.32C23.32 19.7067 23.3667 19.4667 23.46 18.96L23.62 18.18ZM23.12 17.56H23.76L23.88 16.56H23.26L23.12 17.56Z" fill="#519ABA" />
          </g>
          <rect x="32" y="14" width="79" height="7" rx="3.5" fill="var(--vscode-tab-inactiveForeground, #FFFFFF)" fill-opacity="0.12" />
        </g>
      </g>
      <g clip-path="url(#clip1_729_69800)">
        <g>
          <path d="M432.027 11.0133H420.987L420.027 11.9733V23.0133L420.987 23.9733H432.027L432.987 23.0133V11.9733L432.027 11.0133ZM426 23.0133H420.987V11.9733H426V23.0133ZM432.027 23.0133H427.013V11.9733H432.027V23.0133Z" fill="var(--vscode-icon-foreground, #CCCCCC)" />
        </g>
        <g>
          <path d="M450 18C450 18.2844 449.893 18.5333 449.68 18.7467C449.502 18.9244 449.271 19.0133 448.987 19.0133C448.702 19.0133 448.471 18.9244 448.293 18.7467C448.116 18.5333 448.027 18.2844 448.027 18C448.027 17.7156 448.116 17.4844 448.293 17.3067C448.471 17.0933 448.702 16.9867 448.987 16.9867C449.271 16.9867 449.502 17.0933 449.68 17.3067C449.893 17.4844 450 17.7156 450 18ZM455.013 18C455.013 18.2844 454.907 18.5333 454.693 18.7467C454.516 18.9244 454.284 19.0133 454 19.0133C453.716 19.0133 453.467 18.9244 453.253 18.7467C453.076 18.5333 452.987 18.2844 452.987 18C452.987 17.7156 453.076 17.4844 453.253 17.3067C453.467 17.0933 453.716 16.9867 454 16.9867C454.284 16.9867 454.516 17.0933 454.693 17.3067C454.907 17.4844 455.013 17.7156 455.013 18ZM460.027 18C460.027 18.2844 459.92 18.5333 459.707 18.7467C459.529 18.9244 459.298 19.0133 459.013 19.0133C458.729 19.0133 458.48 18.9244 458.267 18.7467C458.089 18.5333 458 18.2844 458 18C458 17.7156 458.089 17.4844 458.267 17.3067C458.48 17.0933 458.729 16.9867 459.013 16.9867C459.298 16.9867 459.529 17.0933 459.707 17.3067C459.92 17.4844 460.027 17.7156 460.027 18Z" fill="var(--vscode-icon-foreground, #CCCCCC)" />
        </g>
      </g>
    </g>
    <g filter="url(#filter0_d_729_69800)">
      <rect x="25" y="31" width="425" height="182" rx="6" fill="var(--vscode-quickInput-background, #252526)" />
      <g>
        <g>
          <rect x="32.5" y="38.5" width="410" height="25" rx="2.5" fill="var(--vscode-input-background, #3C3C3C)" />
          <path d="M38.168 54.3242L42.8779 52.4326V52.3691L38.168 50.4204V49.0239L44.4648 51.7598V52.9595L38.168 55.708V54.3242ZM51.2378 56.0952C50.7046 56.0952 50.3047 55.6953 50.3047 55.1812C50.3047 54.667 50.7046 54.2671 51.2378 54.2671C51.7773 54.2671 52.1709 54.667 52.1709 55.1812C52.1709 55.6953 51.7773 56.0952 51.2378 56.0952ZM55.8208 56H54.437V46.8403H55.7192L60.4229 53.5054H60.5244V46.8403H61.9082V56H60.626L55.9224 49.3477H55.8208V56ZM70.0269 54.7749V56H64.2124V46.8403H70.0269V48.0654H65.6343V50.7441H69.792V51.9248H65.6343V54.7749H70.0269ZM75.8286 56H74.4067V48.0654H71.5249V46.8403H78.7041V48.0654H75.8286V56Z" fill="var(--vscode-input-foreground, #CCCCCC)" />
          <rect x="32.5" y="38.5" width="410" height="25" rx="2.5" stroke="var(--vscode-focusBorder, #007FD4)" />
        </g>
      </g>
      <g>
        <g>
          <g>
            <rect x="37" y="77" width="62.5" height="6" rx="3" fill="var(--vscode-descriptionForeground, #FFFFFF)" fill-opacity="0.16" />
            <rect x="103.5" y="77" width="29" height="6" rx="3" fill="var(--vscode-list-highlightForeground, #3794FF)" fill-opacity="0.6" />
            <rect x="136.5" y="77" width="62.5" height="6" rx="3" fill="var(--vscode-descriptionForeground, #FFFFFF)" fill-opacity="0.16" />
          </g>
        </g>
        <g>
          <g>
            <rect x="37" y="99" width="41" height="6" rx="3" fill="var(--vscode-descriptionForeground, #FFFFFF)" fill-opacity="0.16" />
            <rect x="82" y="99" width="69" height="6" rx="3" fill="var(--vscode-descriptionForeground, #FFFFFF)" fill-opacity="0.16" />
            <rect x="155" y="99" width="26" height="6" rx="3" fill="var(--vscode-list-highlightForeground, #3794FF)" fill-opacity="0.6" />
          </g>
        </g>
        <g>
          <rect width="425" height="24" transform="translate(25 115)" fill="var(--vscode-list-activeSelectionBackground, #062F4A)" />
          <g>
            <path d="M39.2598 132.159C38.5806 132.159 38.1362 131.702 38.1362 131.08C38.1362 130.458 38.5806 130.007 39.2598 130.007C39.9453 130.007 40.3833 130.458 40.3833 131.08C40.3833 131.702 39.9453 132.159 39.2598 132.159ZM44.4648 132H42.6304V122.84H44.23L48.4448 128.674H48.5591V122.84H50.3936V132H48.8066L44.5791 126.141H44.4648V132ZM58.6899 130.419V132H52.6216V122.84H58.6899V124.421H54.5386V126.63H58.4551V128.103H54.5386V130.419H58.6899ZM64.8472 132H62.9302V124.421H60.1816V122.84H67.5957V124.421H64.8472V132Z" fill="var(--vscode-list-highlightForeground, #40A6FF)" />
            <path d="M70.23 127.328C69.6968 127.328 69.2969 126.928 69.2969 126.414C69.2969 125.9 69.6968 125.5 70.23 125.5C70.7695 125.5 71.1631 125.9 71.1631 126.414C71.1631 126.928 70.7695 127.328 70.23 127.328ZM70.23 132.095C69.6968 132.095 69.2969 131.695 69.2969 131.181C69.2969 130.667 69.6968 130.267 70.23 130.267C70.7695 130.267 71.1631 130.667 71.1631 131.181C71.1631 131.695 70.7695 132.095 70.23 132.095Z" fill="var(--vscode-list-activeSelectionForeground, #CCCCCC)" />
            <path d="M84.7979 128.395C84.7979 130.718 83.2427 132.222 80.8433 132.222C78.2471 132.222 76.6094 130.369 76.6094 127.417C76.6094 124.503 78.2661 122.618 80.8306 122.618C82.9126 122.618 84.4233 123.786 84.7344 125.633H83.3062C82.9507 124.497 82.0811 123.881 80.8306 123.881C79.1357 123.881 78.063 125.246 78.063 127.411C78.063 129.607 79.1421 130.959 80.8623 130.959C82.3604 130.959 83.3887 130.013 83.4014 128.61V128.407H81.04V127.258H84.7979V128.395ZM91.1328 130.153H92.4468C92.1484 131.372 91.0312 132.133 89.4507 132.133C87.4702 132.133 86.2578 130.769 86.2578 128.566C86.2578 126.376 87.4956 124.973 89.4443 124.973C91.3677 124.973 92.5293 126.287 92.5293 128.445V128.915H87.6479V128.979C87.6924 130.229 88.397 131.016 89.4888 131.016C90.314 131.016 90.8789 130.711 91.1328 130.153ZM89.438 126.084C88.4287 126.084 87.7241 126.82 87.6479 127.931H91.1392C91.1074 126.814 90.4473 126.084 89.438 126.084ZM94.6494 123.367H96.0142V125.125H97.5122V126.217H96.0142V129.854C96.0142 130.597 96.3125 130.921 96.9917 130.921C97.2012 130.921 97.3218 130.908 97.5122 130.889V131.975C97.29 132.013 97.0361 132.044 96.7695 132.044C95.2524 132.044 94.6494 131.511 94.6494 130.185V126.217H93.5513V125.125H94.6494V123.367ZM99.626 123.367H100.991V125.125H102.489V126.217H100.991V129.854C100.991 130.597 101.289 130.921 101.968 130.921C102.178 130.921 102.298 130.908 102.489 130.889V131.975C102.267 132.013 102.013 132.044 101.746 132.044C100.229 132.044 99.626 131.511 99.626 130.185V126.217H98.5278V125.125H99.626V123.367ZM104.799 123.875C104.323 123.875 103.936 123.488 103.936 123.018C103.936 122.542 104.323 122.155 104.799 122.155C105.275 122.155 105.663 122.542 105.663 123.018C105.663 123.488 105.275 123.875 104.799 123.875ZM104.12 132V125.106H105.479V132H104.12ZM107.484 132V125.106H108.798V126.198H108.9C109.236 125.437 109.922 124.973 110.963 124.973C112.505 124.973 113.356 125.894 113.356 127.538V132H111.991V127.861C111.991 126.719 111.509 126.16 110.5 126.16C109.49 126.16 108.849 126.846 108.849 127.957V132H107.484ZM118.193 134.634C116.466 134.634 115.349 133.866 115.203 132.705H116.6C116.714 133.225 117.292 133.555 118.212 133.555C119.348 133.555 120.021 132.997 120.021 132.063V130.737H119.919C119.5 131.486 118.739 131.898 117.787 131.898C116.022 131.898 114.93 130.534 114.93 128.464C114.93 126.376 116.035 124.986 117.799 124.986C118.751 124.986 119.583 125.456 119.97 126.205H120.078V125.106H121.386V132.07C121.386 133.638 120.148 134.634 118.193 134.634ZM118.174 130.769C119.342 130.769 120.046 129.874 120.046 128.464C120.046 127.055 119.335 126.154 118.174 126.154C117 126.154 116.339 127.055 116.339 128.464C116.339 129.874 117 130.769 118.174 130.769ZM126.648 129.556H128.057C128.178 130.445 129.028 131.01 130.253 131.01C131.396 131.01 132.234 130.407 132.234 129.569C132.234 128.852 131.701 128.407 130.488 128.115L129.308 127.83C127.651 127.43 126.896 126.643 126.896 125.31C126.896 123.697 128.229 122.618 130.228 122.618C132.088 122.618 133.446 123.697 133.529 125.227H132.145C132.012 124.357 131.275 123.824 130.209 123.824C129.085 123.824 128.336 124.376 128.336 125.233C128.336 125.9 128.819 126.281 130.012 126.573L131.021 126.82C132.9 127.271 133.675 128.026 133.675 129.397C133.675 131.13 132.316 132.222 130.146 132.222C128.114 132.222 126.75 131.181 126.648 129.556ZM135.871 123.367H137.236V125.125H138.734V126.217H137.236V129.854C137.236 130.597 137.534 130.921 138.213 130.921C138.423 130.921 138.543 130.908 138.734 130.889V131.975C138.512 132.013 138.258 132.044 137.991 132.044C136.474 132.044 135.871 131.511 135.871 130.185V126.217H134.773V125.125H135.871V123.367ZM142.25 132.114C140.917 132.114 139.946 131.314 139.946 130.058C139.946 128.82 140.873 128.103 142.517 128.001L144.39 127.887V127.284C144.39 126.528 143.907 126.103 142.974 126.103C142.212 126.103 141.686 126.389 141.533 126.89H140.213C140.353 125.729 141.47 124.973 143.038 124.973C144.771 124.973 145.748 125.836 145.748 127.284V132H144.434V131.022H144.326C143.914 131.721 143.158 132.114 142.25 132.114ZM142.6 131.016C143.628 131.016 144.39 130.343 144.39 129.455V128.858L142.701 128.972C141.749 129.036 141.317 129.372 141.317 130C141.317 130.642 141.857 131.016 142.6 131.016ZM147.69 132V125.106H149.004V126.154H149.106C149.303 125.475 150.071 124.986 150.972 124.986C151.175 124.986 151.436 125.005 151.582 125.037V126.319C151.467 126.287 151.061 126.243 150.82 126.243C149.785 126.243 149.055 126.909 149.055 127.88V132H147.69ZM153.733 123.367H155.098V125.125H156.596V126.217H155.098V129.854C155.098 130.597 155.396 130.921 156.076 130.921C156.285 130.921 156.406 130.908 156.596 130.889V131.975C156.374 132.013 156.12 132.044 155.854 132.044C154.336 132.044 153.733 131.511 153.733 130.185V126.217H152.635V125.125H153.733V123.367ZM162.658 130.153H163.972C163.674 131.372 162.557 132.133 160.976 132.133C158.996 132.133 157.783 130.769 157.783 128.566C157.783 126.376 159.021 124.973 160.97 124.973C162.893 124.973 164.055 126.287 164.055 128.445V128.915H159.173V128.979C159.218 130.229 159.922 131.016 161.014 131.016C161.839 131.016 162.404 130.711 162.658 130.153ZM160.963 126.084C159.954 126.084 159.25 126.82 159.173 127.931H162.665C162.633 126.814 161.973 126.084 160.963 126.084ZM168.219 132.114C166.46 132.114 165.35 130.73 165.35 128.547C165.35 126.376 166.473 124.986 168.219 124.986C169.165 124.986 169.964 125.443 170.339 126.198H170.44V122.402H171.805V132H170.498V130.908H170.39C169.977 131.664 169.171 132.114 168.219 132.114ZM168.606 126.154C167.457 126.154 166.759 127.062 166.759 128.553C166.759 130.051 167.451 130.946 168.606 130.946C169.755 130.946 170.466 130.039 170.466 128.553C170.466 127.081 169.749 126.154 168.606 126.154ZM174.916 132.095C174.382 132.095 173.982 131.695 173.982 131.181C173.982 130.667 174.382 130.267 174.916 130.267C175.455 130.267 175.849 130.667 175.849 131.181C175.849 131.695 175.455 132.095 174.916 132.095ZM179.016 132.095C178.483 132.095 178.083 131.695 178.083 131.181C178.083 130.667 178.483 130.267 179.016 130.267C179.556 130.267 179.949 130.667 179.949 131.181C179.949 131.695 179.556 132.095 179.016 132.095ZM183.117 132.095C182.583 132.095 182.184 131.695 182.184 131.181C182.184 130.667 182.583 130.267 183.117 130.267C183.656 130.267 184.05 130.667 184.05 131.181C184.05 131.695 183.656 132.095 183.117 132.095Z" fill="var(--vscode-list-activeSelectionForeground, #E3E3E3)" />
          </g>
        </g>
        <g>
          <g>
            <rect x="37" y="149" width="41" height="6" rx="3" fill="var(--vscode-descriptionForeground, #FFFFFF)" fill-opacity="0.16" />
            <rect x="82" y="149" width="69" height="6" rx="3" fill="var(--vscode-descriptionForeground, #FFFFFF)" fill-opacity="0.16" />
            <rect x="155" y="149" width="26" height="6" rx="3" fill="var(--vscode-list-highlightForeground, #3794FF)" fill-opacity="0.6" />
          </g>
        </g>
        <g>
          <g>
            <rect x="37" y="171" width="26" height="6" rx="3" fill="var(--vscode-list-highlightForeground, #3794FF)" fill-opacity="0.6" />
            <rect x="67" y="171" width="164" height="6" rx="3" fill="var(--vscode-descriptionForeground, #FFFFFF)" fill-opacity="0.16" />
          </g>
        </g>
        <g>
          <g>
            <rect x="37" y="193" width="46" height="6" rx="3" fill="var(--vscode-descriptionForeground, #FFFFFF)" fill-opacity="0.16" />
            <rect x="87" y="193" width="29" height="6" rx="3" fill="var(--vscode-list-highlightForeground, #3794FF)" fill-opacity="0.6" />
            <rect x="120" y="193" width="46" height="6" rx="3" fill="var(--vscode-descriptionForeground, #FFFFFF)" fill-opacity="0.16" />
          </g>
        </g>
      </g>
      <rect x="24.5" y="30.5" width="426" height="183" rx="6.5" stroke="var(--vscode-editorHoverWidget-border, #333333)" />
    </g>
  </g>
  <defs>
    <filter id="filter0_d_729_69800" x="8" y="16" width="459" height="216" filterUnits="userSpaceOnUse" color-interpolation-filters="sRGB">
      <feFlood flood-opacity="0" result="BackgroundImageFix" />
      <feColorMatrix in="SourceAlpha" type="matrix" values="0 0 0 0 0 0 0 0 0 0 0 0 0 0 0 0 0 0 127 0" result="hardAlpha" />
      <feOffset dy="2" />
      <feGaussianBlur stdDeviation="8" />
      <feColorMatrix type="matrix" values="0 0 0 0 0 0 0 0 0 0 0 0 0 0 0 0 0 0 0.36 0" />
      <feBlend mode="normal" in2="BackgroundImageFix" result="effect1_dropShadow_729_69800" />
      <feBlend mode="normal" in="SourceGraphic" in2="effect1_dropShadow_729_69800" result="shape" />
    </filter>
    <clipPath id="clip0_729_69800">
      <rect width="123" height="35" fill="#FFFFFF" />
    </clipPath>
    <clipPath id="clip1_729_69800">
      <rect width="52" height="24" fill="#FFFFFF" transform="translate(414 6)" />
    </clipPath>
  </defs>
</svg>