<svg width="442" height="362" viewBox="0 0 442 362" fill="none" xmlns="http://www.w3.org/2000/svg">
  <g>
    <g clip-path="url(#clip0_729_69847)">
      <rect width="198" height="318" transform="translate(232 20)" fill="var(--vscode-editor-background, #252526)" />
      <g>
        <rect width="336" height="35" transform="translate(232 20)" fill="var(--vscode-editorGroupHeader-tabsBackground, #252526)" />
        <g clip-path="url(#clip1_729_69847)">
          <g>
            <rect width="103" height="35" transform="translate(232 20)" fill="var(--vscode-editor-background, #1E1E1E)" />
            <rect x="244" y="34" width="79" height="7" rx="3.5" fill="var(--vscode-tab-unfocusedInactiveForeground, #FFFFFF)" fill-opacity="0.12" />
          </g>
        </g>
      </g>
      <rect x="275" y="73" width="55" height="7" rx="3.5" fill="var(--vscode-descriptionForeground, #FFFFFF)" fill-opacity="0.16" />
      <rect x="275" y="92" width="55" height="7" rx="3.5" fill="var(--vscode-descriptionForeground, #FFFFFF)" fill-opacity="0.16" />
      <rect x="275" y="149" width="72" height="7" rx="3.5" fill="var(--vscode-descriptionForeground, #FFFFFF)" fill-opacity="0.16" />
      <rect x="353" y="149" width="26" height="7" rx="3.5" fill="var(--vscode-descriptionForeground, #FFFFFF)" fill-opacity="0.16" />
      <g>
        <rect x="275" y="269" width="72" height="7" rx="3.5" fill="var(--vscode-descriptionForeground, #FFFFFF)" fill-opacity="0.16" />
        <rect x="353" y="269" width="26" height="7" rx="3.5" fill="var(--vscode-descriptionForeground, #FFFFFF)" fill-opacity="0.16" />
      </g>
      <rect x="292" y="168" width="30" height="7" rx="3.5" fill="var(--vscode-descriptionForeground, #FFFFFF)" fill-opacity="0.16" />
      <rect x="302" y="187" width="30" height="7" rx="3.5" fill="var(--vscode-descriptionForeground, #FFFFFF)" fill-opacity="0.16" />
      <rect x="338" y="187" width="41" height="7" rx="3.5" fill="var(--vscode-descriptionForeground, #FFFFFF)" fill-opacity="0.16" />
      <rect x="292" y="206" width="30" height="7" rx="3.5" fill="var(--vscode-descriptionForeground, #FFFFFF)" fill-opacity="0.16" />
      <rect x="283" y="225" width="31" height="7" rx="3.5" fill="var(--vscode-descriptionForeground, #FFFFFF)" fill-opacity="0.16" />
      <rect x="336" y="73" width="52" height="7" rx="3.5" fill="var(--vscode-descriptionForeground, #FFFFFF)" fill-opacity="0.16" />
      <rect x="336" y="92" width="74" height="7" rx="3.5" fill="var(--vscode-descriptionForeground, #FFFFFF)" fill-opacity="0.16" />
      <rect x="329" y="168" width="59" height="7" rx="3.5" fill="var(--vscode-descriptionForeground, #FFFFFF)" fill-opacity="0.16" />
    </g>
    <g filter="url(#filter0_d_729_69847)">
      <rect x="10" y="8" width="249" height="342" rx="3" fill="var(--vscode-sideBar-background, #292929)" />
      <g>
        <g>
          <path d="M30.8806 35.7485V36.6072H26.8053V30.1872H30.8806V31.0459H27.8019V32.9234H30.716V33.7509H27.8019V35.7485H30.8806ZM31.9128 36.6072L34.0572 33.3772L31.935 30.1872H33.1229L34.6845 32.6386H34.7602L36.3485 30.1872H37.4696L35.2896 33.4083L37.4296 36.6072H36.2639L34.689 34.1914H34.6133L33.0161 36.6072H31.9128ZM38.6753 30.1872H41.189C42.4436 30.1872 43.3067 31.0503 43.3067 32.3139C43.3067 33.5507 42.4169 34.4138 41.1579 34.4138H39.6719V36.6072H38.6753V30.1872ZM39.6719 31.0281V33.5774H40.9265C41.7852 33.5774 42.2879 33.1191 42.2879 32.3139C42.2879 31.4819 41.803 31.0281 40.9265 31.0281H39.6719ZM48.5967 35.7396V36.6072H44.5925V30.1872H45.5891V35.7396H48.5967ZM52.3561 30.0315C54.2024 30.0315 55.3503 31.3306 55.3503 33.395C55.3503 35.4549 54.2113 36.7629 52.3561 36.7629C50.4875 36.7629 49.3574 35.4593 49.3574 33.395C49.3574 31.3262 50.5142 30.0315 52.3561 30.0315ZM52.3561 30.9124C51.1415 30.9124 50.3763 31.8734 50.3763 33.395C50.3763 34.9032 51.1193 35.882 52.3561 35.882C53.5751 35.882 54.3315 34.9032 54.3315 33.395C54.3315 31.8734 53.5707 30.9124 52.3561 30.9124ZM57.6994 34.138V36.6072H56.7028V30.1872H59.2432C60.5379 30.1872 61.3698 30.9525 61.3698 32.1492C61.3698 33.0168 60.9071 33.7198 60.1241 33.9822L61.5656 36.6072H60.4133L59.1053 34.138H57.6994ZM57.6994 31.0236V33.3193H59.132C59.9017 33.3193 60.3466 32.9056 60.3466 32.1715C60.3466 31.4552 59.875 31.0236 59.1053 31.0236H57.6994ZM66.8644 35.7485V36.6072H62.7891V30.1872H66.8644V31.0459H63.7857V32.9234H66.6998V33.7509H63.7857V35.7485H66.8644ZM69.3025 34.138V36.6072H68.3059V30.1872H70.8463C72.141 30.1872 72.9729 30.9525 72.9729 32.1492C72.9729 33.0168 72.5102 33.7198 71.7272 33.9822L73.1687 36.6072H72.0164L70.7084 34.138H69.3025ZM69.3025 31.0236V33.3193H70.7351C71.5047 33.3193 71.9496 32.9056 71.9496 32.1715C71.9496 31.4552 71.478 31.0236 70.7084 31.0236H69.3025ZM75.0239 33.3327C74.6502 33.3327 74.3699 33.0524 74.3699 32.692C74.3699 32.3317 74.6502 32.0514 75.0239 32.0514C75.4021 32.0514 75.6779 32.3317 75.6779 32.692C75.6779 33.0524 75.4021 33.3327 75.0239 33.3327ZM75.0239 36.6739C74.6502 36.6739 74.3699 36.3936 74.3699 36.0333C74.3699 35.6729 74.6502 35.3926 75.0239 35.3926C75.4021 35.3926 75.6779 35.6729 75.6779 36.0333C75.6779 36.3936 75.4021 36.6739 75.0239 36.6739ZM79.7577 30.1872H82.0757C83.9798 30.1872 85.0965 31.3618 85.0965 33.3816C85.0965 35.4237 83.9887 36.6072 82.0757 36.6072H79.7577V30.1872ZM80.7543 31.0459V35.7485H81.9644C83.308 35.7485 84.0822 34.8898 84.0822 33.395C84.0822 31.9134 83.2947 31.0459 81.9644 31.0459H80.7543ZM89.1852 30.0315C91.0316 30.0315 92.1794 31.3306 92.1794 33.395C92.1794 35.4549 91.0405 36.7629 89.1852 36.7629C87.3166 36.7629 86.1866 35.4593 86.1866 33.395C86.1866 31.3262 87.3433 30.0315 89.1852 30.0315ZM89.1852 30.9124C87.9706 30.9124 87.2054 31.8734 87.2054 33.395C87.2054 34.9032 87.9484 35.882 89.1852 35.882C90.4042 35.882 91.1606 34.9032 91.1606 33.395C91.1606 31.8734 90.3998 30.9124 89.1852 30.9124ZM95.9077 36.6072H94.9111V31.0459H92.8913V30.1872H97.9231V31.0459H95.9077V36.6072ZM100.116 36.6072H99.1466V30.1872H100.045L103.342 34.8587H103.413V30.1872H104.383V36.6072H103.484L100.188 31.9446H100.116V36.6072ZM110.073 35.7485V36.6072H105.998V30.1872H110.073V31.0459H106.995V32.9234H109.909V33.7509H106.995V35.7485H110.073ZM114.14 36.6072H113.143V31.0459H111.123V30.1872H116.155V31.0459H114.14V36.6072ZM119.599 34.4627H116.68V33.5774H119.599V34.4627ZM122.086 36.6072H121.116V30.1872H122.015L125.311 34.8587H125.383V30.1872H126.352V36.6072H125.454L122.157 31.9446H122.086V36.6072ZM132.043 35.7485V36.6072H127.967V30.1872H132.043V31.0459H128.964V32.9234H131.878V33.7509H128.964V35.7485H132.043ZM137.124 31.8067L135.749 36.6072H134.806L133.075 30.1872H134.112L135.291 35.179H135.353L136.692 30.1872H137.617L138.965 35.179H139.028L140.202 30.1872H141.239L139.504 36.6072H138.565L137.186 31.8067H137.124ZM144.834 34.4627H141.915V33.5774H144.834V34.4627ZM149.554 31.8067L148.179 36.6072H147.236L145.506 30.1872H146.542L147.721 35.179H147.783L149.123 30.1872H150.048L151.396 35.179H151.458L152.633 30.1872H153.67L151.934 36.6072H150.996L149.616 31.8067H149.554ZM158.951 35.7485V36.6072H154.875V30.1872H158.951V31.0459H155.872V32.9234H158.786V33.7509H155.872V35.7485H158.951ZM163.03 36.6072H160.392V30.1872H162.972C164.178 30.1872 164.903 30.8012 164.903 31.7889C164.903 32.4607 164.41 33.0613 163.778 33.1681V33.2437C164.645 33.3371 165.224 33.9511 165.224 34.792C165.224 35.922 164.401 36.6072 163.03 36.6072ZM161.389 31.0014V32.9189H162.572C163.453 32.9189 163.911 32.5897 163.911 31.9624C163.911 31.3529 163.48 31.0014 162.741 31.0014H161.389ZM161.389 35.793H162.83C163.729 35.793 164.205 35.4237 164.205 34.7297C164.205 34.0356 163.711 33.6797 162.772 33.6797H161.389V35.793Z" fill="var(--vscode-sideBarTitle-foreground, #CCCCCC)" />
        </g>
      </g>
      <g>
        <g>
          <g>
            <g>
              <path d="M24 60.58L28.32 56.2067L28.96 56.8467L24.2667 61.4867H23.68L18.9867 56.8467L19.6267 56.2067L24 60.58Z" fill="var(--vscode-icon-foreground, #CCCCCC)" />
              <g>
                <path d="M34.5908 59.8569H36.1592C36.2344 60.5015 36.8682 60.915 37.7812 60.915C38.6245 60.915 39.2207 60.4907 39.2207 59.8892C39.2207 59.3789 38.834 59.0835 37.8833 58.874L36.8735 58.6538C35.4609 58.353 34.7681 57.6279 34.7681 56.4517C34.7681 55.0068 35.9443 54.0508 37.7329 54.0508C39.4409 54.0508 40.6494 55.0015 40.6978 56.3711H39.1724C39.0972 55.7373 38.5278 55.3237 37.7437 55.3237C36.9326 55.3237 36.3955 55.7158 36.3955 56.3228C36.3955 56.8115 36.7661 57.0962 37.6738 57.2949L38.6084 57.4937C40.166 57.8267 40.8374 58.498 40.8374 59.6958C40.8374 61.2427 39.6396 62.1987 37.6953 62.1987C35.8477 62.1987 34.6499 61.291 34.5908 59.8569ZM45.7627 54.0508C48.0454 54.0508 49.4902 55.6138 49.4902 58.1221C49.4902 60.6304 48.0508 62.1987 45.7627 62.1987C43.4585 62.1987 42.0298 60.6304 42.0298 58.1221C42.0298 55.6084 43.48 54.0508 45.7627 54.0508ZM45.7627 55.4258C44.5005 55.4258 43.6895 56.4731 43.6895 58.1221C43.6895 59.7656 44.4844 60.8237 45.7627 60.8237C47.0249 60.8237 47.8306 59.7656 47.8306 58.1221C47.8306 56.4731 47.0195 55.4258 45.7627 55.4258ZM56.1021 60.6357V62H51.0317V54.2495H52.6538V60.6357H56.1021ZM59.0508 54.2495V59.1694C59.0508 60.1631 59.6416 60.8076 60.6782 60.8076C61.7148 60.8076 62.3003 60.1631 62.3003 59.1694V54.2495H63.9224V59.3252C63.9224 61.0386 62.6602 62.1987 60.6782 62.1987C58.6963 62.1987 57.4287 61.0386 57.4287 59.3252V54.2495H59.0508ZM69.3042 62H67.6821V55.5869H65.3564V54.2495H71.6299V55.5869H69.3042V62ZM74.686 62H73.064V54.2495H74.686V62ZM79.9551 54.0508C82.2378 54.0508 83.6826 55.6138 83.6826 58.1221C83.6826 60.6304 82.2432 62.1987 79.9551 62.1987C77.6509 62.1987 76.2222 60.6304 76.2222 58.1221C76.2222 55.6084 77.6724 54.0508 79.9551 54.0508ZM79.9551 55.4258C78.6929 55.4258 77.8818 56.4731 77.8818 58.1221C77.8818 59.7656 78.6768 60.8237 79.9551 60.8237C81.2173 60.8237 82.0229 59.7656 82.0229 58.1221C82.0229 56.4731 81.2119 55.4258 79.9551 55.4258ZM86.7764 62H85.2241V54.2495H86.5776L90.144 59.1855H90.2407V54.2495H91.793V62H90.4502L86.873 57.0425H86.7764V62ZM101.649 60.6626V62H96.5142V54.2495H101.649V55.5869H98.1362V57.4561H101.45V58.7021H98.1362V60.6626H101.649ZM102.89 62L105.366 58.0952L102.906 54.2495H104.812L106.429 56.9941H106.526L108.159 54.2495H109.974L107.423 58.1221L109.937 62H108.089L106.424 59.3359H106.327L104.641 62H102.89ZM111.381 54.2495H114.615C116.21 54.2495 117.3 55.313 117.3 56.9136C117.3 58.4927 116.167 59.5562 114.534 59.5562H113.003V62H111.381V54.2495ZM113.003 55.5386V58.2832H114.18C115.109 58.2832 115.651 57.7998 115.651 56.9189C115.651 56.0166 115.12 55.5386 114.185 55.5386H113.003ZM123.864 60.6357V62H118.793V54.2495H120.416V60.6357H123.864ZM128.51 54.0508C130.792 54.0508 132.237 55.6138 132.237 58.1221C132.237 60.6304 130.798 62.1987 128.51 62.1987C126.206 62.1987 124.777 60.6304 124.777 58.1221C124.777 55.6084 126.227 54.0508 128.51 54.0508ZM128.51 55.4258C127.248 55.4258 126.437 56.4731 126.437 58.1221C126.437 59.7656 127.231 60.8237 128.51 60.8237C129.772 60.8237 130.578 59.7656 130.578 58.1221C130.578 56.4731 129.767 55.4258 128.51 55.4258ZM135.401 59.1641V62H133.779V54.2495H137.034C138.736 54.2495 139.784 55.1895 139.784 56.7202C139.784 57.7139 139.268 58.5732 138.376 58.9224L140.009 62H138.172L136.728 59.1641H135.401ZM135.401 55.5171V57.9556H136.824C137.641 57.9556 138.119 57.5098 138.119 56.7417C138.119 55.9897 137.614 55.5171 136.808 55.5171H135.401ZM146.551 60.6626V62H141.417V54.2495H146.551V55.5869H143.039V57.4561H146.353V58.7021H143.039V60.6626H146.551ZM149.881 59.1641V62H148.259V54.2495H151.514C153.217 54.2495 154.264 55.1895 154.264 56.7202C154.264 57.7139 153.749 58.5732 152.857 58.9224L154.49 62H152.653L151.208 59.1641H149.881ZM149.881 55.5171V57.9556H151.305C152.121 57.9556 152.599 57.5098 152.599 56.7417C152.599 55.9897 152.094 55.5171 151.289 55.5171H149.881Z" fill="var(--vscode-foreground, #CCCCCC)" />
              </g>
            </g>
          </g>
        </g>
        <g clip-path="url(#clip2_729_69847)">
          <g>
            <g>
              <path d="M35.08 80L30.7067 75.68L31.3467 75.04L35.9867 79.7333V80.32L31.3467 85.0133L30.7067 84.3733L35.08 80Z" fill="var(--vscode-icon-foreground, #CCCCCC)" />
              <g>
                <path d="M57.5 74H44.5L44 74.5V85.5L44.5 86H57.5L58 85.5V74.5L57.5 74ZM57 85H45V75H57V85Z" fill="var(--vscode-icon-foreground, #CCCCCC)" />
                <path d="M48.785 83.0001C49.3484 83.0193 49.9082 82.9027 50.417 82.6601V81.7661C49.9901 82.032 49.4948 82.1672 48.992 82.1551C48.726 82.1662 48.4606 82.1213 48.2131 82.0233C47.9655 81.9253 47.7413 81.7763 47.555 81.5861C47.3676 81.38 47.2228 81.139 47.1289 80.8767C47.035 80.6145 46.9939 80.3363 47.008 80.0581C46.9934 79.764 47.0376 79.4699 47.138 79.1931C47.2385 78.9163 47.3932 78.6623 47.593 78.4461C47.7921 78.2454 48.0308 78.0885 48.2938 77.9852C48.5569 77.8819 48.8386 77.8345 49.121 77.8461C49.578 77.8411 50.0277 77.9614 50.421 78.1941V77.2391C49.9751 77.0651 49.4984 76.9838 49.02 77.0001C48.6198 76.9877 48.2214 77.0575 47.8492 77.205C47.477 77.3526 47.139 77.5748 46.856 77.8581C46.5684 78.1558 46.3442 78.5088 46.1971 78.8958C46.05 79.2827 45.9829 79.6955 46 80.1091C45.983 80.4906 46.0414 80.8716 46.172 81.2305C46.3026 81.5893 46.5028 81.9188 46.761 82.2001C47.0232 82.4682 47.339 82.6781 47.6877 82.8159C48.0365 82.9538 48.4104 83.0165 48.785 83.0001Z" fill="var(--vscode-icon-foreground, #CCCCCC)" />
                <path fill-rule="evenodd" clip-rule="evenodd" d="M55 80V79H56V78H55V77H54V78H53V77H52V78H51V79H52V80H51V81H52V82H53V81H54V82H55V81H56V80H55ZM53 79H54V80H53V79Z" fill="var(--vscode-icon-foreground, #CCCCCC)" />
              </g>
            </g>
            <g>
              <path d="M69.894 85H68.4722V77.0654H65.5903V75.8403H72.7695V77.0654H69.894V85ZM77.6445 83.1528H78.9585C78.6602 84.3716 77.543 85.1333 75.9624 85.1333C73.9819 85.1333 72.7695 83.7686 72.7695 81.5659C72.7695 79.376 74.0073 77.9731 75.9561 77.9731C77.8794 77.9731 79.041 79.2871 79.041 81.4453V81.915H74.1597V81.9785C74.2041 83.229 74.9087 84.0161 76.0005 84.0161C76.8257 84.0161 77.3906 83.7114 77.6445 83.1528ZM75.9497 79.084C74.9404 79.084 74.2358 79.8203 74.1597 80.9312H77.6509C77.6191 79.814 76.959 79.084 75.9497 79.084ZM80.6787 85V78.1064H81.9927V79.2046H82.0942C82.3989 78.4302 83.0972 77.9731 84.0176 77.9731C84.9634 77.9731 85.6172 78.4619 85.9219 79.2046H86.0298C86.3789 78.4619 87.1724 77.9731 88.1309 77.9731C89.5273 77.9731 90.3398 78.811 90.3398 80.2456V85H88.9751V80.5757C88.9751 79.6235 88.5308 79.1602 87.6357 79.1602C86.7534 79.1602 86.1758 79.8076 86.1758 80.6392V85H84.8364V80.436C84.8364 79.6489 84.3159 79.1602 83.5034 79.1602C82.6719 79.1602 82.0435 79.8647 82.0435 80.7661V85H80.6787ZM95.8433 77.9858C97.6016 77.9858 98.7124 79.3633 98.7124 81.5532C98.7124 83.7305 97.6016 85.1143 95.856 85.1143C94.8721 85.1143 94.0913 84.689 93.7295 83.959H93.6216V87.2979H92.2568V78.1064H93.5708V79.249H93.6724C94.0913 78.4619 94.9038 77.9858 95.8433 77.9858ZM95.4561 83.9463C96.6177 83.9463 97.3096 83.0513 97.3096 81.5532C97.3096 80.0552 96.6177 79.1538 95.4624 79.1538C94.3135 79.1538 93.5962 80.0742 93.5962 81.5532C93.5962 83.0259 94.3135 83.9463 95.4561 83.9463ZM100.42 85V75.4023H101.785V85H100.42ZM105.746 85.1143C104.413 85.1143 103.441 84.3145 103.441 83.0576C103.441 81.8198 104.368 81.1025 106.012 81.001L107.885 80.8867V80.2837C107.885 79.5283 107.402 79.103 106.469 79.103C105.708 79.103 105.181 79.3887 105.028 79.8901H103.708C103.848 78.7285 104.965 77.9731 106.533 77.9731C108.266 77.9731 109.243 78.8364 109.243 80.2837V85H107.929V84.0225H107.821C107.409 84.7207 106.653 85.1143 105.746 85.1143ZM106.095 84.0161C107.123 84.0161 107.885 83.3433 107.885 82.4546V81.8579L106.196 81.9722C105.244 82.0356 104.812 82.3721 104.812 83.0005C104.812 83.6416 105.352 84.0161 106.095 84.0161ZM111.668 76.3672H113.033V78.1255H114.531V79.2173H113.033V82.8545C113.033 83.5972 113.331 83.9209 114.01 83.9209C114.22 83.9209 114.34 83.9082 114.531 83.8892V84.9746C114.309 85.0127 114.055 85.0444 113.788 85.0444C112.271 85.0444 111.668 84.5112 111.668 83.1846V79.2173H110.57V78.1255H111.668V76.3672ZM120.593 83.1528H121.907C121.608 84.3716 120.491 85.1333 118.911 85.1333C116.93 85.1333 115.718 83.7686 115.718 81.5659C115.718 79.376 116.956 77.9731 118.904 77.9731C120.828 77.9731 121.989 79.2871 121.989 81.4453V81.915H117.108V81.9785C117.152 83.229 117.857 84.0161 118.949 84.0161C119.774 84.0161 120.339 83.7114 120.593 83.1528ZM118.898 79.084C117.889 79.084 117.184 79.8203 117.108 80.9312H120.599C120.567 79.814 119.907 79.084 118.898 79.084ZM123.468 80.0361C123.468 78.8364 124.592 77.9731 126.153 77.9731C127.708 77.9731 128.724 78.6968 128.857 79.8901H127.55C127.423 79.376 126.928 79.0396 126.153 79.0396C125.392 79.0396 124.814 79.4141 124.814 79.9727C124.814 80.3979 125.163 80.6646 125.912 80.8423L127.061 81.1089C128.375 81.4136 128.991 81.9785 128.991 82.9814C128.991 84.2637 127.778 85.1333 126.128 85.1333C124.484 85.1333 123.411 84.3906 123.291 83.1909H124.655C124.827 83.7305 125.334 84.0669 126.16 84.0669C127.01 84.0669 127.613 83.6733 127.613 83.1084C127.613 82.6768 127.29 82.3975 126.598 82.2324L125.392 81.9468C124.078 81.6421 123.468 81.0581 123.468 80.0361Z" fill="var(--vscode-foreground, #CCCCCC)" />
            </g>
          </g>
        </g>
        <g>
          <rect width="249" height="24" transform="translate(10 91)" fill="var(--vscode-list-activeSelectionBackground, #062F4A)" />
          <path d="M54.44 102.94C54.44 102.14 54.56 101.433 54.8 100.82C55.0533 100.193 55.3867 99.6733 55.8 99.26C56.2133 98.8467 56.72 98.5067 57.32 98.24C57.7867 98.04 58.3867 97.94 59.12 97.94C59.7467 97.94 60.3067 98.0667 60.8 98.32C61.3067 98.56 61.7267 98.8467 62.06 99.18L60.68 100.74L60.52 100.62C60.3067 100.447 60.1333 100.347 60 100.32L59.8 100.26C59.5333 100.167 59.3067 100.12 59.12 100.12C58.8267 100.12 58.56 100.187 58.32 100.32C58.0267 100.453 57.7933 100.64 57.62 100.88C57.4467 101.107 57.3 101.407 57.18 101.78C57.06 102.14 57 102.527 57 102.94C57 103.9 57.2067 104.587 57.62 105C57.8467 105.253 58.0867 105.447 58.34 105.58C58.6067 105.7 58.9067 105.76 59.24 105.76C59.5733 105.76 59.8667 105.693 60.12 105.56C60.4 105.427 60.6333 105.24 60.82 105L62.18 106.56C61.7933 107 61.34 107.353 60.82 107.62C60.3133 107.873 59.7467 108 59.12 108C58.5467 108 57.9467 107.893 57.32 107.68C56.7467 107.493 56.2467 107.187 55.82 106.76C55.62 106.56 55.44 106.3 55.28 105.98C55.1733 105.78 55.04 105.473 54.88 105.06C54.5867 104.54 54.44 103.833 54.44 102.94ZM63.62 103.68H63L62.76 105.18H62L62.26 103.68H61.5V103H62.44L62.56 102H61.76V101.32H62.68L62.94 99.82H63.68L63.44 101.32H64.06L64.32 99.82H65.06L64.82 101.32H65.62V102H64.62L64.5 103H65.32V103.68H64.32L64.06 105.18H63.32C63.32 105.207 63.3667 104.967 63.46 104.46L63.62 103.68ZM63.12 103.06H63.76L63.88 102.06H63.26L63.12 103.06Z" fill="#519ABA" />
          <path d="M77.1489 97.8403H80.7354C82.5254 97.8403 83.7568 99.0718 83.7568 100.875C83.7568 102.639 82.4873 103.871 80.6909 103.871H78.5708V107H77.1489V97.8403ZM78.5708 99.04V102.677H80.3608C81.5859 102.677 82.3032 102.023 82.3032 100.875C82.3032 99.6875 81.6113 99.04 80.3608 99.04H78.5708ZM85.4326 107V100.106H86.7466V101.154H86.8481C87.0449 100.475 87.813 99.9858 88.7144 99.9858C88.9175 99.9858 89.1777 100.005 89.3237 100.037V101.319C89.2095 101.287 88.8032 101.243 88.562 101.243C87.5273 101.243 86.7974 101.909 86.7974 102.88V107H85.4326ZM93.3799 107.133C91.355 107.133 90.1172 105.781 90.1172 103.553C90.1172 101.332 91.3613 99.9731 93.3799 99.9731C95.3921 99.9731 96.6362 101.325 96.6362 103.553C96.6362 105.781 95.3984 107.133 93.3799 107.133ZM93.3799 105.972C94.5605 105.972 95.2334 105.083 95.2334 103.553C95.2334 102.017 94.5605 101.128 93.3799 101.128C92.1929 101.128 91.5264 102.017 91.5264 103.553C91.5264 105.089 92.1929 105.972 93.3799 105.972ZM101.194 109.634C99.4673 109.634 98.3501 108.866 98.2041 107.705H99.6006C99.7148 108.225 100.292 108.555 101.213 108.555C102.349 108.555 103.022 107.997 103.022 107.063V105.737H102.92C102.501 106.486 101.74 106.898 100.788 106.898C99.0229 106.898 97.9312 105.534 97.9312 103.464C97.9312 101.376 99.0356 99.9858 100.8 99.9858C101.752 99.9858 102.584 100.456 102.971 101.205H103.079V100.106H104.387V107.07C104.387 108.638 103.149 109.634 101.194 109.634ZM101.175 105.769C102.343 105.769 103.047 104.874 103.047 103.464C103.047 102.055 102.336 101.154 101.175 101.154C100 101.154 99.3403 102.055 99.3403 103.464C99.3403 104.874 100 105.769 101.175 105.769ZM106.367 107V100.106H107.681V101.154H107.783C107.979 100.475 108.748 99.9858 109.649 99.9858C109.852 99.9858 110.112 100.005 110.258 100.037V101.319C110.144 101.287 109.738 101.243 109.497 101.243C108.462 101.243 107.732 101.909 107.732 102.88V107H106.367ZM113.432 107.114C112.099 107.114 111.128 106.314 111.128 105.058C111.128 103.82 112.055 103.103 113.699 103.001L115.571 102.887V102.284C115.571 101.528 115.089 101.103 114.156 101.103C113.394 101.103 112.867 101.389 112.715 101.89H111.395C111.534 100.729 112.651 99.9731 114.219 99.9731C115.952 99.9731 116.93 100.836 116.93 102.284V107H115.616V106.022H115.508C115.095 106.721 114.34 107.114 113.432 107.114ZM113.781 106.016C114.81 106.016 115.571 105.343 115.571 104.455V103.858L113.883 103.972C112.931 104.036 112.499 104.372 112.499 105C112.499 105.642 113.039 106.016 113.781 106.016ZM118.872 107V100.106H120.186V101.205H120.288C120.592 100.43 121.291 99.9731 122.211 99.9731C123.157 99.9731 123.811 100.462 124.115 101.205H124.223C124.572 100.462 125.366 99.9731 126.324 99.9731C127.721 99.9731 128.533 100.811 128.533 102.246V107H127.168V102.576C127.168 101.624 126.724 101.16 125.829 101.16C124.947 101.16 124.369 101.808 124.369 102.639V107H123.03V102.436C123.03 101.649 122.509 101.16 121.697 101.16C120.865 101.16 120.237 101.865 120.237 102.766V107H118.872ZM131.51 107.095C130.977 107.095 130.577 106.695 130.577 106.181C130.577 105.667 130.977 105.267 131.51 105.267C132.05 105.267 132.443 105.667 132.443 106.181C132.443 106.695 132.05 107.095 131.51 107.095ZM140.149 102.322H138.823C138.664 101.649 138.105 101.135 137.191 101.135C136.049 101.135 135.351 102.036 135.351 103.528C135.351 105.051 136.055 105.972 137.191 105.972C138.055 105.972 138.645 105.565 138.823 104.816H140.149C139.972 106.175 138.905 107.133 137.198 107.133C135.186 107.133 133.954 105.762 133.954 103.528C133.954 101.338 135.179 99.9731 137.191 99.9731C138.924 99.9731 139.972 100.982 140.149 102.322ZM141.552 102.036C141.552 100.836 142.676 99.9731 144.237 99.9731C145.792 99.9731 146.808 100.697 146.941 101.89H145.634C145.507 101.376 145.012 101.04 144.237 101.04C143.476 101.04 142.898 101.414 142.898 101.973C142.898 102.398 143.247 102.665 143.996 102.842L145.145 103.109C146.459 103.414 147.075 103.979 147.075 104.981C147.075 106.264 145.862 107.133 144.212 107.133C142.568 107.133 141.495 106.391 141.375 105.191H142.739C142.911 105.73 143.418 106.067 144.244 106.067C145.094 106.067 145.697 105.673 145.697 105.108C145.697 104.677 145.374 104.397 144.682 104.232L143.476 103.947C142.162 103.642 141.552 103.058 141.552 102.036Z" fill="var(--vscode-list-activeSelectionForeground, #FFFFFF)" />
        </g>
        <g>
          <path d="M54.44 126.94C54.44 126.14 54.56 125.433 54.8 124.82C55.0533 124.193 55.3867 123.673 55.8 123.26C56.2133 122.847 56.72 122.507 57.32 122.24C57.7867 122.04 58.3867 121.94 59.12 121.94C59.7467 121.94 60.3067 122.067 60.8 122.32C61.3067 122.56 61.7267 122.847 62.06 123.18L60.68 124.74L60.52 124.62C60.3067 124.447 60.1333 124.347 60 124.32L59.8 124.26C59.5333 124.167 59.3067 124.12 59.12 124.12C58.8267 124.12 58.56 124.187 58.32 124.32C58.0267 124.453 57.7933 124.64 57.62 124.88C57.4467 125.107 57.3 125.407 57.18 125.78C57.06 126.14 57 126.527 57 126.94C57 127.9 57.2067 128.587 57.62 129C57.8467 129.253 58.0867 129.447 58.34 129.58C58.6067 129.7 58.9067 129.76 59.24 129.76C59.5733 129.76 59.8667 129.693 60.12 129.56C60.4 129.427 60.6333 129.24 60.82 129L62.18 130.56C61.7933 131 61.34 131.353 60.82 131.62C60.3133 131.873 59.7467 132 59.12 132C58.5467 132 57.9467 131.893 57.32 131.68C56.7467 131.493 56.2467 131.187 55.82 130.76C55.62 130.56 55.44 130.3 55.28 129.98C55.1733 129.78 55.04 129.473 54.88 129.06C54.5867 128.54 54.44 127.833 54.44 126.94ZM63.62 127.68H63L62.76 129.18H62L62.26 127.68H61.5V127H62.44L62.56 126H61.76V125.32H62.68L62.94 123.82H63.68L63.44 125.32H64.06L64.32 123.82H65.06L64.82 125.32H65.62V126H64.62L64.5 127H65.32V127.68H64.32L64.06 129.18H63.32C63.32 129.207 63.3667 128.967 63.46 128.46L63.62 127.68ZM63.12 127.06H63.76L63.88 126.06H63.26L63.12 127.06Z" fill="#519ABA" />
          <path d="M76.7173 128.556H78.1265C78.2471 129.445 79.0977 130.01 80.3228 130.01C81.4653 130.01 82.3032 129.407 82.3032 128.569C82.3032 127.852 81.77 127.407 80.5576 127.115L79.377 126.83C77.7202 126.43 76.9648 125.643 76.9648 124.31C76.9648 122.697 78.2979 121.618 80.2974 121.618C82.1572 121.618 83.5156 122.697 83.5981 124.227H82.2144C82.0811 123.357 81.3447 122.824 80.2783 122.824C79.1548 122.824 78.4058 123.376 78.4058 124.233C78.4058 124.9 78.8882 125.281 80.0815 125.573L81.0908 125.82C82.9697 126.271 83.7441 127.026 83.7441 128.397C83.7441 130.13 82.3857 131.222 80.2148 131.222C78.1836 131.222 76.8188 130.181 76.7173 128.556ZM85.9404 122.367H87.3052V124.125H88.8032V125.217H87.3052V128.854C87.3052 129.597 87.6035 129.921 88.2827 129.921C88.4922 129.921 88.6128 129.908 88.8032 129.889V130.975C88.5811 131.013 88.3271 131.044 88.0605 131.044C86.5435 131.044 85.9404 130.511 85.9404 129.185V125.217H84.8423V124.125H85.9404V122.367ZM92.3198 131.114C90.9868 131.114 90.0156 130.314 90.0156 129.058C90.0156 127.82 90.9424 127.103 92.5864 127.001L94.459 126.887V126.284C94.459 125.528 93.9766 125.103 93.0435 125.103C92.2817 125.103 91.7549 125.389 91.6025 125.89H90.2822C90.4219 124.729 91.5391 123.973 93.1069 123.973C94.8398 123.973 95.8174 124.836 95.8174 126.284V131H94.5034V130.022H94.3955C93.9829 130.721 93.2275 131.114 92.3198 131.114ZM92.6689 130.016C93.6973 130.016 94.459 129.343 94.459 128.455V127.858L92.7705 127.972C91.8184 128.036 91.3867 128.372 91.3867 129C91.3867 129.642 91.9263 130.016 92.6689 130.016ZM97.7598 131V124.106H99.0737V125.154H99.1753C99.3721 124.475 100.14 123.986 101.042 123.986C101.245 123.986 101.505 124.005 101.651 124.037V125.319C101.537 125.287 101.13 125.243 100.889 125.243C99.8545 125.243 99.1245 125.909 99.1245 126.88V131H97.7598ZM103.803 122.367H105.167V124.125H106.666V125.217H105.167V128.854C105.167 129.597 105.466 129.921 106.145 129.921C106.354 129.921 106.475 129.908 106.666 129.889V130.975C106.443 131.013 106.189 131.044 105.923 131.044C104.406 131.044 103.803 130.511 103.803 129.185V125.217H102.705V124.125H103.803V122.367ZM114.099 124.106V131H112.785V129.908H112.677C112.34 130.689 111.636 131.133 110.588 131.133C109.059 131.133 108.208 130.2 108.208 128.582V124.106H109.573V128.245C109.573 129.388 110.023 129.934 111.026 129.934C112.131 129.934 112.734 129.261 112.734 128.15V124.106H114.099ZM119.666 123.986C121.424 123.986 122.535 125.363 122.535 127.553C122.535 129.73 121.424 131.114 119.678 131.114C118.694 131.114 117.914 130.689 117.552 129.959H117.444V133.298H116.079V124.106H117.393V125.249H117.495C117.914 124.462 118.726 123.986 119.666 123.986ZM119.278 129.946C120.44 129.946 121.132 129.051 121.132 127.553C121.132 126.055 120.44 125.154 119.285 125.154C118.136 125.154 117.418 126.074 117.418 127.553C117.418 129.026 118.136 129.946 119.278 129.946ZM125.086 131.095C124.553 131.095 124.153 130.695 124.153 130.181C124.153 129.667 124.553 129.267 125.086 129.267C125.626 129.267 126.02 129.667 126.02 130.181C126.02 130.695 125.626 131.095 125.086 131.095ZM133.726 126.322H132.399C132.24 125.649 131.682 125.135 130.768 125.135C129.625 125.135 128.927 126.036 128.927 127.528C128.927 129.051 129.631 129.972 130.768 129.972C131.631 129.972 132.221 129.565 132.399 128.816H133.726C133.548 130.175 132.481 131.133 130.774 131.133C128.762 131.133 127.53 129.762 127.53 127.528C127.53 125.338 128.755 123.973 130.768 123.973C132.5 123.973 133.548 124.982 133.726 126.322ZM135.128 126.036C135.128 124.836 136.252 123.973 137.813 123.973C139.369 123.973 140.384 124.697 140.518 125.89H139.21C139.083 125.376 138.588 125.04 137.813 125.04C137.052 125.04 136.474 125.414 136.474 125.973C136.474 126.398 136.823 126.665 137.572 126.842L138.721 127.109C140.035 127.414 140.651 127.979 140.651 128.981C140.651 130.264 139.438 131.133 137.788 131.133C136.144 131.133 135.071 130.391 134.951 129.191H136.315C136.487 129.73 136.995 130.067 137.82 130.067C138.67 130.067 139.273 129.673 139.273 129.108C139.273 128.677 138.95 128.397 138.258 128.232L137.052 127.947C135.738 127.642 135.128 127.058 135.128 126.036Z" fill="var(--vscode-foreground, #A0A0A0)" />
        </g>
        <g>
          <path d="M34.08 151L29.7067 146.68L30.3467 146.04L34.9867 150.733V151.32L30.3467 156.013L29.7067 155.373L34.08 151Z" fill="var(--vscode-icon-foreground, #808080)" />
          <rect x="48" y="147.5" width="70" height="7" rx="3.5" fill="var(--vscode-descriptionForeground, #FFFFFF)" fill-opacity="0.16" />
        </g>
        <g>
          <path d="M34.08 175L29.7067 170.68L30.3467 170.04L34.9867 174.733V175.32L30.3467 180.013L29.7067 179.373L34.08 175Z" fill="var(--vscode-icon-foreground, #808080)" />
          <rect x="48" y="171.5" width="93" height="7" rx="3.5" fill="var(--vscode-descriptionForeground, #FFFFFF)" fill-opacity="0.16" />
        </g>
      </g>
      <g>
        <path d="M26.38 199.12V198.94C26.3933 198.833 26.4267 198.74 26.48 198.66C26.52 198.607 26.58 198.533 26.66 198.44L26.82 198.26L29.94 195.12L29.96 195.14C29.9867 195.14 30 195.153 30 195.18L31.12 196.32C31.1867 196.373 31.1867 196.433 31.12 196.5C31.0933 196.687 31.1133 196.867 31.18 197.04C31.2467 197.213 31.3533 197.347 31.5 197.44C31.5533 197.467 31.5867 197.5 31.6 197.54C31.6133 197.567 31.62 197.613 31.62 197.68V200.44C31.62 200.52 31.58 200.6 31.5 200.68C31.34 200.787 31.22 200.927 31.14 201.1C31.0733 201.273 31.0667 201.453 31.12 201.64C31.1867 201.813 31.2933 201.96 31.44 202.08C31.5867 202.2 31.7533 202.26 31.94 202.26C32.1267 202.26 32.2933 202.207 32.44 202.1C32.5867 201.993 32.6867 201.853 32.74 201.68C32.8067 201.493 32.8133 201.313 32.76 201.14C32.7067 200.967 32.6 200.813 32.44 200.68C32.3867 200.653 32.3533 200.627 32.34 200.6C32.3267 200.56 32.32 200.507 32.32 200.44V197.62H32.38L33.38 198.62C33.4067 198.647 33.42 198.68 33.42 198.72L33.44 198.76V199.12C33.4667 199.373 33.5733 199.573 33.76 199.72C33.96 199.853 34.1867 199.907 34.44 199.88C34.6933 199.84 34.8933 199.713 35.04 199.5C35.2 199.287 35.2467 199.06 35.18 198.82C35.1533 198.607 35.0333 198.433 34.82 198.3C34.62 198.153 34.4067 198.093 34.18 198.12C34.1 198.12 34.02 198.1 33.94 198.06L32.88 197C32.84 196.96 32.82 196.9 32.82 196.82C32.86 196.633 32.8333 196.453 32.74 196.28C32.6467 196.107 32.5133 195.98 32.34 195.9C32.1667 195.807 31.9933 195.78 31.82 195.82C31.6867 195.82 31.62 195.8 31.62 195.76C31.1267 195.253 30.7533 194.893 30.5 194.68C30.4333 194.627 30.4333 194.567 30.5 194.5C30.6467 194.393 30.8333 194.207 31.06 193.94L31.32 193.68C31.6933 193.307 32.0667 193.307 32.44 193.68L37.18 198.44C37.5667 198.813 37.5667 199.187 37.18 199.56L32.54 204.22C32.42 204.34 32.3333 204.42 32.28 204.46C32.1733 204.553 32.06 204.607 31.94 204.62H31.82L31.72 204.58C31.56 204.513 31.4467 204.447 31.38 204.38L31 204C30.6267 203.653 30.3533 203.38 30.18 203.18L26.76 199.76C26.7333 199.693 26.6733 199.607 26.58 199.5C26.46 199.34 26.3933 199.213 26.38 199.12Z" fill="#6D8086" />
        <rect x="48" y="195.5" width="63" height="7" rx="3.5" fill="var(--vscode-descriptionForeground, #FFFFFF)" fill-opacity="0.16" />
      </g>
      <g>
        <path d="M26.38 223.12V222.94C26.3933 222.833 26.4267 222.74 26.48 222.66C26.52 222.607 26.58 222.533 26.66 222.44L26.82 222.26L29.94 219.12L29.96 219.14C29.9867 219.14 30 219.153 30 219.18L31.12 220.32C31.1867 220.373 31.1867 220.433 31.12 220.5C31.0933 220.687 31.1133 220.867 31.18 221.04C31.2467 221.213 31.3533 221.347 31.5 221.44C31.5533 221.467 31.5867 221.5 31.6 221.54C31.6133 221.567 31.62 221.613 31.62 221.68V224.44C31.62 224.52 31.58 224.6 31.5 224.68C31.34 224.787 31.22 224.927 31.14 225.1C31.0733 225.273 31.0667 225.453 31.12 225.64C31.1867 225.813 31.2933 225.96 31.44 226.08C31.5867 226.2 31.7533 226.26 31.94 226.26C32.1267 226.26 32.2933 226.207 32.44 226.1C32.5867 225.993 32.6867 225.853 32.74 225.68C32.8067 225.493 32.8133 225.313 32.76 225.14C32.7067 224.967 32.6 224.813 32.44 224.68C32.3867 224.653 32.3533 224.627 32.34 224.6C32.3267 224.56 32.32 224.507 32.32 224.44V221.62H32.38L33.38 222.62C33.4067 222.647 33.42 222.68 33.42 222.72L33.44 222.76V223.12C33.4667 223.373 33.5733 223.573 33.76 223.72C33.96 223.853 34.1867 223.907 34.44 223.88C34.6933 223.84 34.8933 223.713 35.04 223.5C35.2 223.287 35.2467 223.06 35.18 222.82C35.1533 222.607 35.0333 222.433 34.82 222.3C34.62 222.153 34.4067 222.093 34.18 222.12C34.1 222.12 34.02 222.1 33.94 222.06L32.88 221C32.84 220.96 32.82 220.9 32.82 220.82C32.86 220.633 32.8333 220.453 32.74 220.28C32.6467 220.107 32.5133 219.98 32.34 219.9C32.1667 219.807 31.9933 219.78 31.82 219.82C31.6867 219.82 31.62 219.8 31.62 219.76C31.1267 219.253 30.7533 218.893 30.5 218.68C30.4333 218.627 30.4333 218.567 30.5 218.5C30.6467 218.393 30.8333 218.207 31.06 217.94L31.32 217.68C31.6933 217.307 32.0667 217.307 32.44 217.68L37.18 222.44C37.5667 222.813 37.5667 223.187 37.18 223.56L32.54 228.22C32.42 228.34 32.3333 228.42 32.28 228.46C32.1733 228.553 32.06 228.607 31.94 228.62H31.82L31.72 228.58C31.56 228.513 31.4467 228.447 31.38 228.38L31 228C30.6267 227.653 30.3533 227.38 30.18 227.18L26.76 223.76C26.7333 223.693 26.6733 223.607 26.58 223.5C26.46 223.34 26.3933 223.213 26.38 223.12Z" fill="#6D8086" />
        <rect x="48" y="219.5" width="47" height="7" rx="3.5" fill="var(--vscode-descriptionForeground, #FFFFFF)" fill-opacity="0.16" />
      </g>
      <g>
        <path d="M30.0267 241.987H29.92C29.7067 241.987 29.5111 242.022 29.3333 242.093C29.0844 242.236 28.8711 242.431 28.6933 242.68C28.5511 242.893 28.48 243.16 28.48 243.48V244.813C28.48 245.027 28.4622 245.24 28.4267 245.453C28.3911 245.667 28.3378 245.862 28.2667 246.04C28.0889 246.431 27.84 246.751 27.52 247C27.84 247.249 28.0889 247.569 28.2667 247.96C28.3378 248.138 28.3911 248.333 28.4267 248.547C28.4622 248.76 28.48 248.973 28.48 249.187V250.52C28.48 250.733 28.5156 250.929 28.5867 251.107C28.6578 251.284 28.7467 251.444 28.8533 251.587C28.9956 251.729 29.1556 251.836 29.3333 251.907C29.5111 251.978 29.7067 252.013 29.92 252.013H30.0267V253.027H29.92C29.6 252.991 29.2978 252.92 29.0133 252.813C28.7289 252.707 28.4622 252.547 28.2133 252.333C28 252.084 27.84 251.818 27.7333 251.533C27.6267 251.249 27.5556 250.982 27.52 250.733V250.68C27.4844 250.396 27.4844 250.111 27.52 249.827V248.973C27.52 248.76 27.4844 248.564 27.4133 248.387C27.3422 248.209 27.2356 248.067 27.0933 247.96V247.907C26.9867 247.8 26.8444 247.711 26.6667 247.64V247.587C26.4889 247.516 26.2933 247.48 26.08 247.48H26.0267V246.52H26.08C26.2933 246.52 26.4889 246.484 26.6667 246.413C27.0222 246.236 27.2711 245.969 27.4133 245.613C27.4844 245.436 27.52 245.24 27.52 245.027V244.173C27.4844 243.889 27.4844 243.604 27.52 243.32C27.5556 243.036 27.6267 242.751 27.7333 242.467C27.84 242.182 28 241.933 28.2133 241.72C28.4267 241.471 28.6756 241.293 28.96 241.187C29.28 241.044 29.6 240.973 29.92 240.973H30.0267V241.987ZM34.0267 252.013H34.08C34.2933 252.013 34.4889 251.978 34.6667 251.907C34.9156 251.764 35.1111 251.587 35.2533 251.373C35.4311 251.124 35.52 250.84 35.52 250.52V249.187C35.52 248.973 35.5378 248.76 35.5733 248.547C35.6089 248.333 35.6622 248.138 35.7333 247.96C35.9111 247.569 36.16 247.249 36.48 247C36.16 246.751 35.9111 246.431 35.7333 246.04C35.6622 245.862 35.6089 245.667 35.5733 245.453C35.5378 245.24 35.52 245.027 35.52 244.813V243.48C35.52 243.267 35.4844 243.071 35.4133 242.893C35.3422 242.716 35.2356 242.556 35.0933 242.413C34.9867 242.271 34.8444 242.164 34.6667 242.093C34.4889 242.022 34.2933 241.987 34.08 241.987H34.0267V241.027H34.08C34.4 240.991 34.7022 241.044 34.9867 241.187C35.2711 241.293 35.52 241.471 35.7333 241.72C35.9822 241.933 36.16 242.182 36.2667 242.467C36.3733 242.751 36.4444 243.018 36.48 243.267V243.32C36.5156 243.604 36.5156 243.889 36.48 244.173V245.027C36.48 245.24 36.5156 245.436 36.5867 245.613C36.6578 245.791 36.7644 245.933 36.9067 246.04V246.093C37.0133 246.2 37.1556 246.289 37.3333 246.36V246.413C37.5111 246.484 37.7067 246.52 37.92 246.52H38.0267V247.48H37.92C37.7067 247.48 37.5111 247.516 37.3333 247.587C36.9778 247.764 36.7289 248.031 36.5867 248.387C36.5156 248.564 36.48 248.76 36.48 248.973V249.827C36.5156 250.111 36.5156 250.396 36.48 250.68C36.4444 251 36.3733 251.284 36.2667 251.533C36.16 251.818 35.9822 252.084 35.7333 252.333C35.52 252.547 35.2711 252.707 34.9867 252.813C34.7022 252.92 34.4 252.973 34.08 252.973H34.0267V252.013Z" fill="#CBCB41" />
        <rect x="48" y="243.5" width="58" height="7" rx="3.5" fill="var(--vscode-descriptionForeground, #FFFFFF)" fill-opacity="0.16" />
      </g>
      <g>
        <path d="M32.68 273.06C32.5733 273.06 32.4333 273.073 32.26 273.1C32.14 273.113 32.0533 273.12 32 273.12H30.88C30.96 272.227 31.0733 270.893 31.22 269.12C31.3667 267.347 31.48 266.013 31.56 265.12H32.3C32.8733 265.093 33.2933 265.093 33.56 265.12C33.6533 265.12 33.7467 265.18 33.84 265.3C33.9333 265.42 33.9667 265.527 33.94 265.62C33.8467 266.287 33.68 267.293 33.44 268.64L33.18 270C33.1133 270.56 32.98 271.42 32.78 272.58L32.68 273.06ZM32.94 275.56C32.9667 275.907 32.8533 276.22 32.6 276.5C32.3467 276.767 32.02 276.913 31.62 276.94C31.22 276.967 30.8533 276.873 30.52 276.66C30.2 276.433 30.0267 276.153 30 275.82C29.9733 275.433 30.0867 275.113 30.34 274.86C30.5933 274.607 30.94 274.467 31.38 274.44C31.82 274.413 32.18 274.5 32.46 274.7C32.7533 274.9 32.9133 275.187 32.94 275.56Z" fill="#A074C4" />
        <rect x="48" y="267.5" width="71" height="7" rx="3.5" fill="var(--vscode-descriptionForeground, #FFFFFF)" fill-opacity="0.16" />
      </g>
      <rect x="9" y="7" width="251" height="344" rx="4" stroke="var(--vscode-focusBorder, #007ACC)" stroke-width="2" stroke-dasharray="6 4" />
    </g>
    <g filter="url(#filter1_d_729_69847)">
      <rect x="169" y="239" width="257" height="53" rx="4" fill="var(--vscode-editorHoverWidget-background, #333333)" />
      <path d="M206.76 257.98L207.48 258.78V273.74L206.76 274.46H187.24L186.52 273.74V257.26L187.24 256.46H194.76L195.32 256.7L196.6 257.98H206.76ZM205.96 270.7L206.04 262.46H196.52L195.24 263.74L194.76 263.98H187.96V273.02H205.96V270.7ZM205.96 261.02L206.04 259.5H196.28L195.72 259.26L194.44 257.98H188.04V262.54H194.44L195.72 261.26L196.2 261.02H205.96Z" fill="var(--vscode-foreground, #FFFFFF)" />
      <path d="M225.492 274.211C222.246 274.211 220.195 271.656 220.195 267.625C220.195 263.617 222.27 261.051 225.492 261.051C227.238 261.051 228.715 261.895 229.406 263.289H229.594V256.281H232.113V274H229.699V271.984H229.5C228.738 273.379 227.25 274.211 225.492 274.211ZM226.207 263.207C224.086 263.207 222.797 264.883 222.797 267.637C222.797 270.402 224.074 272.055 226.207 272.055C228.328 272.055 229.641 270.379 229.641 267.637C229.641 264.918 228.316 263.207 226.207 263.207ZM241.289 274.246C237.551 274.246 235.266 271.75 235.266 267.637C235.266 263.535 237.562 261.027 241.289 261.027C245.004 261.027 247.301 263.523 247.301 267.637C247.301 271.75 245.016 274.246 241.289 274.246ZM241.289 272.102C243.469 272.102 244.711 270.461 244.711 267.637C244.711 264.801 243.469 263.16 241.289 263.16C239.098 263.16 237.867 264.801 237.867 267.637C237.867 270.473 239.098 272.102 241.289 272.102ZM251.227 258.062H253.746V261.309H256.512V263.324H253.746V270.039C253.746 271.41 254.297 272.008 255.551 272.008C255.938 272.008 256.16 271.984 256.512 271.949V273.953C256.102 274.023 255.633 274.082 255.141 274.082C252.34 274.082 251.227 273.098 251.227 270.648V263.324H249.199V261.309H251.227V258.062ZM259.477 274V261.273H261.902V263.289H262.09C262.711 261.883 263.977 261.027 265.898 261.027C268.746 261.027 270.316 262.727 270.316 265.762V274H267.797V266.359C267.797 264.25 266.906 263.219 265.043 263.219C263.18 263.219 261.996 264.484 261.996 266.535V274H259.477ZM282.234 270.59H284.66C284.109 272.84 282.047 274.246 279.129 274.246C275.473 274.246 273.234 271.727 273.234 267.66C273.234 263.617 275.52 261.027 279.117 261.027C282.668 261.027 284.812 263.453 284.812 267.438V268.305H275.801V268.422C275.883 270.73 277.184 272.184 279.199 272.184C280.723 272.184 281.766 271.621 282.234 270.59ZM279.105 263.078C277.242 263.078 275.941 264.438 275.801 266.488H282.246C282.188 264.426 280.969 263.078 279.105 263.078ZM288.727 258.062H291.246V261.309H294.012V263.324H291.246V270.039C291.246 271.41 291.797 272.008 293.051 272.008C293.438 272.008 293.66 271.984 294.012 271.949V273.953C293.602 274.023 293.133 274.082 292.641 274.082C289.84 274.082 288.727 273.098 288.727 270.648V263.324H286.699V261.309H288.727V258.062ZM304.312 268.352H296.625V266.02H304.312V268.352ZM308.016 274V261.273H310.441V263.289H310.629C311.25 261.883 312.516 261.027 314.438 261.027C317.285 261.027 318.855 262.727 318.855 265.762V274H316.336V266.359C316.336 264.25 315.445 263.219 313.582 263.219C311.719 263.219 310.535 264.484 310.535 266.535V274H308.016ZM330.773 270.59H333.199C332.648 272.84 330.586 274.246 327.668 274.246C324.012 274.246 321.773 271.727 321.773 267.66C321.773 263.617 324.059 261.027 327.656 261.027C331.207 261.027 333.352 263.453 333.352 267.438V268.305H324.34V268.422C324.422 270.73 325.723 272.184 327.738 272.184C329.262 272.184 330.305 271.621 330.773 270.59ZM327.645 263.078C325.781 263.078 324.48 264.438 324.34 266.488H330.785C330.727 264.426 329.508 263.078 327.645 263.078ZM352.898 261.273L349.395 274H346.781L344.145 264.508H343.945L341.32 274H338.73L335.215 261.273H337.77L340.055 271.094H340.242L342.867 261.273H345.281L347.906 271.094H348.105L350.379 261.273H352.898ZM362.93 268.352H355.242V266.02H362.93V268.352ZM382.945 261.273L379.441 274H376.828L374.191 264.508H373.992L371.367 274H368.777L365.262 261.273H367.816L370.102 271.094H370.289L372.914 261.273H375.328L377.953 271.094H378.152L380.426 261.273H382.945ZM393.422 270.59H395.848C395.297 272.84 393.234 274.246 390.316 274.246C386.66 274.246 384.422 271.727 384.422 267.66C384.422 263.617 386.707 261.027 390.305 261.027C393.855 261.027 396 263.453 396 267.438V268.305H386.988V268.422C387.07 270.73 388.371 272.184 390.387 272.184C391.91 272.184 392.953 271.621 393.422 270.59ZM390.293 263.078C388.43 263.078 387.129 264.438 386.988 266.488H393.434C393.375 264.426 392.156 263.078 390.293 263.078ZM405.785 274.211C404.004 274.211 402.516 273.391 401.754 271.984H401.566V274H399.141V256.281H401.66V263.289H401.859C402.539 261.906 404.039 261.051 405.785 261.051C409.02 261.051 411.059 263.594 411.059 267.637C411.059 271.645 409.008 274.211 405.785 274.211ZM405.059 263.207C402.949 263.207 401.625 264.906 401.613 267.637C401.625 270.367 402.938 272.055 405.059 272.055C407.191 272.055 408.469 270.391 408.469 267.637C408.469 264.883 407.191 263.207 405.059 263.207Z" fill="var(--vscode-foreground, #FFFFFF)" />
    </g>
    <g>
      <g filter="url(#filter2_d_729_69847)">
        <g>
          <path fill-rule="evenodd" clip-rule="evenodd" d="M207 306C207 310.97 211.03 315 216 315V315C220.97 315 225 310.97 225 306V306C225 301.029 220.97 297 216 297V297C211.03 297 207 301.029 207 306" fill="#3794FF" />
          <path fill-rule="evenodd" clip-rule="evenodd" d="M217 305V302C217 301.448 216.552 301 216 301C215.448 301 215 301.448 215 302V305H212C211.448 305 211 305.448 211 306C211 306.552 211.448 307 212 307H215V310C215 310.552 215.448 311 216 311C216.552 311 217 310.552 217 310V307H220C220.552 307 221 306.552 221 306C221 305.448 220.552 305 220 305H217Z" fill="#FFFFFF" />
        </g>
        <g>
          <path fill-rule="evenodd" clip-rule="evenodd" d="M206 299.5V283.5L217.6 295.108H210.554L210.402 295.232L206 299.5Z" fill="#FFFFFF" />
          <path fill-rule="evenodd" clip-rule="evenodd" d="M207 285.8V297L209.969 294.131L210.129 293.992L215.165 294L207 285.8Z" fill="#000000" />
        </g>
      </g>
    </g>
  </g>
  <defs>
    <filter id="filter0_d_729_69847" x="0" y="0" width="269" height="362" filterUnits="userSpaceOnUse" color-interpolation-filters="sRGB">
      <feFlood flood-opacity="0" result="BackgroundImageFix" />
      <feColorMatrix in="SourceAlpha" type="matrix" values="0 0 0 0 0 0 0 0 0 0 0 0 0 0 0 0 0 0 127 0" result="hardAlpha" />
      <feOffset dy="2" />
      <feGaussianBlur stdDeviation="4" />
      <feColorMatrix type="matrix" values="0 0 0 0 0 0 0 0 0 0 0 0 0 0 0 0 0 0 0.4 0" />
      <feBlend mode="normal" in2="BackgroundImageFix" result="effect1_dropShadow_729_69847" />
      <feBlend mode="normal" in="SourceGraphic" in2="effect1_dropShadow_729_69847" result="shape" />
    </filter>
    <filter id="filter1_d_729_69847" x="153" y="225" width="289" height="85" filterUnits="userSpaceOnUse" color-interpolation-filters="sRGB">
      <feFlood flood-opacity="0" result="BackgroundImageFix" />
      <feColorMatrix in="SourceAlpha" type="matrix" values="0 0 0 0 0 0 0 0 0 0 0 0 0 0 0 0 0 0 127 0" result="hardAlpha" />
      <feOffset dy="2" />
      <feGaussianBlur stdDeviation="8" />
      <feColorMatrix type="matrix" values="0 0 0 0 0 0 0 0 0 0 0 0 0 0 0 0 0 0 0.36 0" />
      <feBlend mode="normal" in2="BackgroundImageFix" result="effect1_dropShadow_729_69847" />
      <feBlend mode="normal" in="SourceGraphic" in2="effect1_dropShadow_729_69847" result="shape" />
    </filter>
    <filter id="filter2_d_729_69847" x="204.2" y="282.7" width="22.6" height="35.1" filterUnits="userSpaceOnUse" color-interpolation-filters="sRGB">
      <feFlood flood-opacity="0" result="BackgroundImageFix" />
      <feColorMatrix in="SourceAlpha" type="matrix" values="0 0 0 0 0 0 0 0 0 0 0 0 0 0 0 0 0 0 127 0" result="hardAlpha" />
      <feOffset dy="1" />
      <feGaussianBlur stdDeviation="0.9" />
      <feColorMatrix type="matrix" values="0 0 0 0 0 0 0 0 0 0 0 0 0 0 0 0 0 0 0.65 0" />
      <feBlend mode="normal" in2="BackgroundImageFix" result="effect1_dropShadow_729_69847" />
      <feBlend mode="normal" in="SourceGraphic" in2="effect1_dropShadow_729_69847" result="shape" />
    </filter>
    <clipPath id="clip0_729_69847">
      <rect width="198" height="318" fill="#FFFFFF" transform="translate(232 20)" />
    </clipPath>
    <clipPath id="clip1_729_69847">
      <rect width="103" height="35" fill="#FFFFFF" transform="translate(232 20)" />
    </clipPath>
    <clipPath id="clip2_729_69847">
      <rect width="249" height="22" fill="#FFFFFF" transform="translate(10 69)" />
    </clipPath>
  </defs>
</svg>