<svg width="513" height="350" viewBox="0 0 513 350" fill="none" xmlns="http://www.w3.org/2000/svg">
  <g>
    <g>
      <g clip-path="url(#clip0_729_69370)">
        <g>
          <g>
            <rect width="48" height="328" fill="var(--vscode-activityBar-background, #333333)" />
            <g>
              <g>
                <g>
                  <path d="M36 256C36 257.76 35.6267 259.44 34.88 261.04C34.1333 262.64 33.12 264 31.84 265.12L30.72 265.92C28.6933 267.307 26.4533 268 24 268C21.5467 268 19.3067 267.307 17.28 265.92L16.24 265.12C14.9067 264 13.8667 262.64 13.12 261.04C12.3733 259.44 12 257.76 12 256C12 253.813 12.5333 251.813 13.6 250C14.6667 248.133 16.1067 246.667 17.92 245.6C19.7867 244.533 21.8133 244 24 244C26.1867 244 28.1867 244.533 30 245.6C31.8667 246.667 33.3333 248.133 34.4 250C35.4667 251.813 36 253.813 36 256ZM24 266.48C26.24 266.48 28.2667 265.84 30.08 264.56C29.9733 264.08 29.84 263.627 29.68 263.2C29.36 262.453 28.9067 261.813 28.32 261.28C27.7867 260.693 27.12 260.267 26.32 260C25.5733 259.68 24.8 259.52 24 259.52C23.4667 259.52 22.9067 259.6 22.32 259.76C21.7867 259.867 21.3067 260.053 20.88 260.32C20.4533 260.587 20.0533 260.907 19.68 261.28C19.3067 261.653 18.9867 262.08 18.72 262.56C18.4533 262.987 18.24 263.467 18.08 264L18 264.56C19.8133 265.84 21.8133 266.48 24 266.48ZM20.32 255.36C20.5333 255.84 20.8267 256.267 21.2 256.64C21.5733 257.013 21.9733 257.307 22.4 257.52C23.4667 257.947 24.5067 257.947 25.52 257.52C26 257.307 26.4267 257.013 26.8 256.64C27.1733 256.267 27.4667 255.867 27.68 255.44C27.8933 254.96 28 254.453 28 253.92C28 253.333 27.8933 252.8 27.68 252.32C27.4667 251.84 27.1733 251.413 26.8 251.04C26.4267 250.667 26 250.373 25.52 250.16C25.0933 249.947 24.5867 249.84 24 249.84C23.4133 249.84 22.88 249.973 22.4 250.24C21.92 250.453 21.4933 250.747 21.12 251.12C20.8 251.44 20.5333 251.84 20.32 252.32C20.1067 252.8 20 253.307 20 253.84C20 254.373 20.1067 254.88 20.32 255.36ZM31.44 263.36C32.4533 262.4 33.2 261.28 33.68 260C34.2133 258.72 34.48 257.387 34.48 256C34.48 254.08 34 252.32 33.04 250.72C32.1333 249.12 30.88 247.867 29.28 246.96C27.68 246 25.92 245.52 24 245.52C22.08 245.52 20.32 246 18.72 246.96C17.12 247.867 15.84 249.12 14.88 250.72C13.9733 252.32 13.52 254.08 13.52 256C13.52 257.387 13.7867 258.72 14.32 260C14.8533 261.28 15.6 262.4 16.56 263.36V263.28C16.8267 262.48 17.1733 261.76 17.6 261.12C18.08 260.48 18.64 259.92 19.28 259.44C19.76 259.067 20.2667 258.773 20.8 258.56C20.5333 258.347 20.2933 258.133 20.08 257.92C19.6533 257.493 19.3333 257.093 19.12 256.72C18.9067 256.347 18.72 255.92 18.56 255.44C18.4 254.907 18.32 254.373 18.32 253.84C18.32 253.093 18.4533 252.373 18.72 251.68C19.04 250.987 19.44 250.373 19.92 249.84C20.4533 249.307 21.0667 248.907 21.76 248.64C22.4533 248.373 23.1733 248.24 23.92 248.24C24.72 248.24 25.4667 248.373 26.16 248.64C26.8533 248.907 27.4667 249.307 28 249.84C28.5333 250.373 28.9333 250.987 29.2 251.68C29.52 252.373 29.6533 253.093 29.6 253.84C29.6533 254.907 29.4133 255.867 28.88 256.72C28.6133 257.147 28.2933 257.547 27.92 257.92C27.7067 258.133 27.4667 258.32 27.2 258.48C27.7867 258.747 28.32 259.067 28.8 259.44C29.44 259.92 29.9733 260.48 30.4 261.12C30.88 261.76 31.2267 262.453 31.44 263.2V263.28C31.44 263.333 31.44 263.36 31.44 263.36Z" fill="var(--vscode-activityBar-foreground, #FFFFFF)" />
                  <g>
                    <rect x="26" y="256" width="15" height="15" rx="7.5" fill="var(--vscode-activityBarBadge-background, #007ACC)" />
                    <path d="M33.3638 267V261.911H33.2847L31.729 262.992V261.797L33.3682 260.659H34.6909V267H33.3638Z" fill="var(--vscode-activityBarBadge-foreground, #FFFFFF)" />
                  </g>
                </g>
              </g>
              <g>
                <g>
                  <path d="M31.84 300.72L36 301.6V306.4L31.84 307.28L34.24 310.8L30.8 314.16L27.28 311.84L26.4 316H21.6L20.72 311.84L17.2 314.24L13.84 310.8L16.16 307.28L12 306.4V301.6L16.16 300.72L13.84 297.2L17.2 293.76L20.72 296.16L21.6 292H26.4L27.28 296.16L30.8 293.76L34.24 297.2L31.84 300.72ZM30.32 305.84L34.32 305.04V303.04L30.32 302.16L29.76 300.88L32 297.44L30.64 296L27.2 298.32L25.84 297.76L25.04 293.76H23.04L22.24 297.76L20.96 298.32L17.52 296L16.08 297.44L18.4 300.88L17.84 302.16L13.84 303.04V305.04L17.84 305.84L18.4 307.12L16.08 310.56L17.52 312L20.96 309.68L22.24 310.24L23.04 314.24H25.04L25.84 310.24L27.2 309.68L30.64 312L32 310.56L29.76 307.12L30.32 305.84ZM22.08 301.12C22.6667 300.747 23.3067 300.56 24 300.56C24.96 300.56 25.76 300.907 26.4 301.6C27.0933 302.24 27.44 303.04 27.44 304C27.44 304.8 27.1733 305.52 26.64 306.16C26.1067 306.8 25.44 307.2 24.64 307.36C23.84 307.52 23.0667 307.413 22.32 307.04C21.6267 306.667 21.12 306.107 20.8 305.36C20.5333 304.56 20.5067 303.787 20.72 303.04C20.9333 302.24 21.3867 301.6 22.08 301.12ZM23.04 305.44C23.36 305.6 23.68 305.68 24 305.68C24.48 305.68 24.88 305.52 25.2 305.2C25.52 304.88 25.68 304.507 25.68 304.08C25.68 303.6 25.5467 303.227 25.28 302.96C25.0667 302.64 24.7467 302.453 24.32 302.4C23.9467 302.293 23.5733 302.347 23.2 302.56C22.8267 302.72 22.56 302.987 22.4 303.36C22.24 303.733 22.2133 304.133 22.32 304.56C22.48 304.933 22.72 305.227 23.04 305.44Z" fill="var(--vscode-activityBar-inactiveForeground, #808080)" />
                </g>
              </g>
            </g>
            <g>
              <g>
                <g>
                  <path d="M29.52 12L34 16.48V28.56L32.72 30H28V34.56L26.56 36H14.48L13.04 34.56V19.52L14.48 18H19.04V13.52L20.48 12H29.52ZM29.52 14.08V16.48H31.92L29.52 14.08ZM26.48 34.48V30H20.48L19.04 28.56V19.52H14.48V34.48H26.48ZM32.48 28.48V18H28V13.52H20.48V28.48H32.48Z" fill="var(--vscode-activityBar-inactiveForeground, #808080)" />
                </g>
              </g>
              <g>
                <g>
                  <path d="M27.28 60C29.04 60 30.64 60.5333 32.08 61.6C33.5733 62.6667 34.5867 64.08 35.12 65.84C35.6533 67.5467 35.6267 69.2533 35.04 70.96C34.4533 72.6667 33.4133 74.0267 31.92 75.04C30.4267 76.0533 28.7733 76.5333 26.96 76.48C25.2 76.4267 23.6 75.84 22.16 74.72L14.16 83.84L13.04 82.88L21.04 73.68C19.9733 72.5067 19.3067 71.12 19.04 69.52C18.8267 67.92 19.04 66.3733 19.68 64.88C20.3733 63.3867 21.3867 62.2133 22.72 61.36C24.1067 60.4533 25.6267 60 27.28 60ZM27.28 74.96V75.04C28.5067 75.04 29.6267 74.7467 30.64 74.16C31.6533 73.52 32.4533 72.6933 33.04 71.68C33.68 70.6133 34 69.4667 34 68.24C34 67.0133 33.68 65.8933 33.04 64.88C32.4533 63.8133 31.6533 62.9867 30.64 62.4C29.6267 61.8133 28.5067 61.52 27.28 61.52C26.0533 61.52 24.9067 61.8133 23.84 62.4C22.8267 62.9867 22 63.8133 21.36 64.88C20.7733 65.8933 20.48 67.0133 20.48 68.24C20.48 69.4667 20.7733 70.6133 21.36 71.68C22 72.6933 22.8267 73.4933 23.84 74.08C24.9067 74.6667 26.0533 74.96 27.28 74.96Z" fill="var(--vscode-activityBar-inactiveForeground, #808080)" />
                </g>
              </g>
              <g>
                <g>
                  <path d="M33.04 116.24C33.04 117.147 32.72 117.973 32.08 118.72C31.44 119.413 30.6667 119.813 29.76 119.92C29.44 120.827 28.88 121.573 28.08 122.16C27.3333 122.693 26.48 122.96 25.52 122.96H22.56C21.9733 122.96 21.44 123.12 20.96 123.44C20.48 123.707 20.1067 124.107 19.84 124.64C20.8 124.907 21.52 125.44 22 126.24C22.48 127.04 22.64 127.92 22.48 128.88C22.32 129.84 21.8667 130.613 21.12 131.2C20.3733 131.787 19.52 132.053 18.56 132C17.6 131.947 16.7733 131.6 16.08 130.96C15.44 130.267 15.0667 129.44 14.96 128.48C14.9067 127.52 15.1733 126.667 15.76 125.92C16.3467 125.173 17.12 124.693 18.08 124.48V115.36C17.12 115.2 16.3467 114.747 15.76 114C15.2267 113.2 14.9867 112.32 15.04 111.36C15.1467 110.4 15.5467 109.6 16.24 108.96C16.9867 108.32 17.84 108 18.8 108C19.76 108 20.5867 108.32 21.28 108.96C22.0267 109.6 22.4267 110.4 22.48 111.36C22.5867 112.32 22.3467 113.2 21.76 114C21.2267 114.747 20.48 115.2 19.52 115.36V122.64C20.3733 121.84 21.3867 121.44 22.56 121.44H25.52C26.1067 121.44 26.64 121.307 27.12 121.04C27.6 120.72 27.9733 120.293 28.24 119.76C27.5467 119.547 26.96 119.2 26.48 118.72C26 118.187 25.7067 117.573 25.6 116.88C25.4933 116.187 25.5467 115.52 25.76 114.88C26.0267 114.187 26.4533 113.627 27.04 113.2C27.6267 112.773 28.2667 112.533 28.96 112.48C29.6533 112.427 30.32 112.56 30.96 112.88C31.6 113.2 32.1067 113.68 32.48 114.32C32.8533 114.907 33.04 115.547 33.04 116.24ZM16.56 111.76C16.56 112.347 16.7733 112.88 17.2 113.36C17.6267 113.787 18.16 114 18.8 114C19.44 114 19.9733 113.787 20.4 113.36C20.8267 112.88 21.04 112.347 21.04 111.76C21.04 111.12 20.8267 110.587 20.4 110.16C19.9733 109.733 19.44 109.52 18.8 109.52C18.16 109.52 17.6267 109.733 17.2 110.16C16.7733 110.587 16.56 111.12 16.56 111.76ZM21.04 128.16C21.04 127.573 20.8267 127.067 20.4 126.64C19.9733 126.16 19.44 125.92 18.8 125.92C18.16 125.92 17.6267 126.16 17.2 126.64C16.7733 127.067 16.56 127.6 16.56 128.24C16.56 128.827 16.7733 129.333 17.2 129.76C17.6267 130.187 18.16 130.4 18.8 130.4C19.44 130.4 19.9733 130.187 20.4 129.76C20.8267 129.333 21.04 128.8 21.04 128.16ZM29.28 118.48C29.8667 118.48 30.3733 118.267 30.8 117.84C31.28 117.36 31.52 116.827 31.52 116.24C31.52 115.6 31.28 115.067 30.8 114.64C30.3733 114.213 29.84 114 29.2 114C28.6133 114 28.1067 114.213 27.68 114.64C27.2533 115.067 27.04 115.6 27.04 116.24C27.04 116.827 27.2533 117.36 27.68 117.84C28.1067 118.267 28.64 118.48 29.28 118.48Z" fill="var(--vscode-activityBar-inactiveForeground, #808080)" />
                </g>
              </g>
              <g>
                <g>
                  <path d="M18 168C18 168.427 17.84 168.8 17.52 169.12C17.2533 169.387 16.9067 169.52 16.48 169.52C16.0533 169.52 15.7067 169.387 15.44 169.12C15.1733 168.8 15.04 168.427 15.04 168C15.04 167.573 15.1733 167.227 15.44 166.96C15.7067 166.64 16.0533 166.48 16.48 166.48C16.9067 166.48 17.2533 166.64 17.52 166.96C17.84 167.227 18 167.573 18 168ZM25.52 168C25.52 168.427 25.36 168.8 25.04 169.12C24.7733 169.387 24.4267 169.52 24 169.52C23.5733 169.52 23.2 169.387 22.88 169.12C22.6133 168.8 22.48 168.427 22.48 168C22.48 167.573 22.6133 167.227 22.88 166.96C23.2 166.64 23.5733 166.48 24 166.48C24.4267 166.48 24.7733 166.64 25.04 166.96C25.36 167.227 25.52 167.573 25.52 168ZM33.04 168C33.04 168.427 32.88 168.8 32.56 169.12C32.2933 169.387 31.9467 169.52 31.52 169.52C31.0933 169.52 30.72 169.387 30.4 169.12C30.1333 168.8 30 168.427 30 168C30 167.573 30.1333 167.227 30.4 166.96C30.72 166.64 31.0933 166.48 31.52 166.48C31.9467 166.48 32.2933 166.64 32.56 166.96C32.88 167.227 33.04 167.573 33.04 168Z" fill="var(--vscode-activityBar-inactiveForeground, #808080)" />
                </g>
              </g>
            </g>
          </g>
          <g>
            <g>
              <rect width="465" height="394" transform="translate(48)" fill="var(--vscode-editor-background, #1E1E1E)" />
            </g>
          </g>
        </g>
        <g>
          <g>
            <rect width="1268" height="22" transform="translate(0 328)" fill="var(--vscode-statusBar-background, #007ACC)" />
          </g>
        </g>
        <rect x="16" y="336" width="17" height="6" rx="3" fill="var(--vscode-statusBar-foreground, #FFFFFF)" />
        <rect x="101" y="336" width="26" height="6" rx="3" fill="var(--vscode-statusBar-foreground, #FFFFFF)" />
        <rect x="37" y="336" width="47" height="6" rx="3" fill="var(--vscode-statusBar-foreground, #FFFFFF)" />
        <rect x="131" y="336" width="47" height="6" rx="3" fill="var(--vscode-statusBar-foreground, #FFFFFF)" />
      </g>
      <rect x="0.5" y="0.5" width="512" height="349" rx="7.5" stroke="var(--vscode-editorHoverWidget-border, #3C3C3C)" />
    </g>
    <g>
      <g filter="url(#filter0_d_729_69370)">
        <rect x="64" y="119" width="322" height="192" rx="5" fill="var(--vscode-menu-background, #252526)" />
        <g>
          <g>
            <g>
              <rect x="64" y="156" width="322" height="1" fill="var(--vscode-editorHoverWidget-border, #454545)" />
            </g>
          </g>
        </g>
        <g>
          <g>
            <g>
              <rect x="64" y="195" width="322" height="1" fill="var(--vscode-editorHoverWidget-border, #454545)" />
            </g>
          </g>
        </g>
        <g>
          <g>
            <g>
              <rect x="64" y="234" width="322" height="1" fill="var(--vscode-editorHoverWidget-border, #454545)" />
            </g>
          </g>
        </g>
        <g>
          <g>
            <g>
              <rect x="64" y="273" width="322" height="1" fill="var(--vscode-editorHoverWidget-border, #454545)" />
            </g>
          </g>
        </g>
        <g>
          <g>
            <g>
              <g>
                <rect x="68" y="279" width="314" height="28" rx="3" fill="var(--vscode-list-activeSelectionBackground, #094771)" />
                <path d="M100.717 295.556H102.126C102.247 296.445 103.098 297.01 104.323 297.01C105.465 297.01 106.303 296.407 106.303 295.569C106.303 294.852 105.77 294.407 104.558 294.115L103.377 293.83C101.72 293.43 100.965 292.643 100.965 291.31C100.965 289.697 102.298 288.618 104.297 288.618C106.157 288.618 107.516 289.697 107.598 291.227H106.214C106.081 290.357 105.345 289.824 104.278 289.824C103.155 289.824 102.406 290.376 102.406 291.233C102.406 291.9 102.888 292.281 104.082 292.573L105.091 292.82C106.97 293.271 107.744 294.026 107.744 295.397C107.744 297.13 106.386 298.222 104.215 298.222C102.184 298.222 100.819 297.181 100.717 295.556ZM110.163 289.875C109.687 289.875 109.299 289.488 109.299 289.018C109.299 288.542 109.687 288.155 110.163 288.155C110.639 288.155 111.026 288.542 111.026 289.018C111.026 289.488 110.639 289.875 110.163 289.875ZM109.483 298V291.106H110.842V298H109.483ZM115.761 300.634C114.035 300.634 112.917 299.866 112.771 298.705H114.168C114.282 299.225 114.86 299.555 115.78 299.555C116.917 299.555 117.589 298.997 117.589 298.063V296.737H117.488C117.069 297.486 116.307 297.898 115.355 297.898C113.59 297.898 112.499 296.534 112.499 294.464C112.499 292.376 113.603 290.986 115.368 290.986C116.32 290.986 117.151 291.456 117.539 292.205H117.646V291.106H118.954V298.07C118.954 299.638 117.716 300.634 115.761 300.634ZM115.742 296.769C116.91 296.769 117.615 295.874 117.615 294.464C117.615 293.055 116.904 292.154 115.742 292.154C114.568 292.154 113.908 293.055 113.908 294.464C113.908 295.874 114.568 296.769 115.742 296.769ZM120.935 298V291.106H122.249V292.198H122.35C122.687 291.437 123.372 290.973 124.413 290.973C125.956 290.973 126.806 291.894 126.806 293.538V298H125.441V293.861C125.441 292.719 124.959 292.16 123.95 292.16C122.94 292.16 122.299 292.846 122.299 293.957V298H120.935ZM132.989 289.875C132.513 289.875 132.125 289.488 132.125 289.018C132.125 288.542 132.513 288.155 132.989 288.155C133.465 288.155 133.852 288.542 133.852 289.018C133.852 289.488 133.465 289.875 132.989 289.875ZM132.31 298V291.106H133.668V298H132.31ZM135.674 298V291.106H136.988V292.198H137.089C137.426 291.437 138.111 290.973 139.152 290.973C140.695 290.973 141.545 291.894 141.545 293.538V298H140.181V293.861C140.181 292.719 139.698 292.16 138.689 292.16C137.68 292.16 137.039 292.846 137.039 293.957V298H135.674ZM156.024 291.106L154.126 298H152.711L151.283 292.858H151.175L149.753 298H148.35L146.446 291.106H147.83L149.067 296.426H149.169L150.591 291.106H151.898L153.32 296.426H153.428L154.66 291.106H156.024ZM158.138 289.875C157.662 289.875 157.275 289.488 157.275 289.018C157.275 288.542 157.662 288.155 158.138 288.155C158.614 288.155 159.001 288.542 159.001 289.018C159.001 289.488 158.614 289.875 158.138 289.875ZM157.459 298V291.106H158.817V298H157.459ZM161.306 289.367H162.67V291.125H164.168V292.217H162.67V295.854C162.67 296.597 162.969 296.921 163.648 296.921C163.857 296.921 163.978 296.908 164.168 296.889V297.975C163.946 298.013 163.692 298.044 163.426 298.044C161.909 298.044 161.306 297.511 161.306 296.185V292.217H160.208V291.125H161.306V289.367ZM165.838 298V288.402H167.19V292.205H167.298C167.634 291.437 168.364 290.979 169.405 290.979C170.878 290.979 171.786 291.913 171.786 293.544V298H170.421V293.868C170.421 292.731 169.907 292.167 168.942 292.167C167.825 292.167 167.203 292.884 167.203 293.963V298H165.838ZM186.69 298H185.37V291.291H185.281L182.596 297.835H181.517L178.832 291.291H178.743V298H177.422V288.84H179.085L181.999 296.007H182.107L185.027 288.84H186.69V298ZM189.534 289.875C189.058 289.875 188.67 289.488 188.67 289.018C188.67 288.542 189.058 288.155 189.534 288.155C190.01 288.155 190.397 288.542 190.397 289.018C190.397 289.488 190.01 289.875 189.534 289.875ZM188.854 298V291.106H190.213V298H188.854ZM198.071 293.322H196.745C196.586 292.649 196.027 292.135 195.113 292.135C193.971 292.135 193.272 293.036 193.272 294.528C193.272 296.051 193.977 296.972 195.113 296.972C195.977 296.972 196.567 296.565 196.745 295.816H198.071C197.894 297.175 196.827 298.133 195.12 298.133C193.107 298.133 191.876 296.762 191.876 294.528C191.876 292.338 193.101 290.973 195.113 290.973C196.846 290.973 197.894 291.982 198.071 293.322ZM199.633 298V291.106H200.947V292.154H201.048C201.245 291.475 202.013 290.986 202.915 290.986C203.118 290.986 203.378 291.005 203.524 291.037V292.319C203.41 292.287 203.003 292.243 202.762 292.243C201.728 292.243 200.998 292.909 200.998 293.88V298H199.633ZM207.58 298.133C205.555 298.133 204.317 296.781 204.317 294.553C204.317 292.332 205.562 290.973 207.58 290.973C209.592 290.973 210.836 292.325 210.836 294.553C210.836 296.781 209.599 298.133 207.58 298.133ZM207.58 296.972C208.761 296.972 209.434 296.083 209.434 294.553C209.434 293.017 208.761 292.128 207.58 292.128C206.393 292.128 205.727 293.017 205.727 294.553C205.727 296.089 206.393 296.972 207.58 296.972ZM212.322 293.036C212.322 291.836 213.445 290.973 215.007 290.973C216.562 290.973 217.578 291.697 217.711 292.89H216.403C216.276 292.376 215.781 292.04 215.007 292.04C214.245 292.04 213.667 292.414 213.667 292.973C213.667 293.398 214.017 293.665 214.766 293.842L215.915 294.109C217.229 294.414 217.844 294.979 217.844 295.981C217.844 297.264 216.632 298.133 214.981 298.133C213.337 298.133 212.265 297.391 212.144 296.191H213.509C213.68 296.73 214.188 297.067 215.013 297.067C215.864 297.067 216.467 296.673 216.467 296.108C216.467 295.677 216.143 295.397 215.451 295.232L214.245 294.947C212.931 294.642 212.322 294.058 212.322 293.036ZM222.408 298.133C220.383 298.133 219.146 296.781 219.146 294.553C219.146 292.332 220.39 290.973 222.408 290.973C224.42 290.973 225.665 292.325 225.665 294.553C225.665 296.781 224.427 298.133 222.408 298.133ZM222.408 296.972C223.589 296.972 224.262 296.083 224.262 294.553C224.262 293.017 223.589 292.128 222.408 292.128C221.221 292.128 220.555 293.017 220.555 294.553C220.555 296.089 221.221 296.972 222.408 296.972ZM227.797 298V292.217H226.661V291.125H227.797V290.383C227.797 289.012 228.496 288.339 229.93 288.339C230.241 288.339 230.508 288.364 230.743 288.402V289.431C230.616 289.412 230.432 289.399 230.216 289.399C229.454 289.399 229.143 289.748 229.143 290.446V291.125H230.686V292.217H229.162V298H227.797ZM232.742 289.367H234.107V291.125H235.605V292.217H234.107V295.854C234.107 296.597 234.405 296.921 235.084 296.921C235.294 296.921 235.415 296.908 235.605 296.889V297.975C235.383 298.013 235.129 298.044 234.862 298.044C233.345 298.044 232.742 297.511 232.742 296.185V292.217H231.644V291.125H232.742V289.367ZM241.248 289.367H242.613V291.125H244.111V292.217H242.613V295.854C242.613 296.597 242.911 296.921 243.59 296.921C243.8 296.921 243.92 296.908 244.111 296.889V297.975C243.889 298.013 243.635 298.044 243.368 298.044C241.851 298.044 241.248 297.511 241.248 296.185V292.217H240.15V291.125H241.248V289.367ZM248.561 298.133C246.536 298.133 245.298 296.781 245.298 294.553C245.298 292.332 246.542 290.973 248.561 290.973C250.573 290.973 251.817 292.325 251.817 294.553C251.817 296.781 250.579 298.133 248.561 298.133ZM248.561 296.972C249.741 296.972 250.414 296.083 250.414 294.553C250.414 293.017 249.741 292.128 248.561 292.128C247.374 292.128 246.707 293.017 246.707 294.553C246.707 296.089 247.374 296.972 248.561 296.972ZM262.843 291.106V298H261.529V296.908H261.421C261.084 297.689 260.38 298.133 259.333 298.133C257.803 298.133 256.952 297.2 256.952 295.582V291.106H258.317V295.245C258.317 296.388 258.768 296.934 259.771 296.934C260.875 296.934 261.478 296.261 261.478 295.15V291.106H262.843ZM264.665 293.036C264.665 291.836 265.788 290.973 267.35 290.973C268.905 290.973 269.92 291.697 270.054 292.89H268.746C268.619 292.376 268.124 292.04 267.35 292.04C266.588 292.04 266.01 292.414 266.01 292.973C266.01 293.398 266.359 293.665 267.108 293.842L268.257 294.109C269.571 294.414 270.187 294.979 270.187 295.981C270.187 297.264 268.975 298.133 267.324 298.133C265.68 298.133 264.607 297.391 264.487 296.191H265.852C266.023 296.73 266.531 297.067 267.356 297.067C268.207 297.067 268.81 296.673 268.81 296.108C268.81 295.677 268.486 295.397 267.794 295.232L266.588 294.947C265.274 294.642 264.665 294.058 264.665 293.036ZM276.363 296.153H277.677C277.379 297.372 276.262 298.133 274.681 298.133C272.701 298.133 271.488 296.769 271.488 294.566C271.488 292.376 272.726 290.973 274.675 290.973C276.598 290.973 277.76 292.287 277.76 294.445V294.915H272.878V294.979C272.923 296.229 273.627 297.016 274.719 297.016C275.544 297.016 276.109 296.711 276.363 296.153ZM274.668 292.084C273.659 292.084 272.955 292.82 272.878 293.931H276.37C276.338 292.814 275.678 292.084 274.668 292.084ZM286.869 298.222C284.323 298.222 282.736 296.381 282.736 293.423C282.736 290.459 284.317 288.618 286.862 288.618C288.881 288.618 290.442 289.907 290.671 291.741H289.255C288.989 290.605 288.068 289.881 286.862 289.881C285.218 289.881 284.19 291.246 284.19 293.423C284.19 295.601 285.218 296.959 286.869 296.959C288.081 296.959 289.001 296.305 289.255 295.264H290.671C290.417 297.048 288.913 298.222 286.869 298.222ZM295.597 298L296.104 295.493H294.181L293.673 298H292.594L293.096 295.493H291.629L291.839 294.42H293.318L293.737 292.319H292.207L292.423 291.252H293.953L294.454 288.84H295.533L295.051 291.252H296.968L297.463 288.84H298.548L298.06 291.252H299.608L299.405 292.319H297.837L297.406 294.42H299.018L298.815 295.493H297.196L296.688 298H295.597ZM294.353 294.471H296.346L296.796 292.274H294.797L294.353 294.471ZM304.477 288.84H307.784C310.501 288.84 312.094 290.516 312.094 293.398C312.094 296.312 310.514 298 307.784 298H304.477V288.84ZM305.899 290.065V296.775H307.625C309.542 296.775 310.647 295.55 310.647 293.417C310.647 291.303 309.523 290.065 307.625 290.065H305.899ZM318.397 296.153H319.711C319.413 297.372 318.296 298.133 316.715 298.133C314.735 298.133 313.522 296.769 313.522 294.566C313.522 292.376 314.76 290.973 316.709 290.973C318.632 290.973 319.794 292.287 319.794 294.445V294.915H314.913V294.979C314.957 296.229 315.662 297.016 316.753 297.016C317.579 297.016 318.144 296.711 318.397 296.153ZM316.703 292.084C315.693 292.084 314.989 292.82 314.913 293.931H318.404C318.372 292.814 317.712 292.084 316.703 292.084ZM327.132 291.106L324.644 298H323.177L320.683 291.106H322.143L323.863 296.604H323.971L325.685 291.106H327.132ZM333.651 298H332.229V288.84H333.651V293.169H333.752L337.542 288.84H339.224L335.682 292.814L339.529 298H337.751L334.679 293.779L333.651 294.947V298ZM341.573 289.875C341.097 289.875 340.709 289.488 340.709 289.018C340.709 288.542 341.097 288.155 341.573 288.155C342.049 288.155 342.436 288.542 342.436 289.018C342.436 289.488 342.049 289.875 341.573 289.875ZM340.894 298V291.106H342.252V298H340.894ZM344.74 289.367H346.105V291.125H347.603V292.217H346.105V295.854C346.105 296.597 346.403 296.921 347.083 296.921C347.292 296.921 347.413 296.908 347.603 296.889V297.975C347.381 298.013 347.127 298.044 346.86 298.044C345.343 298.044 344.74 297.511 344.74 296.185V292.217H343.642V291.125H344.74V289.367Z" fill="var(--vscode-list-activeSelectionForeground, #FFFFFF)" />
              </g>
            </g>
          </g>
        </g>
        <rect x="63.5" y="118.5" width="323" height="193" rx="5.5" stroke="var(--vscode-editorWidget-border, #454545)" />
      </g>
      <rect x="100" y="135" width="168" height="6" rx="3" fill="var(--vscode-descriptionForeground, #3C3C3C)" />
      <rect x="100" y="174" width="87" height="6" rx="3" fill="var(--vscode-descriptionForeground, #3C3C3C)" />
      <rect x="100" y="212" width="149" height="6" rx="3" fill="var(--vscode-descriptionForeground, #3C3C3C)" />
      <rect x="98" y="251" width="206" height="6" rx="3" fill="var(--vscode-descriptionForeground, #3C3C3C)" />
    </g>
  </g>
  <defs>
    <filter id="filter0_d_729_69370" x="47" y="104" width="356" height="226" filterUnits="userSpaceOnUse" color-interpolation-filters="sRGB">
      <feFlood flood-opacity="0" result="BackgroundImageFix" />
      <feColorMatrix in="SourceAlpha" type="matrix" values="0 0 0 0 0 0 0 0 0 0 0 0 0 0 0 0 0 0 127 0" result="hardAlpha" />
      <feOffset dy="2" />
      <feGaussianBlur stdDeviation="8" />
      <feColorMatrix type="matrix" values="0 0 0 0 0 0 0 0 0 0 0 0 0 0 0 0 0 0 0.36 0" />
      <feBlend mode="normal" in2="BackgroundImageFix" result="effect1_dropShadow_729_69370" />
      <feBlend mode="normal" in="SourceGraphic" in2="effect1_dropShadow_729_69370" result="shape" />
    </filter>
    <clipPath id="clip0_729_69370">
      <rect width="513" height="350" rx="8" fill="#FFFFFF" />
    </clipPath>
  </defs>
</svg>