<svg version="1.1" id="Layer_1" xmlns="http://www.w3.org/2000/svg" xmlns:xlink="http://www.w3.org/1999/xlink" x="0px" y="0px" width="100%" viewBox="0 0 3000 1164" enable-background="new 0 0 3000 1164">
  <defs>
    <linearGradient gradientUnits="userSpaceOnUse" x1="1692.959" y1="409.92" x2="1692.959" y2="1117.074" id="gradient-0">
      <stop offset="0" style="stop-color: rgb(100% 100% 100%)"></stop>
      <stop offset="1" style="stop-color: rgb(56.687% 56.687% 56.687%)"></stop>
    </linearGradient>
    <radialGradient gradientUnits="userSpaceOnUse" cx="1692.959" cy="763.497" r="354.041" id="gradient-1">
      <stop offset="0" style="stop-color: rgb(100% 100% 100%)"></stop>
      <stop offset="1" style="stop-color: rgb(56.687% 56.687% 56.687%)"></stop>
    </radialGradient>
  </defs>
  <path opacity="1.000000" stroke="none" d="
M1337.750000,803.750000 
	C1594.085571,547.411865 1850.172607,291.325317 2106.228271,35.207470 
	C2108.300293,33.134949 2110.223633,31.905706 2113.441895,31.906876 
	C2390.605225,32.007610 2667.768799,32.000004 2944.932129,32.000008 
	C2946.082520,32.000008 2947.232910,32.000008 2948.691406,32.000008 
	C2948.691406,86.580017 2948.691406,140.984970 2948.691406,196.000000 
	C2946.899658,196.000000 2944.972168,196.000000 2943.044678,196.000000 
	C2688.714355,196.000000 2434.384033,196.009277 2180.053711,195.914688 
	C2176.102783,195.913223 2173.396729,196.986130 2170.575439,199.808487 
	C1866.234375,504.277954 1561.814331,808.668518 1257.470459,1113.135254 
	C1254.667969,1115.938965 1251.999878,1117.104736 1248.018555,1117.093628 
	C1197.352783,1116.951538 1146.686646,1117.000000 1096.020508,1117.000000 
	C1094.207642,1117.000000 1092.394897,1117.000000 1090.057251,1117.000000 
	C1090.057251,834.941772 1090.057251,553.092651 1090.057251,270.062347 
	C1088.126587,271.681824 1087.004883,272.489685 1086.038696,273.453491 
	C1075.420410,284.046448 1064.830688,294.668182 1054.224976,305.273804 
	C784.936707,574.558228 515.642456,843.836792 246.424622,1113.191650 
	C243.603622,1116.014038 240.898621,1117.098999 236.946182,1117.088623 
	C185.947128,1116.954590 134.947617,1117.000000 83.948212,1117.000000 
	C82.142113,1117.000000 80.336014,1117.000000 78.266281,1117.000000 
	C78.266281,755.337036 78.266281,393.934906 78.266281,32.266357 
	C132.664719,32.266357 187.069519,32.266357 242.009583,32.266357 
	C242.009583,315.775238 242.009583,599.282837 242.009583,884.329773 
	C244.491287,881.915344 245.973450,880.507568 247.418533,879.062683 
	C528.497253,597.998962 809.578003,316.937225 1090.582642,35.799534 
	C1093.406616,32.974194 1096.117310,31.901237 1100.065308,31.911991 
	C1149.397705,32.046371 1198.730591,32.000000 1248.063354,32.000000 
	C1249.868408,32.000000 1251.673462,32.000000 1254.010498,32.000000 
	C1254.010498,316.775970 1254.010498,601.283447 1254.010498,885.790955 
	C1254.381348,885.985962 1254.752197,886.180969 1255.123047,886.375977 
	C1282.582031,858.917358 1310.041016,831.458679 1337.750000,803.750000 
z" style="fill: rgb(238, 170, 29);"></path>
  <path opacity="1.000000" stroke="none" d="
M1317.000000,183.000000 
	C1317.000000,132.523514 1317.000000,82.547020 1317.000000,32.285427 
	C1357.625977,32.285427 1398.030884,32.285427 1438.968628,32.285427 
	C1438.968628,112.742523 1438.968628,193.257401 1438.968628,275.261139 
	C1441.327759,273.034271 1442.721191,271.783569 1444.043213,270.461700 
	C1522.536987,191.982513 1601.013550,113.486053 1679.591431,35.091240 
	C1681.224243,33.462101 1684.024414,32.128559 1686.281860,32.125656 
	C1797.779907,31.982267 1909.278076,32.000004 2020.776245,32.000004 
	C2022.072632,32.000004 2023.369019,32.000004 2024.558838,32.000004 
	C2025.875366,36.954189 2024.424805,40.231831 2020.985718,43.668179 
	C1790.735229,273.736206 1560.574219,503.893646 1330.517456,734.155334 
	C1326.608154,738.068115 1322.879150,740.103027 1317.000000,738.513245 
	C1317.000000,553.693787 1317.000000,368.596893 1317.000000,183.000000 
z" style="fill: rgb(20, 185, 128);"></path>
  <path opacity="1.000000" stroke="none" d="
M2047.000000,450.000000 
	C2047.000000,672.470886 2047.000000,894.441772 2047.000000,1116.706299 
	C2006.391357,1116.706299 1965.986938,1116.706299 1925.055054,1116.706299 
	C1925.055054,1036.274292 1925.055054,955.757507 1925.055054,873.735840 
	C1922.805054,875.849854 1921.538940,876.976379 1920.342407,878.172607 
	C1841.968750,956.533447 1763.585815,1034.885010 1685.295166,1113.328613 
	C1682.613403,1116.015747 1680.012451,1117.077393 1676.257812,1117.074341 
	C1565.762207,1116.982666 1455.266602,1117.000000 1344.770874,1117.000000 
	C1342.966797,1117.000000 1341.162720,1117.000000 1339.491333,1117.000000 
	C1337.859131,1111.784790 1339.884521,1108.469849 1343.339355,1105.017334 
	C1573.451660,875.057190 1803.495483,645.028503 2033.438843,414.899506 
	C2037.324219,411.010986 2041.036011,408.833008 2047.000000,410.469421 
	C2047.000000,423.264801 2047.000000,436.382385 2047.000000,450.000000 
z" style="fill-rule: nonzero; fill: url(#gradient-1);"></path>
  <path opacity="1.000000" stroke="none" d="
M2874.000000,494.000000 
	C2901.476562,494.000000 2928.453369,494.000000 2955.714844,494.000000 
	C2955.714844,548.626404 2955.714844,603.030701 2955.714844,657.717773 
	C2672.371094,657.717773 2388.970947,657.717773 2105.285156,657.717773 
	C2105.285156,603.373596 2105.285156,548.969299 2105.285156,494.000000 
	C2361.319092,494.000000 2617.409424,494.000000 2874.000000,494.000000 
z" style="fill: rgb(238, 170, 29);"></path>
  <path opacity="1.000000" stroke="none" d="
M2519.000000,953.000000 
	C2664.807617,953.000000 2810.115479,953.000000 2955.711426,953.000000 
	C2955.711426,1007.620117 2955.711426,1062.024414 2955.711426,1116.714600 
	C2672.377441,1116.714600 2388.977295,1116.714600 2105.288574,1116.714600 
	C2105.288574,1062.379883 2105.288574,1007.975586 2105.288574,953.000000 
	C2242.981201,953.000000 2380.740723,953.000000 2519.000000,953.000000 
z" style="fill: rgb(238, 170, 29);"></path>
  <path opacity="1.000000" stroke="none" d="
M812.750000,779.750000 
	C886.257690,706.241760 959.515442,632.983643 1033.511719,558.987000 
	C1033.745728,561.168945 1033.984009,562.354431 1033.984253,563.539917 
	C1034.001465,654.364563 1034.015991,745.189209 1033.895996,836.013733 
	C1033.893433,838.015198 1032.850464,840.524841 1031.435913,841.941956 
	C940.666992,932.876160 849.817322,1023.729614 758.884460,1114.499878 
	C757.473206,1115.908569 754.939148,1116.896118 752.927551,1116.898804 
	C662.269653,1117.015625 571.611694,1117.000000 480.953705,1117.000000 
	C479.704224,1117.000000 478.454742,1117.000000 477.205261,1117.000000 
	C477.010712,1116.626099 476.816193,1116.252319 476.621643,1115.878418 
	C588.581116,1003.918945 700.540588,891.959473 812.750000,779.750000 
z" style="fill: rgb(20, 185, 128);"></path>
</svg>