<svg version="1.1" id="Layer_1" xmlns="http://www.w3.org/2000/svg" xmlns:xlink="http://www.w3.org/1999/xlink" x="0px" y="0px" width="399.485" viewBox="0 0 399.485 155" enable-background="new 0 0 3000 1164" height="155"><defs><path gradientUnits="userSpaceOnUse" x1="1692.959" y1="409.92" x2="1692.959" y2="1117.074" id="gradient-0" d=""><stop offset="0" style="stop-color: rgb(100% 100% 100%)"/><stop offset="1" style="stop-color: rgb(56.687% 56.687% 56.687%)"/></path><radialGradient gradientUnits="userSpaceOnUse" cx="1692.959" cy="763.497" r="354.041" id="gradient-1"><stop offset="0" style="stop-color: rgb(100% 100% 100%)"/><stop offset="1" style="stop-color: rgb(56.687% 56.687% 56.687%)"/></radialGradient></defs><path opacity="1.000000" stroke="none" d="M178.137 107.029c34.134 -34.134 68.235 -68.235 102.332 -102.34 0.276 -0.276 0.532 -0.44 0.961 -0.439 36.907 0.013 73.815 0.012 110.723 0.012h0.501v21.839h-0.752c-33.867 0 -67.734 0.001 -101.601 -0.011 -0.526 0 -0.886 0.143 -1.262 0.518 -40.526 40.544 -81.063 81.077 -121.591 121.62 -0.373 0.373 -0.728 0.529 -1.259 0.527 -6.747 -0.019 -13.494 -0.013 -20.24 -0.013h-0.794V35.962c-0.257 0.216 -0.406 0.323 -0.535 0.452 -1.414 1.411 -2.824 2.825 -4.236 4.237 -35.859 35.858 -71.719 71.716 -107.568 107.584 -0.376 0.376 -0.736 0.52 -1.262 0.519 -6.791 -0.018 -13.582 -0.012 -20.373 -0.012h-0.757V4.297H32.226V117.759c0.33 -0.322 0.528 -0.509 0.72 -0.701C70.376 79.631 107.805 42.204 145.224 4.767c0.376 -0.376 0.737 -0.519 1.263 -0.518 6.569 0.018 13.139 0.012 19.708 0.012h0.792v113.692l0.148 0.078z" style="fill: rgb(238, 170, 29);" stroke-width="0.13316166666666668"/><path opacity="1.000000" stroke="none" d="M175.374 24.369V4.299h16.242v32.355c0.314 -0.297 0.5 -0.463 0.676 -0.639 10.452 -10.45 20.902 -20.903 31.366 -31.342 0.217 -0.217 0.59 -0.394 0.891 -0.395 14.847 -0.019 29.695 -0.017 44.542 -0.017h0.504c0.175 0.66 -0.018 1.096 -0.476 1.554a154510.278 154510.278 0 0 0 -91.944 91.946c-0.521 0.521 -1.017 0.792 -1.8 0.58z" style="fill: rgb(20, 185, 128);" stroke-width="0.13316166666666668"/><path opacity="1.000000" stroke="none" d="M272.582 59.923v88.78h-16.238v-32.354c-0.3 0.282 -0.468 0.431 -0.628 0.591 -10.436 10.435 -20.874 20.868 -31.299 31.314 -0.357 0.358 -0.703 0.499 -1.203 0.499 -14.714 -0.012 -29.428 -0.01 -44.141 -0.01h-0.703c-0.217 -0.694 0.052 -1.136 0.512 -1.596a177003.148 177003.148 0 0 0 91.895 -91.897c0.517 -0.518 1.012 -0.808 1.806 -0.59z" style="fill-rule: nonzero; fill: url(#gradient-1);" stroke-width="0.13316166666666668"/><path opacity="1.000000" stroke="none" d="M382.707 65.782h10.881v21.801h-113.245V65.782z" style="fill: rgb(238, 170, 29);" stroke-width="0.13316166666666668"/><path opacity="1.000000" stroke="none" d="M335.434 126.903h58.153v21.801H280.344V126.903z" style="fill: rgb(238, 170, 29);" stroke-width="0.13316166666666668"/><path opacity="1.000000" stroke="none" d="m108.227 103.833 29.397 -29.397c0.031 0.291 0.063 0.448 0.063 0.606 0.002 12.094 0.004 24.189 -0.012 36.283 0 0.266 -0.139 0.601 -0.328 0.789A28444.264 28444.264 0 0 1 101.054 148.409c-0.188 0.188 -0.525 0.319 -0.793 0.319 -12.072 0.016 -24.144 0.013 -36.217 0.013h-0.499l-0.078 -0.149z" style="fill: rgb(20, 185, 128);" stroke-width="0.13316166666666668"/></svg>