<?xml version="1.0" encoding="UTF-8" standalone="no"?>
<!-- Created with Inkscape (http://www.inkscape.org/) -->

<svg
   width="71.077003mm"
   height="21.983953mm"
   viewBox="0 0 71.077003 21.983953"
   version="1.1"
   id="svg1"
   xml:space="preserve"
   sodipodi:docname="paper_heading_requisition_invoice.svg"
   inkscape:version="1.3.2 (091e20ef0f, 2023-11-25)"
   inkscape:export-filename="paper_heading_requisition_invoice.svg.96dpi.png"
   inkscape:export-xdpi="95.9957"
   inkscape:export-ydpi="95.9957"
   xmlns:inkscape="http://www.inkscape.org/namespaces/inkscape"
   xmlns:sodipodi="http://sodipodi.sourceforge.net/DTD/sodipodi-0.dtd"
   xmlns="http://www.w3.org/2000/svg"
   xmlns:svg="http://www.w3.org/2000/svg"
   xmlns:rdf="http://www.w3.org/1999/02/22-rdf-syntax-ns#"
   xmlns:cc="http://creativecommons.org/ns#"
   xmlns:dc="http://purl.org/dc/elements/1.1/">
  <metadata
   id="metadata10">
    <rdf:RDF>
      <cc:Work
   rdf:about="">
        <dc:format>image/svg+xml</dc:format>
        <dc:type
   rdf:resource="http://purl.org/dc/dcmitype/StillImage" />
      </cc:Work>
    </rdf:RDF>
  </metadata>
  <sodipodi:namedview
   id="namedview1"
   pagecolor="#ffffff"
   bordercolor="#666666"
   borderopacity="1.0"
   inkscape:showpageshadow="2"
   inkscape:pageopacity="0.0"
   inkscape:pagecheckerboard="0"
   inkscape:deskcolor="#d1d1d1"
   inkscape:document-units="mm"
   inkscape:zoom="2.8578563"
   inkscape:cx="157.81059"
   inkscape:cy="85.028768"
   inkscape:window-width="1920"
   inkscape:window-height="1005"
   inkscape:window-x="1920"
   inkscape:window-y="35"
   inkscape:window-maximized="1"
   inkscape:current-layer="layer1" /><defs
   id="defs1"><rect
     x="278.10605"
     y="74.408546"
     width="204.20357"
     height="28.232546"
     id="rect1" /><inkscape:path-effect
     effect="powermask"
     id="path-effect537"
     is_visible="true"
     lpeversion="1"
     uri="#mask-powermask-path-effect537"
     invert="false"
     hide_mask="false"
     background="true"
     background_color="#ffffffff" /><rect
     x="-696.29968"
     y="-43.388832"
     width="637.4054"
     height="131.45215"
     id="rect3263" /><inkscape:path-effect
     effect="powermask"
     id="path-effect1533"
     is_visible="true"
     lpeversion="1"
     uri="#mask-powermask-path-effect1533"
     invert="false"
     hide_mask="false"
     background="true"
     background_color="#ffffffff" /><rect
     x="-111.73019"
     y="-119.49218"
     width="354.099"
     height="119.49218"
     id="rect452" /><rect
     x="12.500253"
     y="14.598581"
     width="334.51892"
     height="47.488827"
     id="rect348" /><mask
     maskUnits="userSpaceOnUse"
     id="mask-powermask-path-effect537"><g
       id="g535"
       transform="matrix(1.0402092,0,0,1.0402092,-2.8656518,12.311957)"
       style="fill:#552200"><g
         aria-label="Cargo"
         transform="matrix(2.6010044,0,0,2.6010044,161.5879,145.13955)"
         id="g487"
         style="font-size:40px;line-height:1.25;white-space:pre;shape-inside:url(#rect452);fill:#552200"><path
           d="m -84.210469,-90.85718 c -1.24,1.56 -1.96,2.36 -2.96,3.12 -2,1.56 -4.64,2.44 -7.32,2.44 -6.880001,0 -12.480001,-5.64 -12.480001,-12.6 0,-7.12 5.36,-12.56 12.440001,-12.56 2.56,0 4.96,0.68 6.92,2 1.32,0.84 2.12,1.72 3.24,3.48 h 3.32 c -2.28,-5.08 -7.48,-8.2 -13.6,-8.2 -8.800001,0 -15.320001,6.56 -15.320001,15.4 0,8.68 6.68,15.2 15.520001,15.2 6,0 10.56,-2.8 13.52,-8.28 z"
           style="font-family:'URW Gothic';-inkscape-font-specification:'URW Gothic';fill:#552200"
           id="path477" /><path
           d="m -54.570468,-104.97718 h -2.96 v 3.88 c -2.2,-3.04 -4.84,-4.4 -8.64,-4.4 -6.56,0 -11.52,4.96 -11.52,11.52 0,6.56 5,11.4 11.76,11.4 3.72,0 6.04,-1.2 8.4,-4.36 v 3.84 h 2.96 z m -11.52,2.2 c 4.84,0 8.56,3.76 8.56,8.64 0,5 -3.68,8.84 -8.4,8.84 -4.96,0 -8.76,-3.88 -8.76,-8.88 0,-4.76 3.84,-8.6 8.6,-8.6 z"
           style="font-family:'URW Gothic';-inkscape-font-specification:'URW Gothic';fill:#552200"
           id="path479" /><path
           d="m -49.530446,-83.09718 h 2.96 v -12.76 c -0.04,-3.96 2.16,-6.4 6.2,-6.72 v -2.92 c -3.16,0.16 -5.04,1.24 -6.2,3.64 v -3.12 h -2.96 z"
           style="font-family:'URW Gothic';-inkscape-font-specification:'URW Gothic';fill:#552200"
           id="path481" /><path
           d="m -16.490396,-104.97718 h -2.96 v 3.88 c -2.2,-3.04 -4.88,-4.4 -8.6,-4.4 -6.4,0 -11.16,4.96 -11.16,11.56 0,6.4 4.96,11.36 11.4,11.36 3.96,0 6.64,-1.6 8.36,-4.96 v 1.48 c 0,2.16 -0.24,3.52 -0.88,4.88 -1.16,2.52 -3.76,3.96 -7.16,3.96 -2.44,0 -4.32,-0.72 -5.88,-2.2 -0.76,-0.68 -1.24,-1.36 -2.16,-3 h -2.88 c 1.6,5.12 5.48,7.92 11,7.92 3.8,0 7,-1.44 8.88,-3.92 1.48,-2 2.04,-4.32 2.04,-8.6 z m -11.36,2.2 c 4.72,0 8.4,3.72 8.4,8.48 0,5.12 -3.6,9 -8.36,9 -4.8,0 -8.4,-3.8 -8.4,-8.88 0,-5 3.52,-8.6 8.36,-8.6 z"
           style="font-family:'URW Gothic';-inkscape-font-specification:'URW Gothic';fill:#552200"
           id="path483" /><path
           d="m -0.53038391,-105.49718 c -6.51999999,0 -11.48000009,4.92 -11.48000009,11.32 0,6.76 4.9200001,11.6 11.72000009,11.6 6.40000001,0 11.11999991,-4.84 11.11999991,-11.4 0,-6.68 -4.7599999,-11.52 -11.35999991,-11.52 z m 0,2.72 c 4.84000001,0 8.36000001,3.72 8.36000001,8.84 0,5.04 -3.44,8.64 -8.20000001,8.64 -5.03999999,0 -8.63999999,-3.64 -8.63999999,-8.8 0,-4.96 3.64,-8.68 8.47999999,-8.68 z"
           style="font-family:'URW Gothic';-inkscape-font-specification:'URW Gothic';fill:#552200"
           id="path485" /></g><g
         aria-label="Your crates, our business"
         id="g533"
         style="font-size:32.6668px;line-height:1.25;fill:#552200;stroke-width:0.816671"><path
           d="m -118.78331,-35.723892 6.63544,-11.627977 h 3.36558 l -9.04399,14.738342 -1.46745,8.485712 h -2.85516 l 1.54721,-8.836625 -3.84409,-14.387429 h 3.09441 z"
           style="font-style:italic;font-family:'Roboto Condensed';-inkscape-font-specification:'Roboto Condensed, ';fill:#552200"
           id="path489" /><path
           d="m -110.10619,-33.522711 q 0.52637,-3.716486 2.53614,-5.98147 2.02572,-2.280934 5.10419,-2.201181 1.91407,0.04785 3.190115,1.116541 1.276047,1.052739 1.818366,2.918958 0.558271,1.866218 0.303062,4.115251 l -0.191407,1.62696 q -0.52637,3.700536 -2.552094,5.949569 -2.025722,2.249032 -5.088242,2.169279 -1.91407,-0.04785 -3.19011,-1.10059 -1.27605,-1.052739 -1.83432,-2.918957 -0.54232,-1.866219 -0.28711,-4.099301 z m 2.47234,2.759452 q -0.0479,2.137378 0.65397,3.317722 0.71778,1.180343 2.15333,1.244145 1.85027,0.07975 3.06251,-1.307948 1.21225,-1.403651 1.62696,-4.195004 l 0.239262,-1.866219 0.07975,-1.148442 q 0.04785,-2.153329 -0.685872,-3.333672 -0.71778,-1.180344 -2.13738,-1.244146 -1.88217,-0.07975 -3.14226,1.563157 -1.24415,1.62696 -1.61101,4.529967 l -0.19141,1.579108 z"
           style="font-style:italic;font-family:'Roboto Condensed';-inkscape-font-specification:'Roboto Condensed, ';fill:#552200"
           id="path491" /><path
           d="m -86.228166,-25.643121 q -1.674811,1.91407 -4.131202,1.850268 -1.834317,-0.0319 -2.823253,-1.339849 -0.972986,-1.307948 -0.972986,-3.652685 l 0.07975,-1.451503 1.866218,-11.14946 h 2.727551 l -1.850268,11.197312 -0.0638,1.164393 q -0.0638,1.164392 0.366864,1.930021 0.446616,0.749677 1.323898,0.781578 2.312836,0.111654 3.79624,-2.280934 l 2.201181,-12.79237 h 2.759452 l -2.98276,17.258535 h -2.599946 z"
           style="font-style:italic;font-family:'Roboto Condensed';-inkscape-font-specification:'Roboto Condensed, ';fill:#552200"
           id="path493" /><path
           d="m -70.134024,-38.754503 q -0.685875,-0.143555 -1.228195,-0.143555 -2.089527,0 -3.445327,2.408538 l -2.137378,12.361705 h -2.759452 l 2.99871,-17.258535 2.663748,-0.01595 -0.382814,1.770516 q 1.515306,-2.15333 3.413426,-2.105478 0.382814,0.01595 1.180343,0.239259 z"
           style="font-style:italic;font-family:'Roboto Condensed';-inkscape-font-specification:'Roboto Condensed, ';fill:#552200"
           id="path495" /><path
           d="m -56.257015,-26.185441 q 1.3558,0.04785 2.280934,-0.845381 0.925134,-0.893233 1.291998,-2.520193 l 2.599945,-0.01595 q -0.366863,2.552094 -2.153329,4.195004 -1.786466,1.64291 -4.179054,1.579108 -2.280933,-0.04785 -3.636733,-1.37175 -1.3558,-1.323899 -1.62696,-3.716487 -0.159506,-1.435553 0.01595,-2.887056 l 0.223309,-1.738614 q 0.526369,-4.035499 2.45639,-6.156927 1.945972,-2.121428 5.056336,-2.041675 2.392588,0.0638 3.700536,1.754565 1.323899,1.690762 1.212245,4.514016 l -2.599946,-0.01595 q 0.0957,-3.748388 -2.472341,-3.844091 -3.748388,-0.143555 -4.529967,5.343446 -0.494468,3.397475 -0.398764,4.625671 0.159506,3.094413 2.759451,3.142265 z"
           style="font-style:italic;font-family:'Roboto Condensed';-inkscape-font-specification:'Roboto Condensed, ';fill:#552200"
           id="path497" /><path
           d="m -38.121195,-38.754503 q -0.685875,-0.143555 -1.228195,-0.143555 -2.089527,0 -3.445327,2.408538 l -2.137379,12.361705 h -2.759451 l 2.99871,-17.258535 2.663748,-0.01595 -0.382814,1.770516 q 1.515306,-2.15333 3.413426,-2.105478 0.382814,0.01595 1.180343,0.239259 z"
           style="font-style:italic;font-family:'Roboto Condensed';-inkscape-font-specification:'Roboto Condensed, ';fill:#552200"
           id="path499" /><path
           d="m -29.68334,-24.127815 q -0.0957,-0.478518 -0.07975,-0.941085 l 0.0638,-0.941084 q -1.834318,2.217131 -3.955746,2.217131 -2.073576,0 -3.237969,-1.339849 -1.148442,-1.3558 -1.020837,-3.572932 0.175456,-2.679698 2.201181,-4.290707 2.041675,-1.61101 5.343446,-1.61101 h 1.914071 l 0.27116,-1.834317 q 0.28711,-2.855155 -2.15333,-2.855155 -1.260096,0 -2.105477,0.749677 -0.829431,0.733727 -1.052739,1.930021 l -2.72755,0.01595 q 0.207358,-2.18523 1.977873,-3.668635 1.786465,-1.483404 4.195004,-1.451503 2.328786,0.0319 3.572931,1.435552 1.260097,1.387702 1.020838,3.891944 l -1.403652,8.501662 q -0.143555,0.909184 -0.111654,1.738614 l 0.0957,1.754565 -0.0319,0.27116 z m -3.397474,-2.217132 q 2.073576,0 3.572931,-2.025724 l 0.717776,-4.131202 -1.260096,-0.01595 q -1.62696,0 -2.887056,0.606122 -1.260097,0.590172 -1.786466,1.658861 -0.510419,1.052739 -0.350913,2.296885 0.207358,1.611009 1.993824,1.611009 z"
           style="font-style:italic;font-family:'Roboto Condensed';-inkscape-font-specification:'Roboto Condensed, ';fill:#552200"
           id="path501" /><path
           d="m -15.854178,-45.565404 -0.733727,4.179054 h 2.536143 l -0.398764,2.280934 h -2.520193 l -1.818367,10.734745 -0.0319,0.638023 q -0.0638,1.3558 0.972986,1.3558 0.382814,0.01595 1.148442,-0.159506 l -0.239259,2.408539 q -0.893233,0.319011 -1.802416,0.28711 -1.451504,0 -2.185231,-1.196294 -0.733727,-1.196294 -0.54232,-3.381524 l 1.754565,-10.686893 h -2.568045 l 0.414716,-2.280934 h 2.536143 l 0.733727,-4.179054 z"
           style="font-style:italic;font-family:'Roboto Condensed';-inkscape-font-specification:'Roboto Condensed, ';fill:#552200"
           id="path503" /><path
           d="m -7.2249119,-23.808804 q -2.9030071,-0.0319 -4.3385591,-2.089526 -1.435553,-2.057626 -1.052739,-5.614607 l 0.207357,-1.706713 q 0.494469,-4.019547 2.4404402,-6.284531 1.9619222,-2.280934 4.9765831,-2.201181 2.4563903,0.0638 3.6845855,1.690762 1.24414572,1.61101 1.18034338,4.545918 l -0.14355528,1.91407 -0.2392588,1.64291 -9.2513403,-0.01595 q -0.2073576,1.435553 -0.191407,2.249033 0.031901,1.611009 0.7975293,2.536143 0.7656282,0.909183 2.1852304,0.925134 1.0208376,0.0319 2.0097739,-0.398765 1.004887,-0.446616 2.1054775,-1.547207 l 1.2919975,1.802417 q -1.0208376,1.339849 -2.5201927,1.961922 -1.4993552,0.622073 -3.1422656,0.590171 z m 2.0576257,-15.488019 q -2.8232538,-0.127605 -3.9557455,3.413425 l -0.4306658,1.547207 6.6194934,0.01595 0.079753,-0.414715 q 0.095703,-0.733727 0.095703,-1.531257 -0.063802,-2.903006 -2.4085386,-3.030611 z"
           style="font-style:italic;font-family:'Roboto Condensed';-inkscape-font-specification:'Roboto Condensed, ';fill:#552200"
           id="path505" /><path
           d="m 10.320735,-28.673732 q 0.207358,-1.515306 -1.690762,-2.520193 l -2.1373786,-1.116541 q -1.6588611,-0.925134 -2.3287857,-1.961922 -0.6539741,-1.036788 -0.5742211,-2.408539 0.1276047,-2.18523 1.7864657,-3.620783 1.658861,-1.435553 4.051449,-1.403652 2.3128347,0.0638 3.6207827,1.531257 1.307949,1.451503 1.212245,3.716486 h -2.72755 q 0.0319,-1.291997 -0.574221,-2.025724 -0.606123,-0.749678 -1.6907626,-0.781579 -1.2281951,0 -2.0257245,0.701826 -0.7975293,0.685875 -0.9570352,1.786466 -0.191407,1.291997 1.2600964,2.121428 l 2.6956489,1.37175 q 2.98276,1.658861 2.823254,4.402362 -0.159506,2.344736 -1.882169,3.748388 -1.7226635,1.387701 -4.1950045,1.323898 -2.3766374,-0.0319 -3.8600419,-1.547206 -1.4834046,-1.531257 -1.3877011,-3.939795 l 2.7754021,0.01595 q -0.031901,1.499355 0.6539741,2.280934 0.6858752,0.765628 1.9459715,0.765628 1.3238987,0 2.1852304,-0.669924 0.8772824,-0.669925 1.0208374,-1.770515 z"
           style="font-style:italic;font-family:'Roboto Condensed';-inkscape-font-specification:'Roboto Condensed, ';fill:#552200"
           id="path507" /><path
           d="m 15.408973,-19.486195 -1.658861,-1.196294 q 1.850268,-2.280933 2.296885,-4.529966 l 0.414715,-2.408539 h 2.823254 l -0.334963,2.153329 q -0.574221,3.636734 -3.54103,5.98147 z"
           style="font-style:italic;font-family:'Roboto Condensed';-inkscape-font-specification:'Roboto Condensed, ';fill:#552200"
           id="path509" /><path
           d="m 30.84914,-33.522711 q 0.526369,-3.716486 2.536143,-5.98147 2.025725,-2.280934 5.104188,-2.201181 1.91407,0.04785 3.190117,1.116541 1.276047,1.052739 1.818367,2.918958 0.558271,1.866218 0.303061,4.115251 l -0.191407,1.62696 q -0.526369,3.700536 -2.552094,5.949569 -2.025724,2.249032 -5.088237,2.169279 -1.91407,-0.04785 -3.190117,-1.10059 -1.276047,-1.052739 -1.834317,-2.918957 -0.54232,-1.866219 -0.287111,-4.099301 z m 2.472341,2.759452 q -0.04785,2.137378 0.653974,3.317722 0.717776,1.180343 2.153329,1.244145 1.850268,0.07975 3.062513,-1.307948 1.212244,-1.403651 1.62696,-4.195004 l 0.239258,-1.866219 0.07975,-1.148442 q 0.04785,-2.153329 -0.685875,-3.333672 -0.717776,-1.180344 -2.137378,-1.244146 -1.88217,-0.07975 -3.142266,1.563157 -1.244146,1.62696 -1.611009,4.529967 l -0.191407,1.579108 z"
           style="font-style:italic;font-family:'Roboto Condensed';-inkscape-font-specification:'Roboto Condensed, ';fill:#552200"
           id="path511" /><path
           d="m 54.727168,-25.643121 q -1.674812,1.91407 -4.131202,1.850268 -1.834317,-0.0319 -2.823254,-1.339849 -0.972986,-1.307948 -0.972986,-3.652685 l 0.07975,-1.451503 1.866219,-11.14946 h 2.72755 l -1.850268,11.197312 -0.0638,1.164393 q -0.0638,1.164392 0.366863,1.930021 0.446617,0.749677 1.323899,0.781578 2.312835,0.111654 3.79624,-2.280934 l 2.201181,-12.79237 h 2.759451 l -2.982759,17.258535 h -2.599946 z"
           style="font-style:italic;font-family:'Roboto Condensed';-inkscape-font-specification:'Roboto Condensed, ';fill:#552200"
           id="path513" /><path
           d="m 70.821302,-38.754503 q -0.685875,-0.143555 -1.228195,-0.143555 -2.089527,0 -3.445327,2.408538 l -2.137378,12.361705 H 61.25095 l 2.99871,-17.258535 2.663748,-0.01595 -0.382814,1.770516 q 1.515306,-2.15333 3.413426,-2.105478 0.382814,0.01595 1.180343,0.239259 z"
           style="font-style:italic;font-family:'Roboto Condensed';-inkscape-font-specification:'Roboto Condensed, ';fill:#552200"
           id="path515" /><path
           d="m 85.352297,-23.808804 q -2.647797,-0.0957 -3.748388,-2.376637 l -0.590172,2.057626 h -2.536143 l 4.258807,-24.500101 h 2.743501 l -1.738614,9.139686 q 1.706712,-2.280934 4.115251,-2.217132 2.249033,0.0319 3.381524,1.658861 1.148443,1.61101 1.08464,4.705423 -0.0638,1.706713 -0.382814,3.812191 -0.319012,2.105477 -0.941084,3.604832 -1.738614,4.226906 -5.646508,4.115251 z m 4.258807,-12.186248 q -0.07975,-1.674811 -0.733727,-2.440439 -0.653975,-0.765629 -1.89812,-0.79753 -2.025725,-0.04785 -3.556981,2.376638 l -1.403652,8.246453 q 0.749678,2.249033 2.775402,2.328786 1.866219,0.07975 2.998711,-1.307949 1.132491,-1.403651 1.483404,-4.418312 0.366864,-3.030612 0.334963,-3.987647 z"
           style="font-style:italic;font-family:'Roboto Condensed';-inkscape-font-specification:'Roboto Condensed, ';fill:#552200"
           id="path517" /><path
           d="m 103.201,-25.643121 q -1.67481,1.91407 -4.131203,1.850268 -1.834317,-0.0319 -2.823254,-1.339849 -0.972985,-1.307948 -0.972985,-3.652685 l 0.07975,-1.451503 1.866218,-11.14946 h 2.727551 l -1.850268,11.197312 -0.0638,1.164393 q -0.0638,1.164392 0.366864,1.930021 0.446616,0.749677 1.323898,0.781578 2.312839,0.111654 3.796239,-2.280934 l 2.20118,-12.79237 h 2.75945 l -2.98276,17.258535 h -2.59994 z"
           style="font-style:italic;font-family:'Roboto Condensed';-inkscape-font-specification:'Roboto Condensed, ';fill:#552200"
           id="path519" /><path
           d="m 118.72091,-28.673732 q 0.20736,-1.515306 -1.69076,-2.520193 l -2.13738,-1.116541 q -1.65886,-0.925134 -2.32878,-1.961922 -0.65398,-1.036788 -0.57423,-2.408539 0.12761,-2.18523 1.78647,-3.620783 1.65886,-1.435553 4.05145,-1.403652 2.31283,0.0638 3.62078,1.531257 1.30795,1.451503 1.21225,3.716486 h -2.72755 q 0.0319,-1.291997 -0.57422,-2.025724 -0.60613,-0.749678 -1.69077,-0.781579 -1.22819,0 -2.02572,0.701826 -0.79753,0.685875 -0.95704,1.786466 -0.1914,1.291997 1.2601,2.121428 l 2.69565,1.37175 q 2.98276,1.658861 2.82325,4.402362 -0.1595,2.344736 -1.88217,3.748388 -1.72266,1.387701 -4.195,1.323898 -2.37664,-0.0319 -3.86004,-1.547206 -1.48341,-1.531257 -1.3877,-3.939795 l 2.7754,0.01595 q -0.0319,1.499355 0.65397,2.280934 0.68588,0.765628 1.94597,0.765628 1.3239,0 2.18523,-0.669924 0.87729,-0.669925 1.02084,-1.770515 z"
           style="font-style:italic;font-family:'Roboto Condensed';-inkscape-font-specification:'Roboto Condensed, ';fill:#552200"
           id="path521" /><path
           d="m 127.30233,-24.127815 h -2.75945 l 2.99871,-17.258535 h 2.75945 z m 0.87728,-21.820403 q 0.0319,-0.685875 0.44662,-1.196294 0.41471,-0.510419 1.13249,-0.54232 0.68587,-0.0319 1.13249,0.462567 0.44662,0.494468 0.41472,1.228195 -0.0319,0.701826 -0.46257,1.212245 -0.41472,0.494468 -1.13249,0.510419 -0.70183,0.0319 -1.13249,-0.462567 -0.43067,-0.494468 -0.39877,-1.212245 z"
           style="font-style:italic;font-family:'Roboto Condensed';-inkscape-font-specification:'Roboto Condensed, ';fill:#552200"
           id="path523" /><path
           d="m 137.3193,-41.402301 -0.36687,1.88217 q 1.88217,-2.217132 4.27476,-2.185231 1.64291,0.01595 2.59995,1.116541 0.97298,1.100591 1.10059,2.998711 0.0638,1.10059 -0.0479,2.153329 l -1.88216,11.308966 h -2.74351 l 1.89812,-11.356818 0.0638,-1.260096 q 0,-2.44044 -2.00978,-2.488292 -1.64291,-0.04785 -3.06251,1.866219 l -0.47852,0.685875 -2.16928,12.553112 h -2.75945 l 2.99871,-17.258535 z"
           style="font-style:italic;font-family:'Roboto Condensed';-inkscape-font-specification:'Roboto Condensed, ';fill:#552200"
           id="path525" /><path
           d="m 153.66867,-23.808804 q -2.90301,-0.0319 -4.33856,-2.089526 -1.43556,-2.057626 -1.05274,-5.614607 l 0.20736,-1.706713 q 0.49446,-4.019547 2.44043,-6.284531 1.96193,-2.280934 4.97659,-2.201181 2.45639,0.0638 3.68458,1.690762 1.24415,1.61101 1.18035,4.545918 l -0.14356,1.91407 -0.23926,1.64291 -9.25134,-0.01595 q -0.20736,1.435553 -0.1914,2.249033 0.0319,1.611009 0.79752,2.536143 0.76563,0.909183 2.18524,0.925134 1.02083,0.0319 2.00977,-0.398765 1.00489,-0.446616 2.10548,-1.547207 l 1.29199,1.802417 q -1.02083,1.339849 -2.52019,1.961922 -1.49935,0.622073 -3.14226,0.590171 z m 2.05762,-15.488019 q -2.82325,-0.127605 -3.95574,3.413425 l -0.43067,1.547207 6.61949,0.01595 0.0798,-0.414715 q 0.0957,-0.733727 0.0957,-1.531257 -0.0638,-2.903006 -2.40854,-3.030611 z"
           style="font-style:italic;font-family:'Roboto Condensed';-inkscape-font-specification:'Roboto Condensed, ';fill:#552200"
           id="path527" /><path
           d="m 171.21429,-28.673732 q 0.20736,-1.515306 -1.69076,-2.520193 l -2.13738,-1.116541 q -1.65886,-0.925134 -2.32879,-1.961922 -0.65397,-1.036788 -0.57422,-2.408539 0.12761,-2.18523 1.78647,-3.620783 1.65886,-1.435553 4.05145,-1.403652 2.31283,0.0638 3.62078,1.531257 1.30795,1.451503 1.21224,3.716486 h -2.72755 q 0.0319,-1.291997 -0.57422,-2.025724 -0.60612,-0.749678 -1.69076,-0.781579 -1.22819,0 -2.02572,0.701826 -0.79753,0.685875 -0.95704,1.786466 -0.19141,1.291997 1.2601,2.121428 l 2.69565,1.37175 q 2.98276,1.658861 2.82325,4.402362 -0.15951,2.344736 -1.88217,3.748388 -1.72266,1.387701 -4.195,1.323898 -2.37664,-0.0319 -3.86004,-1.547206 -1.48341,-1.531257 -1.38771,-3.939795 l 2.77541,0.01595 q -0.0319,1.499355 0.65397,2.280934 0.68588,0.765628 1.94597,0.765628 1.3239,0 2.18523,-0.669924 0.87728,-0.669925 1.02084,-1.770515 z"
           style="font-style:italic;font-family:'Roboto Condensed';-inkscape-font-specification:'Roboto Condensed, ';fill:#552200"
           id="path529" /><path
           d="m 185.80908,-28.673732 q 0.20736,-1.515306 -1.69076,-2.520193 l -2.13738,-1.116541 q -1.65886,-0.925134 -2.32879,-1.961922 -0.65397,-1.036788 -0.57422,-2.408539 0.1276,-2.18523 1.78647,-3.620783 1.65886,-1.435553 4.05144,-1.403652 2.31284,0.0638 3.62079,1.531257 1.30795,1.451503 1.21224,3.716486 h -2.72755 q 0.0319,-1.291997 -0.57422,-2.025724 -0.60612,-0.749678 -1.69076,-0.781579 -1.2282,0 -2.02573,0.701826 -0.79753,0.685875 -0.95703,1.786466 -0.19141,1.291997 1.2601,2.121428 l 2.69564,1.37175 q 2.98276,1.658861 2.82326,4.402362 -0.15951,2.344736 -1.88217,3.748388 -1.72266,1.387701 -4.19501,1.323898 -2.37663,-0.0319 -3.86004,-1.547206 -1.4834,-1.531257 -1.3877,-3.939795 l 2.7754,0.01595 q -0.0319,1.499355 0.65398,2.280934 0.68587,0.765628 1.94597,0.765628 1.3239,0 2.18523,-0.669924 0.87728,-0.669925 1.02084,-1.770515 z"
           style="font-style:italic;font-family:'Roboto Condensed';-inkscape-font-specification:'Roboto Condensed, ';fill:#552200"
           id="path531" /></g></g></mask><rect
     x="278.10605"
     y="74.408546"
     width="257.6011"
     height="29.703749"
     id="rect4" /></defs><g
   inkscape:label="Layer 1"
   inkscape:groupmode="layer"
   id="layer1"
   transform="translate(-2.1856902,-2.2007892)"><path
     style="font-weight:bold;font-size:24px;line-height:1.25;font-family:'Noto Sans';-inkscape-font-specification:'Noto Sans Bold';white-space:pre;stroke-width:0.264583"
     d="m 7.6282235,11.946396 q 0,0.52881 -0.2602078,0.923318 -0.2602078,0.394509 -0.755442,0.612748 -0.4868404,0.209845 -1.1919195,0.209845 -0.3105706,0 -0.6127474,-0.04197 -0.293783,-0.04197 -0.5707784,-0.117513 -0.2686015,-0.08394 -0.5120217,-0.201452 v -1.183525 q 0.4280837,0.184663 0.8813489,0.344145 0.461659,0.151089 0.9149242,0.151089 0.3105706,0 0.4952341,-0.08394 0.1930574,-0.08394 0.2769954,-0.226633 0.092332,-0.142694 0.092332,-0.327358 0,-0.226633 -0.1594822,-0.386115 Q 6.0753705,11.459556 5.8151628,11.325255 5.554955,11.182561 5.219203,11.023078 5.009358,10.922353 4.7659378,10.788052 4.5225176,10.645358 4.295885,10.443906 4.0776462,10.234061 3.9349517,9.9402783 3.7922571,9.646495 3.7922571,9.2351988 q 0,-0.5372032 0.2434202,-0.9149242 0.2518139,-0.3861147 0.7050791,-0.5875659 0.461659,-0.2014512 1.0828002,-0.2014512 0.4700527,0 0.8897427,0.1091194 0.4280838,0.1091194 0.8897428,0.3105706 L 7.1917459,8.9414158 Q 6.7804497,8.7735398 6.4530915,8.681208 6.1257333,8.5888762 5.7815876,8.5888762 q -0.2350264,0 -0.4029024,0.075544 -0.167876,0.075544 -0.2602078,0.209845 -0.083938,0.1343008 -0.083938,0.3189644 0,0.209845 0.125907,0.3609334 0.125907,0.1426946 0.377721,0.2769958 0.251814,0.1343007 0.6295349,0.3189642 0.461659,0.218239 0.7806234,0.453266 0.3273582,0.235026 0.503628,0.55399 0.1762698,0.318965 0.1762698,0.789017 z m 5.9679955,-0.453265 q 0,0.621141 -0.276996,1.124769 -0.268601,0.495235 -0.822592,0.789018 -0.545597,0.285389 -1.384977,0.285389 -1.1919188,0 -1.8130608,-0.604354 Q 8.6774524,12.475206 8.6774524,11.476344 V 7.6151955 h 1.2674638 v 3.6680905 q 0,0.738655 0.3021768,1.040831 0.302176,0.302177 0.898136,0.302177 0.41969,0 0.679898,-0.142694 0.260208,-0.142695 0.377721,-0.444872 0.125907,-0.302177 0.125907,-0.763836 V 7.6151955 h 1.267464 z m 3.382708,-3.8779355 q 1.158344,0 1.687153,0.5036279 0.537203,0.4952342 0.537203,1.3681894 0,0.394509 -0.117513,0.7554422 -0.117513,0.35254 -0.394508,0.637929 -0.268602,0.276995 -0.713473,0.436477 -0.444872,0.159483 -1.099588,0.159483 h -0.545597 v 2.132025 H 15.06514 V 7.6151955 Z m -0.06715,1.0408311 h -0.579172 v 1.7794864 h 0.41969 q 0.360933,0 0.621141,-0.09233 0.260208,-0.09233 0.402903,-0.293783 0.142694,-0.2014514 0.142694,-0.5204162 0,-0.4448714 -0.24342,-0.6547164 -0.24342,-0.2182388 -0.763836,-0.2182388 z m 5.338457,-1.0408311 q 1.158344,0 1.687153,0.5036279 0.537204,0.4952342 0.537204,1.3681894 0,0.394509 -0.117514,0.7554422 -0.117513,0.35254 -0.394508,0.637929 -0.268602,0.276995 -0.713473,0.436477 -0.444872,0.159483 -1.099588,0.159483 H 21.60391 v 2.132025 H 20.336446 V 7.6151955 Z m -0.06715,1.0408311 H 21.60391 v 1.7794864 h 0.41969 q 0.360933,0 0.621141,-0.09233 0.260208,-0.09233 0.402903,-0.293783 0.142694,-0.2014514 0.142694,-0.5204162 0,-0.4448714 -0.24342,-0.6547164 -0.24342,-0.2182388 -0.763836,-0.2182388 z m 3.424674,4.9523424 V 7.6151955 h 1.267464 v 4.9439485 h 2.434202 v 1.049225 z m 6.354103,-3.525396 1.250676,-2.4677775 h 1.368189 l -1.98933,3.6596965 v 2.333477 h -1.25907 V 11.316861 L 29.342993,7.6151955 h 1.376583 z m 7.797846,3.525396 H 37.03172 V 12.886502 L 37.761981,12.55075 V 8.6728142 L 37.03172,8.3370622 V 7.6151955 h 2.727985 v 0.7218667 l -0.73026,0.335752 V 12.55075 l 0.73026,0.335752 z m 6.337319,0 h -1.61161 L 41.874943,9.0757166 h -0.03358 q 0.01679,0.2853892 0.02518,0.5707784 0.01679,0.2853895 0.02518,0.570779 0.01679,0.285389 0.02518,0.570778 v 2.820317 H 40.783749 V 7.6151955 h 1.603215 l 2.602078,4.4906835 h 0.02518 q -0.0085,-0.276996 -0.01679,-0.553991 -0.0083,-0.276996 -0.02518,-0.545597 -0.0083,-0.276995 -0.01679,-0.553991 V 7.6151955 h 1.141557 z M 52.308432,7.6151955 50.268738,13.608369 H 48.883761 L 46.852462,7.6151955 h 1.284251 l 1.124769,3.5673655 q 0.03358,0.09233 0.09233,0.344145 0.06715,0.243421 0.134301,0.520416 0.06715,0.268602 0.09233,0.453265 0.02518,-0.184663 0.08394,-0.453265 0.06715,-0.276995 0.134301,-0.520416 0.06715,-0.251814 0.09233,-0.344145 L 51.02418,7.6151955 Z m 6.110683,2.9881935 q 0,0.696685 -0.17627,1.267463 -0.167876,0.562385 -0.520415,0.973681 -0.344146,0.411296 -0.889743,0.629535 -0.537203,0.218239 -1.267464,0.218239 -0.73026,0 -1.275857,-0.218239 -0.537204,-0.226633 -0.889743,-0.629535 -0.344146,-0.411296 -0.520416,-0.982075 -0.167876,-0.570778 -0.167876,-1.267463 0,-0.9317124 0.302177,-1.620004 0.310571,-0.6882916 0.940106,-1.0660125 0.637928,-0.3861148 1.620003,-0.3861148 0.973681,0 1.603216,0.3861148 0.629535,0.3777209 0.931711,1.0744063 0.310571,0.6882916 0.310571,1.6200042 z m -4.37317,0 q 0,0.629534 0.159483,1.0828 0.159482,0.453265 0.495234,0.696685 0.335752,0.24342 0.864561,0.24342 0.545597,0 0.872955,-0.24342 0.335752,-0.24342 0.486841,-0.696685 0.159482,-0.453266 0.159482,-1.0828 0,-0.9485002 -0.35254,-1.4857034 -0.352539,-0.5372032 -1.158344,-0.5372032 -0.537203,0 -0.872955,0.2434202 -0.335752,0.2434202 -0.495234,0.6966854 -0.159483,0.4532655 -0.159483,1.082801 z m 7.856593,3.00498 H 59.174553 V 12.886502 L 59.904814,12.55075 V 8.6728142 L 59.174553,8.3370622 V 7.6151955 h 2.727985 v 0.7218667 l -0.730261,0.335752 V 12.55075 l 0.730261,0.335752 z m 3.567365,-5.0194928 q -0.360934,0 -0.646323,0.1426946 -0.276995,0.1426946 -0.470053,0.4112962 -0.193057,0.2602078 -0.293783,0.6379288 -0.09233,0.3777212 -0.09233,0.8477742 0,0.637929 0.151088,1.091194 0.159482,0.444871 0.495234,0.679898 0.335752,0.235026 0.856168,0.235026 0.369327,0 0.73026,-0.08394 0.369327,-0.08394 0.797411,-0.235026 v 1.066012 q -0.394508,0.159482 -0.780623,0.235027 -0.386115,0.07554 -0.864561,0.07554 -0.923318,0 -1.527672,-0.377721 -0.59596,-0.386115 -0.881349,-1.074407 -0.285389,-0.696685 -0.285389,-1.620003 0,-0.6798977 0.184663,-1.2422826 0.184664,-0.5707784 0.537204,-0.9820746 0.360933,-0.4112961 0.881349,-0.6379287 0.528809,-0.2266326 1.208707,-0.2266326 0.444871,0 0.889742,0.1175132 0.453266,0.1091194 0.864562,0.3021768 L 66.812911,8.9833848 Q 66.477159,8.8239026 66.133013,8.7063894 65.797261,8.5888762 65.469903,8.5888762 Z m 6.253374,5.0194928 H 68.273425 V 7.6151955 h 3.449852 v 1.0408311 h -2.182388 v 1.3178269 h 2.031299 v 1.0408315 h -2.031299 v 1.544459 h 2.182388 z"
     id="text1"
     aria-label="SUPPLY INVOICE" /><path
     style="font-weight:bold;font-size:18.6667px;line-height:1.25;font-family:'Noto Sans';-inkscape-font-specification:'Noto Sans Bold';white-space:pre"
     d="m 287.94282,91.392571 -0.97067,-3.17334 h -4.85334 l -0.97067,3.17334 h -3.04267 l 4.70401,-13.384025 h 3.45334 l 4.72267,13.384025 z m -2.61334,-8.642683 q -0.0933,-0.317334 -0.24267,-0.802668 -0.14933,-0.485334 -0.29866,-0.989335 -0.14934,-0.504001 -0.24267,-0.877335 -0.0933,0.373334 -0.26133,0.933335 -0.14934,0.541334 -0.29867,1.045335 -0.13067,0.485335 -0.20533,0.690668 l -0.95201,3.098673 h 3.47201 z m 11.59203,-4.685342 q 2.57601,0 3.75201,1.120003 1.19467,1.101335 1.19467,3.042672 0,0.877335 -0.26134,1.680003 -0.26133,0.784001 -0.87733,1.418669 -0.59733,0.616001 -1.58667,0.970668 -0.98933,0.354668 -2.44534,0.354668 h -1.21333 v 4.741342 h -2.81867 V 78.064546 Z m -0.14933,2.314671 h -1.288 v 3.957341 h 0.93333 q 0.80267,0 1.38134,-0.205334 0.57867,-0.205334 0.896,-0.653334 0.31733,-0.448001 0.31733,-1.157336 0,-0.989335 -0.54133,-1.456002 -0.54134,-0.485335 -1.69867,-0.485335 z m 11.87203,-2.314671 q 2.576,0 3.752,1.120003 1.19467,1.101335 1.19467,3.042672 0,0.877335 -0.26133,1.680003 -0.26134,0.784001 -0.87734,1.418669 -0.59733,0.616001 -1.58667,0.970668 -0.98933,0.354668 -2.44533,0.354668 h -1.21334 v 4.741342 H 304.3882 V 78.064546 Z m -0.14934,2.314671 h -1.288 v 3.957341 h 0.93333 q 0.80267,0 1.38134,-0.205334 0.57867,-0.205334 0.896,-0.653334 0.31734,-0.448001 0.31734,-1.157336 0,-0.989335 -0.54134,-1.456002 -0.54133,-0.485335 -1.69867,-0.485335 z m 11.49869,-2.314671 q 1.81067,0 2.98667,0.448001 1.17601,0.429334 1.75467,1.325336 0.57867,0.877335 0.57867,2.221337 0,0.914669 -0.35467,1.605337 -0.336,0.672001 -0.91466,1.157335 -0.56001,0.466668 -1.21334,0.765335 l 3.92001,5.805344 h -3.13601 l -3.17334,-5.114676 h -1.512 v 5.114676 h -2.81867 V 78.064546 Z m -0.20533,2.314671 h -0.85867 v 3.602674 h 0.91467 q 1.4,0 1.99734,-0.466668 0.616,-0.466668 0.616,-1.381336 0,-0.634668 -0.29867,-1.008002 -0.28,-0.392 -0.87734,-0.560001 -0.57866,-0.186667 -1.49333,-0.186667 z m 20.7387,4.330675 q 0,1.549336 -0.392,2.818672 -0.37333,1.250668 -1.15733,2.165337 -0.76534,0.914668 -1.97867,1.400002 -1.19467,0.485335 -2.81868,0.485335 -1.624,0 -2.83733,-0.485335 -1.19467,-0.504001 -1.97867,-1.400002 -0.76534,-0.914669 -1.15734,-2.184004 -0.37333,-1.269336 -0.37333,-2.818672 0,-2.072004 0.672,-3.602673 0.69067,-1.530669 2.09067,-2.370671 1.41867,-0.858668 3.60267,-0.858668 2.16534,0 3.56534,0.858668 1.4,0.840002 2.072,2.389338 0.69067,1.530669 0.69067,3.602673 z m -9.72535,0 q 0,1.400002 0.35467,2.408004 0.35467,1.008002 1.10133,1.549336 0.74667,0.541335 1.92267,0.541335 1.21334,0 1.94134,-0.541335 0.74667,-0.541334 1.08267,-1.549336 0.35467,-1.008002 0.35467,-2.408004 0,-2.109337 -0.784,-3.304006 -0.78401,-1.194669 -2.57601,-1.194669 -1.19467,0 -1.94134,0.541334 -0.74666,0.541335 -1.10133,1.549336 -0.35467,1.008002 -0.35467,2.408005 z m 22.7547,-6.645346 -4.53601,13.328025 h -3.08001 l -4.51734,-13.328025 h 2.85601 l 2.50133,7.933348 q 0.0747,0.205334 0.20534,0.765335 0.14933,0.541334 0.29866,1.157335 0.14934,0.597335 0.20534,1.008002 0.056,-0.410667 0.18666,-1.008002 0.14934,-0.616001 0.29867,-1.157335 0.14934,-0.560001 0.20534,-0.765335 l 2.52,-7.933348 z m 9.09066,13.328025 -0.97067,-3.17334 h -4.85334 l -0.97067,3.17334 h -3.04267 l 4.704,-13.384025 h 3.45334 l 4.72268,13.384025 z m -2.61334,-8.642683 q -0.0933,-0.317334 -0.24267,-0.802668 -0.14933,-0.485334 -0.29867,-0.989335 -0.14933,-0.504001 -0.24266,-0.877335 -0.0933,0.373334 -0.26134,0.933335 -0.14933,0.541334 -0.29866,1.045335 -0.13067,0.485335 -0.20534,0.690668 l -0.952,3.098673 h 3.47201 z m 7.33602,8.642683 V 78.064546 h 2.81868 v 10.994687 h 5.41334 v 2.333338 z m 19.28272,-13.328025 q 1.81067,0 2.98667,0.448001 1.176,0.429334 1.75467,1.325336 0.57867,0.877335 0.57867,2.221337 0,0.914669 -0.35467,1.605337 -0.336,0.672001 -0.91467,1.157335 -0.56,0.466668 -1.21333,0.765335 l 3.92,5.805344 h -3.136 l -3.17334,-5.114676 h -1.512 v 5.114676 h -2.81868 V 78.064546 Z m -0.20534,2.314671 h -0.85866 v 3.602674 h 0.91466 q 1.40001,0 1.99734,-0.466668 0.616,-0.466668 0.616,-1.381336 0,-0.634668 -0.29867,-1.008002 -0.28,-0.392 -0.87733,-0.560001 -0.57867,-0.186667 -1.49334,-0.186667 z m 16.31469,11.013354 h -7.67201 V 78.064546 h 7.67201 v 2.314671 h -4.85334 v 2.930672 h 4.51734 v 2.314671 h -4.51734 v 3.434673 h 4.85334 z m 14.87736,-6.682679 q 0,1.493336 -0.35467,2.725338 -0.35467,1.232002 -1.08267,2.146671 -0.728,0.896001 -1.848,1.400002 l 3.21067,3.584007 h -3.62134 l -2.44534,-2.986672 q -0.056,0 -0.112,0 -0.0373,0 -0.0933,0 -1.624,0 -2.83734,-0.485335 -1.19467,-0.504001 -1.97867,-1.400002 -0.76533,-0.914669 -1.15734,-2.184004 -0.37333,-1.269336 -0.37333,-2.818672 0,-2.072004 0.672,-3.602673 0.69067,-1.530669 2.09067,-2.370671 1.41867,-0.858668 3.60268,-0.858668 2.16533,0 3.56534,0.858668 1.4,0.840002 2.072,2.389338 0.69067,1.530669 0.69067,3.602673 z m -9.72535,0 q 0,1.400002 0.35466,2.408004 0.35467,1.008002 1.10134,1.549336 0.74667,0.541335 1.92267,0.541335 1.21333,0 1.94134,-0.541335 0.74666,-0.541334 1.08266,-1.549336 0.35467,-1.008002 0.35467,-2.408004 0,-2.109337 -0.784,-3.304006 -0.784,-1.194669 -2.576,-1.194669 -1.19467,0 -1.94134,0.541334 -0.74667,0.541335 -1.10134,1.549336 -0.35466,1.008002 -0.35466,2.408005 z m 23.33337,1.97867 q 0,1.381336 -0.616,2.501338 -0.59734,1.101335 -1.82934,1.75467 -1.21334,0.634668 -3.08001,0.634668 -2.65067,0 -4.032,-1.344003 -1.38134,-1.362669 -1.38134,-3.584006 v -8.586683 h 2.81867 v 8.157349 q 0,1.642669 0.672,2.31467 0.672,0.672002 1.99734,0.672002 0.93333,0 1.512,-0.317334 0.57867,-0.317334 0.84,-0.989335 0.28,-0.672002 0.28,-1.69867 v -8.138682 h 2.81868 z m 8.25068,4.704009 h -6.06668 v -1.605337 l 1.62401,-0.746668 v -8.624015 l -1.62401,-0.746668 v -1.605337 h 6.06668 v 1.605337 l -1.624,0.746668 v 8.624015 l 1.624,0.746668 z m 6.16002,-13.328025 q 1.81067,0 2.98667,0.448001 1.176,0.429334 1.75467,1.325336 0.57867,0.877335 0.57867,2.221337 0,0.914669 -0.35467,1.605337 -0.336,0.672001 -0.91467,1.157335 -0.56,0.466668 -1.21333,0.765335 l 3.92001,5.805344 h -3.13601 l -3.17334,-5.114676 h -1.512 v 5.114676 H 441.7751 V 78.064546 Z m -0.20533,2.314671 h -0.85867 v 3.602674 h 0.91467 q 1.4,0 1.99733,-0.466668 0.616,-0.466668 0.616,-1.381336 0,-0.634668 -0.29866,-1.008002 -0.28,-0.392 -0.87734,-0.560001 -0.57867,-0.186667 -1.49333,-0.186667 z m 16.31468,11.013354 H 454.0951 V 78.064546 h 7.67202 v 2.314671 h -4.85335 v 2.930672 h 4.51735 v 2.314671 h -4.51735 v 3.434673 h 4.85335 z m 13.83202,-6.794679 q 0,2.240004 -0.85866,3.752006 -0.85867,1.512003 -2.50134,2.277338 -1.62401,0.765335 -3.92001,0.765335 h -3.77067 V 78.064546 h 4.18134 q 2.09067,0 3.62134,0.746668 1.54933,0.746669 2.38934,2.202671 0.85866,1.437336 0.85866,3.584007 z m -2.93067,0.07467 q 0,-1.474669 -0.42933,-2.426671 -0.42934,-0.952001 -1.288,-1.400002 -0.84001,-0.466668 -2.07201,-0.466668 h -1.512 v 8.680016 h 1.21333 q 2.07201,0 3.08001,-1.101335 1.008,-1.101336 1.008,-3.28534 z"
     id="text4"
     transform="matrix(0.26458333,0,0,0.26458333,-61.984707,-0.83582131)"
     aria-label="APPROVAL REQUIRED" /></g></svg>
