<?xml version="1.0" encoding="UTF-8" standalone="no"?>
<!-- Created with Inkscape (http://www.inkscape.org/) -->

<svg
   width="71.077003mm"
   height="21.983953mm"
   viewBox="0 0 71.077003 21.983953"
   version="1.1"
   id="svg1"
   xml:space="preserve"
   xmlns="http://www.w3.org/2000/svg"
   xmlns:svg="http://www.w3.org/2000/svg"><defs
     id="defs1" /><g
     id="layer1"
     transform="translate(-2.1856902,-2.2007892)"><path
       style="fill:#000000;stroke-width:0.999995"
       d="m 9.9319565,19.004094 c -0.3486747,-0.02619 -0.3758557,-0.0318 -0.3651085,-0.07535 0.032639,-0.132264 0.1452449,-0.87205 0.1956562,-1.285412 0.1627387,-1.334453 0.2490078,-2.547899 0.3496058,-4.917557 0.01314,-0.309525 0.02228,-2.176773 0.02688,-5.4968726 l 0.007,-5.0281132 h 0.396094 0.396094 l 0.0072,4.9927351 c 0.0061,4.2343087 0.01163,5.0988747 0.03613,5.6914527 0.08257,1.996893 0.165594,3.193115 0.313579,4.518163 0.0534,0.478139 0.158843,1.196238 0.221357,1.50747 0.01107,0.05519 0.01057,0.05565 -0.07469,0.06657 -0.344954,0.04416 -1.10077,0.05764 -1.5098205,0.02691 z M 7.6412244,18.509658 c -0.01946,-0.0087 -0.1618917,-0.06833 -0.3165188,-0.132616 -0.391081,-0.162589 -1.0172899,-0.482637 -1.1031004,-0.563782 -0.017448,-0.0165 0.00145,-0.0348 0.088619,-0.0858 0.9138393,-0.534574 1.6941272,-1.471397 2.2211431,-2.666733 0.4402887,-0.998627 0.7110913,-2.094682 0.8555318,-3.462703 0.038613,-0.365719 0.038767,-0.382318 0.044934,-4.8445765 l 0.00618,-4.4776005 0.065655,-0.01048 C 9.5397821,2.259607 9.6270351,2.249532 9.6975712,2.242984 L 9.8258178,2.231082 v 4.6239808 c 0,4.8935522 0.00149,4.7849022 -0.080305,5.5434602 -0.2649263,2.454404 -0.9396831,4.559758 -1.8935337,5.908143 -0.1300744,0.183878 -0.1589541,0.221572 -0.168488,0.219917 -0.00378,-6.59e-4 -0.022812,-0.0083 -0.042273,-0.01693 z m 5.6806496,-0.07501 c -0.249222,-0.337917 -0.482565,-0.73451 -0.720572,-1.224698 -0.613972,-1.264499 -1.038677,-2.873339 -1.253789,-4.74951 -0.08175,-0.712969 -0.07749,-0.434386 -0.08381,-5.4817653 l -0.006,-4.7476692 0.128685,0.011942 c 0.07078,0.00657 0.158536,0.016705 0.195018,0.022532 l 0.06633,0.010591 2.7e-5,4.1944673 c 1.6e-5,2.6112718 0.0069,4.3346772 0.01816,4.5659372 0.09897,2.027325 0.629837,3.845283 1.499766,5.135967 0.42604,0.632103 0.971829,1.166049 1.554429,1.520706 0.161762,0.09847 0.164413,0.101165 0.12867,0.130636 -0.05919,0.0488 -0.434042,0.251964 -0.70856,0.384026 -0.190982,0.09187 -0.729145,0.321939 -0.747864,0.31971 -0.0013,-1.48e-4 -0.03299,-0.04194 -0.07055,-0.09287 z M 5.2059942,17.081707 C 4.9031865,16.839901 4.3857659,16.315849 4.080742,15.942032 3.605869,15.360059 3.1541767,14.623203 2.9007453,14.017078 2.8743042,13.95384 2.8384329,13.870259 2.8210305,13.831343 2.7156344,13.595651 2.545141,13.085064 2.4518642,12.725777 2.0997487,11.36949 2.0968532,9.8307946 2.4439764,8.5334719 2.5210549,8.2453996 2.5373285,8.188282 2.598817,7.9900024 2.6316252,7.8842069 2.7922692,7.454231 2.8286488,7.3748389 2.8420212,7.3456526 2.8745355,7.2700964 2.9008986,7.2069378 3.0408359,6.8716842 3.3372794,6.3314619 3.5921985,5.9471495 3.8533486,5.553445 4.0433676,5.3146514 4.5093698,4.7945563 4.6817752,4.6021387 5.2678468,4.0817797 5.5428391,3.8769634 5.7467582,3.7250829 6.0750486,3.5057928 6.3045102,3.3681847 6.6686554,3.1498072 7.3490131,2.8232321 7.6323807,2.7308008 7.656704,2.7228655 7.7442638,2.6917753 7.8269602,2.6617045 8.1319684,2.5508007 8.7143733,2.3975199 9.0342377,2.3439656 l 0.084023,-0.01407 v 4.2224732 c 0,2.729933 -0.00642,4.3031012 -0.018169,4.4505762 -0.038244,0.480055 -0.1523099,1.116878 -0.2901066,1.619636 -0.5561399,2.029097 -1.697761,3.549489 -3.3042559,4.400553 -0.1113097,0.05897 -0.2105788,0.107215 -0.2205978,0.107215 -0.010019,0 -0.045629,-0.02189 -0.079133,-0.04865 z m 0.4476011,-4.581655 0.4888383,-0.325639 0.5343855,0.35655 c 0.2939122,0.196102 0.5368222,0.35399 0.5398001,0.35086 0.00299,-0.0031 -0.073399,-0.280078 -0.1697272,-0.615442 -0.096328,-0.335365 -0.1751415,-0.614745 -0.1751415,-0.620845 0,-0.0061 0.2286182,-0.189415 0.5080409,-0.407367 l 0.5080405,-0.396276 -0.3355725,-0.01096 c -0.1845651,-0.006 -0.4770342,-0.012 -0.6499323,-0.01327 -0.3083727,-0.0023 -0.3146698,-0.0031 -0.330634,-0.04211 C 6.5532342,10.730408 6.5100974,10.608379 6.3043872,10.019349 6.2245414,9.7907184 6.1539307,9.5976531 6.1474745,9.5903152 c -0.00646,-0.00734 -0.050196,0.096143 -0.0972,0.2299576 -0.047004,0.1338146 -0.1450446,0.4124502 -0.217868,0.6191912 l -0.1324053,0.375893 -0.3206897,0.0023 c -0.1763792,0.0013 -0.4699646,0.0072 -0.6524125,0.01327 l -0.3317234,0.01096 0.4873899,0.380315 c 0.2680639,0.209173 0.4980411,0.388501 0.5110595,0.398508 0.019215,0.01476 -0.00924,0.133001 -0.1511012,0.627962 -0.096124,0.335372 -0.1748356,0.616652 -0.1749144,0.625068 -1.666e-4,0.01783 -0.037725,0.04179 0.5859854,-0.373695 z M 7.7589712,8.0446085 7.5852424,7.4407664 8.0936862,7.045177 8.6021295,6.6495877 8.4843028,6.6385176 C 8.4194973,6.6324291 8.1292571,6.6264591 7.8393231,6.6252511 l -0.5271513,-0.0022 -0.02482,-0.059409 C 7.273699,6.5309711 7.1818162,6.2742574 7.0831657,5.9931728 6.9845166,5.7120887 6.8956029,5.4596172 6.8855806,5.4321254 6.875556,5.4046326 6.8614461,5.3887132 6.8542198,5.3967487 6.8469935,5.4047824 6.7999076,5.5307568 6.7495845,5.6766913 6.6992614,5.8226259 6.6042619,6.0932685 6.5384746,6.2781196 L 6.4188617,6.6142109 5.7793946,6.6236809 C 5.4276876,6.6288909 5.1361171,6.6369559 5.13146,6.6416169 5.1268,6.6462769 5.3488203,6.8250947 5.6248316,7.0389968 5.9008424,7.2528984 6.1271521,7.4375021 6.1277421,7.4492267 6.1283132,7.4609517 6.0521091,7.7378055 5.9583562,8.0644574 5.8646042,8.3911066 5.7922091,8.6626779 5.7974779,8.6679476 5.802745,8.6732146 6.0363421,8.5245328 6.316577,8.3375393 6.5968133,8.1505454 6.8383598,7.9948794 6.8533478,7.9916141 6.8683363,7.9883634 7.1154213,8.1437554 7.4024257,8.3369608 7.689431,8.5301662 7.9261545,8.67929 7.9284788,8.6683469 7.930807,8.6573998 7.8545264,8.3767216 7.7589751,8.0446081 Z M 15.610141,17.039757 C 14.650929,16.525451 13.909734,15.85183 13.314476,14.953385 12.6398,13.93507 12.209396,12.731636 12.014824,11.319498 l -0.03899,-0.283025 -0.0053,-4.3563856 -0.0053,-4.3563853 0.04027,0.00821 c 0.519049,0.1057733 1.015499,0.2377185 1.305043,0.3468501 0.05351,0.020169 0.145051,0.053274 0.203425,0.073568 0.05837,0.020295 0.114092,0.042647 0.123823,0.049673 0.0097,0.00703 0.04355,0.021473 0.07517,0.032107 0.08144,0.027391 0.275358,0.1164356 0.555525,0.2550905 1.367228,0.6766425 2.579814,1.7908486 3.393986,3.1186241 0.04161,0.067851 0.08909,0.1472449 0.10552,0.1764317 0.176332,0.3132184 0.279004,0.5104389 0.354538,0.6810285 0.04954,0.1118831 0.10081,0.2273047 0.113931,0.2564915 0.267051,0.5940289 0.52323,1.5481628 0.6008,2.2376652 0.0049,0.043779 0.01874,0.1552211 0.03071,0.2476464 0.02955,0.2282029 0.0297,1.3841469 2.12e-4,1.6097039 -0.01208,0.09243 -0.02607,0.203867 -0.03108,0.247647 -0.02606,0.227627 -0.0875,0.588098 -0.132638,0.778318 -0.07153,0.301402 -0.08231,0.342128 -0.159172,0.601427 -0.07953,0.268298 -0.210596,0.632743 -0.31173,0.866764 -0.01471,0.03405 -0.03364,0.07783 -0.04206,0.09729 -0.109388,0.252918 -0.238364,0.506426 -0.418479,0.822541 -0.400375,0.702687 -0.936635,1.372296 -1.578176,1.970614 -0.213581,0.199193 -0.369491,0.329001 -0.39481,0.328717 -0.01203,-1.35e-4 -0.09749,-0.04079 -0.189919,-0.09035 z m -1.200641,-4.510036 0.532449,-0.355258 0.532264,0.354618 c 0.292745,0.195039 0.535642,0.35124 0.539769,0.347113 0.0041,-0.0041 -0.07002,-0.278358 -0.164771,-0.6094 -0.09475,-0.331041 -0.168312,-0.612226 -0.163465,-0.624855 0.0048,-0.01263 0.233186,-0.197805 0.507421,-0.411504 l 0.498612,-0.388542 -0.324127,-0.01101 c -0.178271,-0.0061 -0.47218,-0.01202 -0.653134,-0.01327 l -0.329006,-0.0022 -0.217297,-0.619699 C 15.0487,9.8548391 14.946979,9.579912 14.942166,9.5847253 c -0.0048,0.00481 -0.105241,0.2816877 -0.223171,0.6152777 l -0.214419,0.606526 -0.521827,0.01244 c -0.287003,0.0068 -0.581386,0.0148 -0.654183,0.01769 l -0.132353,0.0053 0.508247,0.394918 c 0.279536,0.217205 0.508246,0.401933 0.508246,0.410506 0,0.01519 -0.304378,1.092196 -0.336035,1.189017 -0.0088,0.02676 -0.01224,0.04865 -0.0078,0.04865 0.0045,0 0.247743,-0.159867 0.54059,-0.355258 z M 14.225757,7.9851223 c 0.0074,6.2e-6 0.251896,0.1589353 0.543286,0.3531753 0.291394,0.1942403 0.531518,0.3514466 0.533612,0.3493477 0.002,-0.00211 -0.07512,-0.2784392 -0.171589,-0.6140886 C 15.0346,7.7379069 14.958915,7.454589 14.962881,7.4439609 c 0.004,-0.010631 0.230623,-0.1932433 0.503688,-0.4058112 0.273065,-0.2125679 0.492473,-0.3904936 0.487579,-0.3953895 -0.0049,-0.0049 -0.296141,-0.013324 -0.64721,-0.018727 l -0.638306,-0.00982 -0.02341,-0.061912 c -0.01289,-0.034054 -0.10857,-0.3046937 -0.21264,-0.6014278 -0.10407,-0.2967333 -0.19495,-0.5459137 -0.201954,-0.5537325 -0.007,-0.00782 -0.106671,0.2548629 -0.221485,0.5837385 -0.114812,0.328876 -0.220978,0.607906 -0.235926,0.6200668 -0.02016,0.016412 -0.157411,0.022707 -0.532355,0.024424 -0.277848,0.00127 -0.561516,0.00724 -0.630375,0.013266 l -0.125196,0.010951 0.508524,0.3958099 c 0.279687,0.2176957 0.505409,0.4047573 0.501601,0.4156929 -0.02112,0.060664 -0.344039,1.2013507 -0.344039,1.2152524 0,0.00915 0.238704,-0.1426456 0.530453,-0.3373051 0.291748,-0.1946599 0.536522,-0.3539215 0.543939,-0.3539158 z"
       id="path1" /><path
       style="font-weight:bold;font-size:24px;line-height:1.25;font-family:'Noto Sans';-inkscape-font-specification:'Noto Sans Bold';white-space:pre"
       d="m 290.36947,91.493208 q 0,1.512 -0.744,2.64 -0.744,1.128 -2.16,1.752 -1.392,0.6 -3.408,0.6 -0.888,0 -1.752,-0.12 -0.84,-0.12 -1.632,-0.336 -0.768,-0.24 -1.464,-0.576 v -3.384 q 1.224,0.528 2.52,0.984 1.32,0.432 2.616,0.432 0.888,0 1.416,-0.24 0.552,-0.24 0.792,-0.648 0.264,-0.408 0.264,-0.936 0,-0.648 -0.456,-1.104 -0.432,-0.456 -1.176,-0.84 -0.744,-0.408 -1.704,-0.864 -0.6,-0.288 -1.296,-0.672 -0.696,-0.408 -1.344,-0.984 -0.624,-0.6 -1.032,-1.44 -0.408,-0.84 -0.408,-2.016 0,-1.536 0.696,-2.616 0.72,-1.104 2.016,-1.68 1.32,-0.576 3.096,-0.576 1.344,0 2.544,0.312 1.224,0.312 2.544,0.888 l -1.176,2.832 q -1.176,-0.48 -2.112,-0.744 -0.936,-0.264 -1.92,-0.264 -0.672,0 -1.152,0.216 -0.48,0.216 -0.744,0.6 -0.24,0.384 -0.24,0.912 0,0.6 0.36,1.032 0.36,0.408 1.08,0.792 0.72,0.384 1.8,0.912 1.32,0.624 2.232,1.296 0.936,0.672 1.44,1.584 0.504,0.912 0.504,2.256 z m 17.06401,-1.296 q 0,1.776 -0.792,3.216 -0.768,1.416 -2.352,2.256 -1.56,0.816 -3.96,0.816 -3.408,0 -5.184,-1.728 -1.776,-1.752 -1.776,-4.608 v -11.04 h 3.624 v 10.488 q 0,2.112 0.864,2.976 0.864,0.864 2.568,0.864 1.2,0 1.944,-0.408 0.744,-0.408 1.08,-1.272 0.36,-0.864 0.36,-2.184 v -10.464 h 3.624 z m 9.67202,-11.088 q 3.312,0 4.824,1.44 1.536,1.416 1.536,3.912 0,1.128 -0.336,2.16 -0.336,1.008 -1.128,1.824 -0.768,0.792 -2.04,1.248 -1.272,0.456 -3.144,0.456 h -1.56 v 6.096 h -3.624 v -17.136 z m -0.192,2.976 h -1.656 v 5.088 h 1.2 q 1.032,0 1.776,-0.264 0.744,-0.264 1.152,-0.84 0.408,-0.576 0.408,-1.488 0,-1.272 -0.696,-1.872 -0.696,-0.624 -2.184,-0.624 z m 15.264,-2.976 q 3.312,0 4.824,1.44 1.536,1.416 1.536,3.912 0,1.128 -0.336,2.16 -0.336,1.008 -1.128,1.824 -0.768,0.792 -2.04,1.248 -1.272,0.456 -3.144,0.456 h -1.56 v 6.096 h -3.624 v -17.136 z m -0.192,2.976 h -1.656 v 5.088 h 1.2 q 1.032,0 1.776,-0.264 0.744,-0.264 1.152,-0.84 0.408,-0.576 0.408,-1.488 0,-1.272 -0.696,-1.872 -0.696,-0.624 -2.184,-0.624 z m 9.79201,14.16 v -17.136 h 3.624 v 14.136 h 6.96 v 3 z m 18.16799,-10.08 3.576,-7.056 h 3.912 l -5.688,10.464 v 6.672 h -3.6 v -6.552 l -5.688,-10.584 h 3.936 z m 22.29602,10.08 h -7.8 v -2.064 l 2.088,-0.96 v -11.088 l -2.088,-0.96 v -2.064 h 7.8 v 2.064 l -2.088,0.96 v 11.088 l 2.088,0.96 z m 18.12,0 h -4.608 l -7.464,-12.96 h -0.096 q 0.048,0.816 0.072,1.632 0.048,0.816 0.072,1.632 0.048,0.816 0.072,1.632 v 8.064 h -3.24 v -17.136 h 4.584 l 7.44,12.84 h 0.072 q -0.024,-0.792 -0.048,-1.584 -0.024,-0.792 -0.072,-1.56 -0.024,-0.792 -0.048,-1.584 v -8.112 h 3.264 z m 17.75999,-17.136 -5.832,17.136 h -3.96 l -5.808,-17.136 h 3.672 l 3.216,10.2 q 0.096,0.264 0.264,0.984 0.192,0.696 0.384,1.488 0.192,0.768 0.264,1.296 0.072,-0.528 0.24,-1.296 0.192,-0.792 0.384,-1.488 0.192,-0.72 0.264,-0.984 l 3.24,-10.2 z m 17.47199,8.544 q 0,1.992 -0.504,3.624 -0.48,1.608 -1.488,2.784 -0.984,1.176 -2.544,1.8 -1.536,0.624 -3.624,0.624 -2.088,0 -3.648,-0.624 -1.536,-0.648 -2.544,-1.8 -0.984,-1.176 -1.488,-2.808 -0.48,-1.632 -0.48,-3.624 0,-2.664 0.864,-4.632 0.888,-1.968 2.688,-3.048 1.824,-1.104 4.632,-1.104 2.784,0 4.584,1.104 1.8,1.08 2.664,3.072 0.888,1.968 0.888,4.632 z m -12.504,0 q 0,1.8 0.456,3.096 0.456,1.296 1.416,1.992 0.96,0.696 2.472,0.696 1.56,0 2.496,-0.696 0.96,-0.696 1.392,-1.992 0.456,-1.296 0.456,-3.096 0,-2.712 -1.008,-4.248 -1.008,-1.536 -3.312,-1.536 -1.536,0 -2.496,0.696 -0.96,0.696 -1.416,1.992 -0.456,1.296 -0.456,3.096 z m 22.46399,8.592 h -7.8 v -2.064 l 2.088,-0.96 v -11.088 l -2.088,-0.96 v -2.064 h 7.8 v 2.064 l -2.088,0.96 v 11.088 l 2.088,0.96 z m 10.2,-14.352 q -1.032,0 -1.848,0.408 -0.792,0.408 -1.344,1.176 -0.552,0.744 -0.84,1.824 -0.264,1.08 -0.264,2.424 0,1.824 0.432,3.12 0.456,1.272 1.416,1.944 0.96,0.672 2.448,0.672 1.056,0 2.088,-0.24 1.056,-0.24 2.28,-0.672 v 3.048 q -1.128,0.456 -2.232,0.672 -1.104,0.216 -2.472,0.216 -2.64,0 -4.368,-1.08 -1.704,-1.104 -2.52,-3.072 -0.816,-1.992 -0.816,-4.632 0,-1.944 0.528,-3.552 0.528,-1.632 1.536,-2.808 1.032,-1.176 2.52,-1.824 1.512,-0.648 3.456,-0.648 1.272,0 2.544,0.336 1.296,0.312 2.472,0.864 l -1.176,2.952 q -0.96,-0.456 -1.944,-0.792 -0.96,-0.336 -1.896,-0.336 z m 17.87998,14.352 h -9.864 v -17.136 h 9.864 v 2.976 h -6.24 v 3.768 h 5.808 v 2.976 h -5.808 v 4.416 h 6.24 z"
       id="text1"
       transform="matrix(0.26458333,0,0,0.26458333,-52.052948,-12.587168)"
       aria-label="SUPPLY INVOICE" /><path
       style="font-weight:bold;font-size:18.6667px;line-height:1.25;font-family:'Noto Sans';-inkscape-font-specification:'Noto Sans Bold';white-space:pre"
       d="m 287.94282,91.392571 -0.97067,-3.17334 h -4.85334 l -0.97067,3.17334 h -3.04267 l 4.70401,-13.384025 h 3.45334 l 4.72267,13.384025 z m -2.61334,-8.642683 q -0.0933,-0.317334 -0.24267,-0.802668 -0.14933,-0.485334 -0.29866,-0.989335 -0.14934,-0.504001 -0.24267,-0.877335 -0.0933,0.373334 -0.26133,0.933335 -0.14934,0.541334 -0.29867,1.045335 -0.13067,0.485335 -0.20533,0.690668 l -0.95201,3.098673 h 3.47201 z m 11.59203,-4.685342 q 2.57601,0 3.75201,1.120003 1.19467,1.101335 1.19467,3.042672 0,0.877335 -0.26134,1.680003 -0.26133,0.784001 -0.87733,1.418669 -0.59733,0.616001 -1.58667,0.970668 -0.98933,0.354668 -2.44534,0.354668 h -1.21333 v 4.741342 h -2.81867 V 78.064546 Z m -0.14933,2.314671 h -1.288 v 3.957341 h 0.93333 q 0.80267,0 1.38134,-0.205334 0.57867,-0.205334 0.896,-0.653334 0.31733,-0.448001 0.31733,-1.157336 0,-0.989335 -0.54133,-1.456002 -0.54134,-0.485335 -1.69867,-0.485335 z m 11.87203,-2.314671 q 2.576,0 3.752,1.120003 1.19467,1.101335 1.19467,3.042672 0,0.877335 -0.26133,1.680003 -0.26134,0.784001 -0.87734,1.418669 -0.59733,0.616001 -1.58667,0.970668 -0.98933,0.354668 -2.44533,0.354668 h -1.21334 v 4.741342 H 304.3882 V 78.064546 Z m -0.14934,2.314671 h -1.288 v 3.957341 h 0.93333 q 0.80267,0 1.38134,-0.205334 0.57867,-0.205334 0.896,-0.653334 0.31734,-0.448001 0.31734,-1.157336 0,-0.989335 -0.54134,-1.456002 -0.54133,-0.485335 -1.69867,-0.485335 z m 11.49869,-2.314671 q 1.81067,0 2.98667,0.448001 1.17601,0.429334 1.75467,1.325336 0.57867,0.877335 0.57867,2.221337 0,0.914669 -0.35467,1.605337 -0.336,0.672001 -0.91466,1.157335 -0.56001,0.466668 -1.21334,0.765335 l 3.92001,5.805344 h -3.13601 l -3.17334,-5.114676 h -1.512 v 5.114676 h -2.81867 V 78.064546 Z m -0.20533,2.314671 h -0.85867 v 3.602674 h 0.91467 q 1.4,0 1.99734,-0.466668 0.616,-0.466668 0.616,-1.381336 0,-0.634668 -0.29867,-1.008002 -0.28,-0.392 -0.87734,-0.560001 -0.57866,-0.186667 -1.49333,-0.186667 z m 20.7387,4.330675 q 0,1.549336 -0.392,2.818672 -0.37333,1.250668 -1.15733,2.165337 -0.76534,0.914668 -1.97867,1.400002 -1.19467,0.485335 -2.81868,0.485335 -1.624,0 -2.83733,-0.485335 -1.19467,-0.504001 -1.97867,-1.400002 -0.76534,-0.914669 -1.15734,-2.184004 -0.37333,-1.269336 -0.37333,-2.818672 0,-2.072004 0.672,-3.602673 0.69067,-1.530669 2.09067,-2.370671 1.41867,-0.858668 3.60267,-0.858668 2.16534,0 3.56534,0.858668 1.4,0.840002 2.072,2.389338 0.69067,1.530669 0.69067,3.602673 z m -9.72535,0 q 0,1.400002 0.35467,2.408004 0.35467,1.008002 1.10133,1.549336 0.74667,0.541335 1.92267,0.541335 1.21334,0 1.94134,-0.541335 0.74667,-0.541334 1.08267,-1.549336 0.35467,-1.008002 0.35467,-2.408004 0,-2.109337 -0.784,-3.304006 -0.78401,-1.194669 -2.57601,-1.194669 -1.19467,0 -1.94134,0.541334 -0.74666,0.541335 -1.10133,1.549336 -0.35467,1.008002 -0.35467,2.408005 z m 22.7547,-6.645346 -4.53601,13.328025 h -3.08001 l -4.51734,-13.328025 h 2.85601 l 2.50133,7.933348 q 0.0747,0.205334 0.20534,0.765335 0.14933,0.541334 0.29866,1.157335 0.14934,0.597335 0.20534,1.008002 0.056,-0.410667 0.18666,-1.008002 0.14934,-0.616001 0.29867,-1.157335 0.14934,-0.560001 0.20534,-0.765335 l 2.52,-7.933348 z m 9.09066,13.328025 -0.97067,-3.17334 h -4.85334 l -0.97067,3.17334 h -3.04267 l 4.704,-13.384025 h 3.45334 l 4.72268,13.384025 z m -2.61334,-8.642683 q -0.0933,-0.317334 -0.24267,-0.802668 -0.14933,-0.485334 -0.29867,-0.989335 -0.14933,-0.504001 -0.24266,-0.877335 -0.0933,0.373334 -0.26134,0.933335 -0.14933,0.541334 -0.29866,1.045335 -0.13067,0.485335 -0.20534,0.690668 l -0.952,3.098673 h 3.47201 z m 7.33602,8.642683 V 78.064546 h 2.81868 v 10.994687 h 5.41334 v 2.333338 z m 19.28272,-13.328025 q 1.81067,0 2.98667,0.448001 1.176,0.429334 1.75467,1.325336 0.57867,0.877335 0.57867,2.221337 0,0.914669 -0.35467,1.605337 -0.336,0.672001 -0.91467,1.157335 -0.56,0.466668 -1.21333,0.765335 l 3.92,5.805344 h -3.136 l -3.17334,-5.114676 h -1.512 v 5.114676 h -2.81868 V 78.064546 Z m -0.20534,2.314671 h -0.85866 v 3.602674 h 0.91466 q 1.40001,0 1.99734,-0.466668 0.616,-0.466668 0.616,-1.381336 0,-0.634668 -0.29867,-1.008002 -0.28,-0.392 -0.87733,-0.560001 -0.57867,-0.186667 -1.49334,-0.186667 z m 16.31469,11.013354 h -7.67201 V 78.064546 h 7.67201 v 2.314671 h -4.85334 v 2.930672 h 4.51734 v 2.314671 h -4.51734 v 3.434673 h 4.85334 z m 14.87736,-6.682679 q 0,1.493336 -0.35467,2.725338 -0.35467,1.232002 -1.08267,2.146671 -0.728,0.896001 -1.848,1.400002 l 3.21067,3.584007 h -3.62134 l -2.44534,-2.986672 q -0.056,0 -0.112,0 -0.0373,0 -0.0933,0 -1.624,0 -2.83734,-0.485335 -1.19467,-0.504001 -1.97867,-1.400002 -0.76533,-0.914669 -1.15734,-2.184004 -0.37333,-1.269336 -0.37333,-2.818672 0,-2.072004 0.672,-3.602673 0.69067,-1.530669 2.09067,-2.370671 1.41867,-0.858668 3.60268,-0.858668 2.16533,0 3.56534,0.858668 1.4,0.840002 2.072,2.389338 0.69067,1.530669 0.69067,3.602673 z m -9.72535,0 q 0,1.400002 0.35466,2.408004 0.35467,1.008002 1.10134,1.549336 0.74667,0.541335 1.92267,0.541335 1.21333,0 1.94134,-0.541335 0.74666,-0.541334 1.08266,-1.549336 0.35467,-1.008002 0.35467,-2.408004 0,-2.109337 -0.784,-3.304006 -0.784,-1.194669 -2.576,-1.194669 -1.19467,0 -1.94134,0.541334 -0.74667,0.541335 -1.10134,1.549336 -0.35466,1.008002 -0.35466,2.408005 z m 23.33337,1.97867 q 0,1.381336 -0.616,2.501338 -0.59734,1.101335 -1.82934,1.75467 -1.21334,0.634668 -3.08001,0.634668 -2.65067,0 -4.032,-1.344003 -1.38134,-1.362669 -1.38134,-3.584006 v -8.586683 h 2.81867 v 8.157349 q 0,1.642669 0.672,2.31467 0.672,0.672002 1.99734,0.672002 0.93333,0 1.512,-0.317334 0.57867,-0.317334 0.84,-0.989335 0.28,-0.672002 0.28,-1.69867 v -8.138682 h 2.81868 z m 8.25068,4.704009 h -6.06668 v -1.605337 l 1.62401,-0.746668 v -8.624015 l -1.62401,-0.746668 v -1.605337 h 6.06668 v 1.605337 l -1.624,0.746668 v 8.624015 l 1.624,0.746668 z m 6.16002,-13.328025 q 1.81067,0 2.98667,0.448001 1.176,0.429334 1.75467,1.325336 0.57867,0.877335 0.57867,2.221337 0,0.914669 -0.35467,1.605337 -0.336,0.672001 -0.91467,1.157335 -0.56,0.466668 -1.21333,0.765335 l 3.92001,5.805344 h -3.13601 l -3.17334,-5.114676 h -1.512 v 5.114676 H 441.7751 V 78.064546 Z m -0.20533,2.314671 h -0.85867 v 3.602674 h 0.91467 q 1.4,0 1.99733,-0.466668 0.616,-0.466668 0.616,-1.381336 0,-0.634668 -0.29866,-1.008002 -0.28,-0.392 -0.87734,-0.560001 -0.57867,-0.186667 -1.49333,-0.186667 z m 16.31468,11.013354 H 454.0951 V 78.064546 h 7.67202 v 2.314671 h -4.85335 v 2.930672 h 4.51735 v 2.314671 h -4.51735 v 3.434673 h 4.85335 z m 13.83202,-6.794679 q 0,2.240004 -0.85866,3.752006 -0.85867,1.512003 -2.50134,2.277338 -1.62401,0.765335 -3.92001,0.765335 h -3.77067 V 78.064546 h 4.18134 q 2.09067,0 3.62134,0.746668 1.54933,0.746669 2.38934,2.202671 0.85866,1.437336 0.85866,3.584007 z m -2.93067,0.07467 q 0,-1.474669 -0.42933,-2.426671 -0.42934,-0.952001 -1.288,-1.400002 -0.84001,-0.466668 -2.07201,-0.466668 h -1.512 v 8.680016 h 1.21333 q 2.07201,0 3.08001,-1.101335 1.008,-1.101336 1.008,-3.28534 z"
       id="text4"
       transform="matrix(0.26458333,0,0,0.26458333,-61.984707,-0.83582131)"
       aria-label="APPROVAL REQUIRED" /></g></svg>
