<svg width="16" height="16" viewBox="0 0 16 16" fill="none" xmlns="http://www.w3.org/2000/svg">
<g clip-path="url(#clip0_9202_350117)">
<mask id="mask0_9202_350117" style="mask-type:alpha" maskUnits="userSpaceOnUse" x="0" y="0" width="16" height="16">
<path fill-rule="evenodd" clip-rule="evenodd" d="M0 0H16V8.33692C15.0046 6.92345 13.3602 6 11.5 6C8.46243 6 6 8.46243 6 11.5C6 13.3602 6.92345 15.0046 8.33692 16H0V0ZM14.6631 16C15.1819 15.6347 15.6347 15.1819 16 14.6631V16H14.6631Z" fill="#D9D9D9"/>
</mask>
<g mask="url(#mask0_9202_350117)">
<path d="M4.5 2C3.11929 2 2 3.11929 2 4.5V11.5C2 12.8807 3.11929 14 4.5 14H11.5C12.8807 14 14 12.8807 14 11.5V4.5C14 3.11929 12.8807 2 11.5 2H4.5ZM13 5H3V4.5C3 3.67157 3.67157 3 4.5 3H11.5C12.3284 3 13 3.67157 13 4.5V5ZM3 6H13V11.5C13 12.3284 12.3284 13 11.5 13H4.5C3.67157 13 3 12.3284 3 11.5V6Z" fill="#424242"/>
</g>
<path fill-rule="evenodd" clip-rule="evenodd" d="M11.5 16C13.9853 16 16 13.9853 16 11.5C16 9.01472 13.9853 7 11.5 7C9.01472 7 7 9.01472 7 11.5C7 13.9853 9.01472 16 11.5 16ZM13.3536 10.3536C13.5488 10.1583 13.5488 9.84171 13.3536 9.64645C13.1583 9.45118 12.8417 9.45118 12.6464 9.64645L11.5 10.7929L10.3536 9.64645C10.1583 9.45118 9.84171 9.45118 9.64645 9.64645C9.45118 9.84171 9.45118 10.1583 9.64645 10.3536L10.7929 11.5L9.64645 12.6464C9.45118 12.8417 9.45118 13.1583 9.64645 13.3536C9.84171 13.5488 10.1583 13.5488 10.3536 13.3536L11.5 12.2071L12.6464 13.3536C12.8417 13.5488 13.1583 13.5488 13.3536 13.3536C13.5488 13.1583 13.5488 12.8417 13.3536 12.6464L12.2071 11.5L13.3536 10.3536Z" fill="#424242"/>
</g>
<defs>
<clipPath id="clip0_9202_350117">
<rect width="16" height="16" fill="white"/>
</clipPath>
</defs>
</svg>
