<svg width="16" height="16" viewBox="0 0 16 16" fill="none" xmlns="http://www.w3.org/2000/svg">
<g clip-path="url(#clip0_9202_349967)">
<mask id="mask0_9202_349967" style="mask-type:alpha" maskUnits="userSpaceOnUse" x="0" y="0" width="16" height="16">
<path fill-rule="evenodd" clip-rule="evenodd" d="M16 0H0V16H6.26392C6.19155 15.8735 6.1327 15.7385 6.08904 15.5971C5.93654 15.1033 5.98115 14.5695 6.21351 14.1079L9.01744 8.5H8.5V7.5H9.5V7.53489L9.71351 7.10787C9.87938 6.77505 10.1348 6.49507 10.451 6.29937C10.7672 6.10367 11.1317 6 11.5035 6C11.8754 6 12.2399 6.10367 12.5561 6.29937C12.8723 6.49507 13.1276 6.77505 13.2935 7.10787L16 12.5208V0Z" fill="#D9D9D9"/>
</mask>
<g mask="url(#mask0_9202_349967)">
<path d="M1 2.5C1 2.22386 1.22386 2 1.5 2H7C7.27614 2 7.5 2.22386 7.5 2.5C7.5 2.77614 7.27614 3 7 3H1.5C1.22386 3 1 2.77614 1 2.5Z" fill="#424242"/>
<path d="M4 5.5C4 5.22386 4.22386 5 4.5 5H8.5C8.77614 5 9 5.22386 9 5.5C9 5.77614 8.77614 6 8.5 6H4.5C4.22386 6 4 5.77614 4 5.5Z" fill="#424242"/>
<path d="M9.40029 9H11.5C11.7761 9 12 8.77614 12 8.5C12 8.22386 11.7761 8 11.5 8H8.74284C8.99647 8.30711 9.21739 8.64222 9.40029 9Z" fill="#424242"/>
<path d="M11 5C10.7239 5 10.5 5.22386 10.5 5.5C10.5 5.77614 10.7239 6 11 6H13.5C13.7761 6 14 5.77614 14 5.5C14 5.22386 13.7761 5 13.5 5H11Z" fill="#424242"/>
<path d="M9 2.5C9 2.22386 9.22386 2 9.5 2H14.5C14.7761 2 15 2.22386 15 2.5C15 2.77614 14.7761 3 14.5 3H9.5C9.22386 3 9 2.77614 9 2.5Z" fill="#424242"/>
<path fill-rule="evenodd" clip-rule="evenodd" d="M4.5 7C6.98528 7 9 9.01472 9 11.5C9 13.9853 6.98528 16 4.5 16C2.01472 16 0 13.9853 0 11.5C-9.53674e-07 9.01472 2.01472 7 4.5 7ZM5.125 9.5C5.125 9.15482 4.84518 8.875 4.5 8.875C4.15482 8.875 3.875 9.15482 3.875 9.5C3.875 9.84518 4.15482 10.125 4.5 10.125C4.84518 10.125 5.125 9.84518 5.125 9.5ZM4 13.5C4 13.7761 4.22386 14 4.5 14C4.77614 14 5 13.7761 5 13.5L5 11.5C5 11.2239 4.77614 11 4.5 11C4.22386 11 4 11.2239 4 11.5V13.5Z" fill="#424242"/>
</g>
<g clip-path="url(#clip1_9202_349967)">
<path fill-rule="evenodd" clip-rule="evenodd" d="M12.3931 7.55201L15.8931 14.552C15.9694 14.7044 16.0056 14.8738 15.9981 15.044C15.9906 15.2143 15.9397 15.3799 15.8502 15.5249C15.7607 15.67 15.6357 15.7898 15.4869 15.8729C15.3381 15.9561 15.1705 15.9998 15.0001 16H8.00006C7.8292 16.0007 7.66101 15.9576 7.51154 15.8748C7.36207 15.792 7.23631 15.6723 7.14625 15.5271C7.0562 15.3818 7.00486 15.216 6.99712 15.0453C6.98938 14.8746 7.02551 14.7048 7.10206 14.552L10.6021 7.55201C10.6849 7.38534 10.8126 7.24509 10.9708 7.14705C11.129 7.04901 11.3114 6.99707 11.4976 6.99707C11.6837 6.99707 11.8661 7.04901 12.0243 7.14705C12.1825 7.24509 12.3102 7.38534 12.3931 7.55201ZM12 12.495V9.495C12 9.36239 11.9473 9.23521 11.8536 9.14144C11.7598 9.04767 11.6326 8.995 11.5 8.995C11.3674 8.995 11.2402 9.04767 11.1464 9.14144C11.0527 9.23521 11 9.36239 11 9.495V12.495C11 12.6276 11.0527 12.7548 11.1464 12.8485C11.2402 12.9423 11.3674 12.995 11.5 12.995C11.6326 12.995 11.7598 12.9423 11.8536 12.8485C11.9473 12.7548 12 12.6276 12 12.495ZM11.2222 14.0843C11.3044 14.0293 11.4011 14 11.5 14C11.6326 14 11.7598 14.0527 11.8536 14.1464C11.9473 14.2402 12 14.3674 12 14.5C12 14.5989 11.9707 14.6956 11.9157 14.7778C11.8608 14.86 11.7827 14.9241 11.6913 14.9619C11.6 14.9998 11.4994 15.0097 11.4025 14.9904C11.3055 14.9711 11.2164 14.9235 11.1464 14.8535C11.0765 14.7836 11.0289 14.6945 11.0096 14.5975C10.9903 14.5006 11.0002 14.4 11.0381 14.3087C11.0759 14.2173 11.14 14.1392 11.2222 14.0843Z" fill="#424242"/>
</g>
</g>
<defs>
<clipPath id="clip0_9202_349967">
<rect width="16" height="16" fill="white"/>
</clipPath>
<clipPath id="clip1_9202_349967">
<rect width="16" height="16" fill="white"/>
</clipPath>
</defs>
</svg>
