<svg width="16" height="16" viewBox="0 0 16 16" fill="none" xmlns="http://www.w3.org/2000/svg">
<g clip-path="url(#clip0_9202_349958)">
<mask id="mask0_9202_349958" style="mask-type:alpha" maskUnits="userSpaceOnUse" x="0" y="0" width="16" height="16">
<path fill-rule="evenodd" clip-rule="evenodd" d="M0 0H16V9.21981C15.8449 9.13653 15.6769 9.07463 15.5 9.038V9C15.5 7.346 14.154 6 12.5 6C10.846 6 9.5 7.346 9.5 9.001V9.039C8.645 9.215 8 9.983 8 10.901V15.1C8 15.4253 8.08119 15.7319 8.22414 16H0V0Z" fill="#D9D9D9"/>
</mask>
<g mask="url(#mask0_9202_349958)">
<path d="M1 2.5C1 2.22386 1.22386 2 1.5 2H7C7.27614 2 7.5 2.22386 7.5 2.5C7.5 2.77614 7.27614 3 7 3H1.5C1.22386 3 1 2.77614 1 2.5Z" fill="#424242"/>
<path d="M4 5.5C4 5.22386 4.22386 5 4.5 5H8.5C8.77614 5 9 5.22386 9 5.5C9 5.77614 8.77614 6 8.5 6H4.5C4.22386 6 4 5.77614 4 5.5Z" fill="#424242"/>
<path d="M9.40029 9H11.5C11.7761 9 12 8.77614 12 8.5C12 8.22386 11.7761 8 11.5 8H8.74284C8.99647 8.30711 9.21739 8.64222 9.40029 9Z" fill="#424242"/>
<path d="M11 5C10.7239 5 10.5 5.22386 10.5 5.5C10.5 5.77614 10.7239 6 11 6H13.5C13.7761 6 14 5.77614 14 5.5C14 5.22386 13.7761 5 13.5 5H11Z" fill="#424242"/>
<path d="M9 2.5C9 2.22386 9.22386 2 9.5 2H14.5C14.7761 2 15 2.22386 15 2.5C15 2.77614 14.7761 3 14.5 3H9.5C9.22386 3 9 2.77614 9 2.5Z" fill="#424242"/>
<path fill-rule="evenodd" clip-rule="evenodd" d="M4.5 7C6.98528 7 9 9.01472 9 11.5C9 13.9853 6.98528 16 4.5 16C2.01472 16 0 13.9853 0 11.5C-9.53674e-07 9.01472 2.01472 7 4.5 7ZM5.125 9.5C5.125 9.15482 4.84518 8.875 4.5 8.875C4.15482 8.875 3.875 9.15482 3.875 9.5C3.875 9.84518 4.15482 10.125 4.5 10.125C4.84518 10.125 5.125 9.84518 5.125 9.5ZM4 13.5C4 13.7761 4.22386 14 4.5 14C4.77614 14 5 13.7761 5 13.5L5 11.5C5 11.2239 4.77614 11 4.5 11C4.22386 11 4 11.2239 4 11.5V13.5Z" fill="#424242"/>
</g>
<path d="M10.5 9V10H9.875C9.392 10 9 10.403 9 10.9V15.1C9 15.597 9.392 16 9.875 16H15.125C15.608 16 16 15.597 16 15.1V10.9C16 10.403 15.608 10 15.125 10H14.5V9C14.5 7.895 13.605 7 12.5 7C11.395 7 10.5 7.895 10.5 9ZM12.5 8C13.052 8 13.5 8.448 13.5 9V10H11.5V9C11.5 8.448 11.948 8 12.5 8ZM12.5 13.75C12.086 13.75 11.75 13.414 11.75 13C11.75 12.586 12.086 12.25 12.5 12.25C12.914 12.25 13.25 12.586 13.25 13C13.25 13.414 12.914 13.75 12.5 13.75Z" fill="#424242"/>
</g>
<defs>
<clipPath id="clip0_9202_349958">
<rect width="16" height="16" fill="white"/>
</clipPath>
</defs>
</svg>
