<svg width="16" height="16" viewBox="0 0 16 16" fill="none" xmlns="http://www.w3.org/2000/svg">
<g clip-path="url(#clip0_9202_349976)">
<mask id="mask0_9202_349976" style="mask-type:alpha" maskUnits="userSpaceOnUse" x="0" y="0" width="16" height="16">
<path fill-rule="evenodd" clip-rule="evenodd" d="M0 0H16V8.33692C15.0046 6.92345 13.3602 6 11.5 6C8.46243 6 6 8.46243 6 11.5C6 13.3602 6.92345 15.0046 8.33692 16H0V0ZM14.6631 16C15.1819 15.6347 15.6347 15.1819 16 14.6631V16H14.6631Z" fill="#D9D9D9"/>
</mask>
<g mask="url(#mask0_9202_349976)">
<path d="M1 2.5C1 2.22386 1.22386 2 1.5 2H7C7.27614 2 7.5 2.22386 7.5 2.5C7.5 2.77614 7.27614 3 7 3H1.5C1.22386 3 1 2.77614 1 2.5Z" fill="#c5c5c5"/>
<path d="M4 5.5C4 5.22386 4.22386 5 4.5 5H8.5C8.77614 5 9 5.22386 9 5.5C9 5.77614 8.77614 6 8.5 6H4.5C4.22386 6 4 5.77614 4 5.5Z" fill="#c5c5c5"/>
<path d="M9.40029 9H11.5C11.7761 9 12 8.77614 12 8.5C12 8.22386 11.7761 8 11.5 8H8.74284C8.99647 8.30711 9.21739 8.64222 9.40029 9Z" fill="#c5c5c5"/>
<path d="M11 5C10.7239 5 10.5 5.22386 10.5 5.5C10.5 5.77614 10.7239 6 11 6H13.5C13.7761 6 14 5.77614 14 5.5C14 5.22386 13.7761 5 13.5 5H11Z" fill="#c5c5c5"/>
<path d="M9 2.5C9 2.22386 9.22386 2 9.5 2H14.5C14.7761 2 15 2.22386 15 2.5C15 2.77614 14.7761 3 14.5 3H9.5C9.22386 3 9 2.77614 9 2.5Z" fill="#c5c5c5"/>
<path fill-rule="evenodd" clip-rule="evenodd" d="M4.5 7C6.98528 7 9 9.01472 9 11.5C9 13.9853 6.98528 16 4.5 16C2.01472 16 0 13.9853 0 11.5C-9.53674e-07 9.01472 2.01472 7 4.5 7ZM5.125 9.5C5.125 9.15482 4.84518 8.875 4.5 8.875C4.15482 8.875 3.875 9.15482 3.875 9.5C3.875 9.84518 4.15482 10.125 4.5 10.125C4.84518 10.125 5.125 9.84518 5.125 9.5ZM4 13.5C4 13.7761 4.22386 14 4.5 14C4.77614 14 5 13.7761 5 13.5L5 11.5C5 11.2239 4.77614 11 4.5 11C4.22386 11 4 11.2239 4 11.5V13.5Z" fill="#c5c5c5"/>
</g>
<path fill-rule="evenodd" clip-rule="evenodd" d="M11.5 16C13.9853 16 16 13.9853 16 11.5C16 9.01472 13.9853 7 11.5 7C9.01472 7 7 9.01472 7 11.5C7 13.9853 9.01472 16 11.5 16ZM13.3536 10.3536C13.5488 10.1583 13.5488 9.84171 13.3536 9.64645C13.1583 9.45118 12.8417 9.45118 12.6464 9.64645L11.5 10.7929L10.3536 9.64645C10.1583 9.45118 9.84171 9.45118 9.64645 9.64645C9.45118 9.84171 9.45118 10.1583 9.64645 10.3536L10.7929 11.5L9.64645 12.6464C9.45118 12.8417 9.45118 13.1583 9.64645 13.3536C9.84171 13.5488 10.1583 13.5488 10.3536 13.3536L11.5 12.2071L12.6464 13.3536C12.8417 13.5488 13.1583 13.5488 13.3536 13.3536C13.5488 13.1583 13.5488 12.8417 13.3536 12.6464L12.2071 11.5L13.3536 10.3536Z" fill="#c5c5c5"/>
</g>
<defs>
<clipPath id="clip0_9202_349976">
<rect width="16" height="16" fill="white"/>
</clipPath>
</defs>
</svg>
