<svg width="16" height="16" viewBox="0 0 16 16" fill="none" xmlns="http://www.w3.org/2000/svg">
<path fill-rule="evenodd" clip-rule="evenodd" d="M2.75 4C2.33579 4 2 4.33579 2 4.75V12.25C2 12.6642 2.33579 13 2.75 13H12.25C12.6642 13 13 12.6642 13 12.25V4.75C13 4.33579 12.6642 4 12.25 4H2.75ZM1 4.75C1 3.7835 1.7835 3 2.75 3H12.25C13.2165 3 14 3.7835 14 4.75V12.25C14 13.2165 13.2165 14 12.25 14H2.75C1.7835 14 1 13.2165 1 12.25V4.75Z" fill="#c5c5c5"/>
<path d="M4 7.5V9.5C4 9.63261 4.05268 9.75979 4.14645 9.85355C4.24021 9.94732 4.36739 10 4.5 10C4.63261 10 4.75979 9.94732 4.85355 9.85355C4.94732 9.75979 5 9.63261 5 9.5C5 9.36739 5.05268 9.24021 5.14645 9.14645C5.24021 9.05268 5.36739 9 5.5 9C5.63261 9 5.75979 9.05268 5.85355 9.14645C5.94732 9.24021 6 9.36739 6 9.5C6 9.89782 5.84196 10.2794 5.56066 10.5607C5.27936 10.842 4.89782 11 4.5 11C4.10218 11 3.72064 10.842 3.43934 10.5607C3.15804 10.2794 3 9.89782 3 9.5V7.5C3 7.10218 3.15804 6.72064 3.43934 6.43934C3.72064 6.15804 4.10218 6 4.5 6C4.89782 6 5.27936 6.15804 5.56066 6.43934C5.84196 6.72064 6 7.10218 6 7.5C6 7.63261 5.94732 7.75979 5.85355 7.85355C5.75979 7.94732 5.63261 8 5.5 8C5.36739 8 5.24021 7.94732 5.14645 7.85355C5.05268 7.75979 5 7.63261 5 7.5C5 7.36739 4.94732 7.24021 4.85355 7.14645C4.75979 7.05268 4.63261 7 4.5 7C4.36739 7 4.24021 7.05268 4.14645 7.14645C4.05268 7.24021 4 7.36739 4 7.5ZM12 9.5C12 9.63261 11.9473 9.75979 11.8536 9.85355C11.7598 9.94732 11.6326 10 11.5 10H11V10.5C11 10.6326 10.9473 10.7598 10.8536 10.8536C10.7598 10.9473 10.6326 11 10.5 11C10.3674 11 10.2402 10.9473 10.1464 10.8536C10.0527 10.7598 10 10.6326 10 10.5V10H9V10.5C9 10.6326 8.94732 10.7598 8.85355 10.8536C8.75979 10.9473 8.63261 11 8.5 11C8.36739 11 8.24021 10.9473 8.14645 10.8536C8.05268 10.7598 8 10.6326 8 10.5V10H7.5C7.36739 10 7.24021 9.94732 7.14645 9.85355C7.05268 9.75979 7 9.63261 7 9.5C7 9.36739 7.05268 9.24021 7.14645 9.14645C7.24021 9.05268 7.36739 9 7.5 9H8V8H7.5C7.36739 8 7.24021 7.94732 7.14645 7.85355C7.05268 7.75979 7 7.63261 7 7.5C7 7.36739 7.05268 7.24021 7.14645 7.14645C7.24021 7.05268 7.36739 7 7.5 7H8V6.5C8 6.36739 8.05268 6.24021 8.14645 6.14645C8.24021 6.05268 8.36739 6 8.5 6C8.63261 6 8.75979 6.05268 8.85355 6.14645C8.94732 6.24021 9 6.36739 9 6.5V7H10V6.5C10 6.36739 10.0527 6.24021 10.1464 6.14645C10.2402 6.05268 10.3674 6 10.5 6C10.6326 6 10.7598 6.05268 10.8536 6.14645C10.9473 6.24021 11 6.36739 11 6.5V7H11.5C11.6326 7 11.7598 7.05268 11.8536 7.14645C11.9473 7.24021 12 7.36739 12 7.5C12 7.63261 11.9473 7.75979 11.8536 7.85355C11.7598 7.94732 11.6326 8 11.5 8H11V9H11.5C11.6326 9 11.7598 9.05268 11.8536 9.14645C11.9473 9.24021 12 9.36739 12 9.5ZM10 8H9V9H10V8Z" fill="#c5c5c5"/>
</svg>
