<svg width="16" height="16" viewBox="0 0 16 16" fill="none" xmlns="http://www.w3.org/2000/svg">
<g clip-path="url(#clip0_9202_350003)">
<mask id="mask0_9202_350003" style="mask-type:alpha" maskUnits="userSpaceOnUse" x="0" y="0" width="16" height="16">
<path fill-rule="evenodd" clip-rule="evenodd" d="M0 0H16V8.33692C15.0046 6.92345 13.3602 6 11.5 6C8.46243 6 6 8.46243 6 11.5C6 13.3602 6.92345 15.0046 8.33692 16H0V0ZM14.6631 16C15.1819 15.6347 15.6347 15.1819 16 14.6631V16H14.6631Z" fill="#D9D9D9"/>
</mask>
<g mask="url(#mask0_9202_350003)">
<path d="M13.5 3H6.5C5.673 3 5 3.673 5 4.5V7H4C4 6.449 3.552 6 3 6H2C1.448 6 1 6.449 1 7V8C1 8.551 1.448 9 2 9H3C3.552 9 4 8.551 4 8H5V10.5C5 11.327 5.673 12 6.5 12H13.5C14.327 12 15 11.327 15 10.5V4.5C15 3.673 14.327 3 13.5 3ZM2 8V7H3V8H2ZM14 10.5C14 10.776 13.775 11 13.5 11H6.5C6.225 11 6 10.776 6 10.5V4.5C6 4.224 6.225 4 6.5 4H13.5C13.775 4 14 4.224 14 4.5V10.5ZM9 6H8C7.448 6 7 6.449 7 7V8C7 8.551 7.448 9 8 9H9C9.552 9 10 8.551 10 8V7C10 6.449 9.552 6 9 6ZM8 8V7H9V8H8ZM13 5.835V6.165C13 6.625 12.625 7 12.165 7H11.835C11.375 7 11 6.625 11 6.165V5.835C11 5.375 11.375 5 11.835 5H12.165C12.625 5 13 5.375 13 5.835ZM13 8.835V9.165C13 9.625 12.625 10 12.165 10H11.835C11.375 10 11 9.625 11 9.165V8.835C11 8.375 11.375 8 11.835 8H12.165C12.625 8 13 8.375 13 8.835Z" fill="#c5c5c5"/>
</g>
<path fill-rule="evenodd" clip-rule="evenodd" d="M11.5 16C13.9853 16 16 13.9853 16 11.5C16 9.01472 13.9853 7 11.5 7C9.01472 7 7 9.01472 7 11.5C7 13.9853 9.01472 16 11.5 16ZM13.3536 10.3536C13.5488 10.1583 13.5488 9.84171 13.3536 9.64645C13.1583 9.45118 12.8417 9.45118 12.6464 9.64645L11.5 10.7929L10.3536 9.64645C10.1583 9.45118 9.84171 9.45118 9.64645 9.64645C9.45118 9.84171 9.45118 10.1583 9.64645 10.3536L10.7929 11.5L9.64645 12.6464C9.45118 12.8417 9.45118 13.1583 9.64645 13.3536C9.84171 13.5488 10.1583 13.5488 10.3536 13.3536L11.5 12.2071L12.6464 13.3536C12.8417 13.5488 13.1583 13.5488 13.3536 13.3536C13.5488 13.1583 13.5488 12.8417 13.3536 12.6464L12.2071 11.5L13.3536 10.3536Z" fill="#c5c5c5"/>
</g>
<defs>
<clipPath id="clip0_9202_350003">
<rect width="16" height="16" fill="white"/>
</clipPath>
</defs>
</svg>
