<svg width="16" height="16" viewBox="0 0 16 16" fill="none" xmlns="http://www.w3.org/2000/svg">
<g clip-path="url(#clip0_9202_349985)">
<mask id="mask0_9202_349985" style="mask-type:alpha" maskUnits="userSpaceOnUse" x="0" y="0" width="16" height="16">
<path fill-rule="evenodd" clip-rule="evenodd" d="M0 0H16V9.21981C15.8449 9.13653 15.6769 9.07463 15.5 9.038V9C15.5 7.346 14.154 6 12.5 6C10.846 6 9.5 7.346 9.5 9.001V9.039C8.645 9.215 8 9.983 8 10.901V15.1C8 15.4253 8.08119 15.7319 8.22414 16H0V0Z" fill="#D9D9D9"/>
</mask>
<g mask="url(#mask0_9202_349985)">
<path d="M13.5 3H6.5C5.673 3 5 3.673 5 4.5V7H4C4 6.449 3.552 6 3 6H2C1.448 6 1 6.449 1 7V8C1 8.551 1.448 9 2 9H3C3.552 9 4 8.551 4 8H5V10.5C5 11.327 5.673 12 6.5 12H13.5C14.327 12 15 11.327 15 10.5V4.5C15 3.673 14.327 3 13.5 3ZM2 8V7H3V8H2ZM14 10.5C14 10.776 13.775 11 13.5 11H6.5C6.225 11 6 10.776 6 10.5V4.5C6 4.224 6.225 4 6.5 4H13.5C13.775 4 14 4.224 14 4.5V10.5ZM9 6H8C7.448 6 7 6.449 7 7V8C7 8.551 7.448 9 8 9H9C9.552 9 10 8.551 10 8V7C10 6.449 9.552 6 9 6ZM8 8V7H9V8H8ZM13 5.835V6.165C13 6.625 12.625 7 12.165 7H11.835C11.375 7 11 6.625 11 6.165V5.835C11 5.375 11.375 5 11.835 5H12.165C12.625 5 13 5.375 13 5.835ZM13 8.835V9.165C13 9.625 12.625 10 12.165 10H11.835C11.375 10 11 9.625 11 9.165V8.835C11 8.375 11.375 8 11.835 8H12.165C12.625 8 13 8.375 13 8.835Z" fill="#c5c5c5"/>
</g>
<path d="M10.5 9V10H9.875C9.392 10 9 10.403 9 10.9V15.1C9 15.597 9.392 16 9.875 16H15.125C15.608 16 16 15.597 16 15.1V10.9C16 10.403 15.608 10 15.125 10H14.5V9C14.5 7.895 13.605 7 12.5 7C11.395 7 10.5 7.895 10.5 9ZM12.5 8C13.052 8 13.5 8.448 13.5 9V10H11.5V9C11.5 8.448 11.948 8 12.5 8ZM12.5 13.75C12.086 13.75 11.75 13.414 11.75 13C11.75 12.586 12.086 12.25 12.5 12.25C12.914 12.25 13.25 12.586 13.25 13C13.25 13.414 12.914 13.75 12.5 13.75Z" fill="#c5c5c5"/>
</g>
<defs>
<clipPath id="clip0_9202_349985">
<rect width="16" height="16" fill="white"/>
</clipPath>
</defs>
</svg>
