<svg width="16" height="16" viewBox="0 0 16 16" fill="none" xmlns="http://www.w3.org/2000/svg">
<g clip-path="url(#clip0_9202_349994)">
<mask id="mask0_9202_349994" style="mask-type:alpha" maskUnits="userSpaceOnUse" x="0" y="0" width="16" height="16">
<path fill-rule="evenodd" clip-rule="evenodd" d="M0 0H16V12.5208L13.2935 7.10787C13.1276 6.77505 12.8723 6.49507 12.5561 6.29937C12.2399 6.10367 11.8754 6 11.5035 6C11.1317 6 10.7672 6.10367 10.451 6.29937C10.1348 6.49507 9.87938 6.77505 9.71351 7.10787L6.21351 14.1079C5.98115 14.5695 5.93654 15.1033 6.08904 15.5971C6.1327 15.7385 6.19155 15.8735 6.26392 16H0V0Z" fill="#D9D9D9"/>
</mask>
<g mask="url(#mask0_9202_349994)">
<path d="M13.5 3H6.5C5.673 3 5 3.673 5 4.5V7H4C4 6.449 3.552 6 3 6H2C1.448 6 1 6.449 1 7V8C1 8.551 1.448 9 2 9H3C3.552 9 4 8.551 4 8H5V10.5C5 11.327 5.673 12 6.5 12H13.5C14.327 12 15 11.327 15 10.5V4.5C15 3.673 14.327 3 13.5 3ZM2 8V7H3V8H2ZM14 10.5C14 10.776 13.775 11 13.5 11H6.5C6.225 11 6 10.776 6 10.5V4.5C6 4.224 6.225 4 6.5 4H13.5C13.775 4 14 4.224 14 4.5V10.5ZM9 6H8C7.448 6 7 6.449 7 7V8C7 8.551 7.448 9 8 9H9C9.552 9 10 8.551 10 8V7C10 6.449 9.552 6 9 6ZM8 8V7H9V8H8ZM13 5.835V6.165C13 6.625 12.625 7 12.165 7H11.835C11.375 7 11 6.625 11 6.165V5.835C11 5.375 11.375 5 11.835 5H12.165C12.625 5 13 5.375 13 5.835ZM13 8.835V9.165C13 9.625 12.625 10 12.165 10H11.835C11.375 10 11 9.625 11 9.165V8.835C11 8.375 11.375 8 11.835 8H12.165C12.625 8 13 8.375 13 8.835Z" fill="#424242"/>
</g>
<g clip-path="url(#clip1_9202_349994)">
<path fill-rule="evenodd" clip-rule="evenodd" d="M12.3931 7.55201L15.8931 14.552C15.9694 14.7044 16.0056 14.8738 15.9981 15.044C15.9906 15.2143 15.9397 15.3799 15.8502 15.5249C15.7607 15.67 15.6357 15.7898 15.4869 15.8729C15.3381 15.9561 15.1705 15.9998 15.0001 16H8.00006C7.8292 16.0007 7.66101 15.9576 7.51154 15.8748C7.36207 15.792 7.23631 15.6723 7.14625 15.5271C7.0562 15.3818 7.00486 15.216 6.99712 15.0453C6.98938 14.8746 7.02551 14.7048 7.10206 14.552L10.6021 7.55201C10.6849 7.38534 10.8126 7.24509 10.9708 7.14705C11.129 7.04901 11.3114 6.99707 11.4976 6.99707C11.6837 6.99707 11.8661 7.04901 12.0243 7.14705C12.1825 7.24509 12.3102 7.38534 12.3931 7.55201ZM12 12.495V9.495C12 9.36239 11.9473 9.23521 11.8536 9.14144C11.7598 9.04767 11.6326 8.995 11.5 8.995C11.3674 8.995 11.2402 9.04767 11.1464 9.14144C11.0527 9.23521 11 9.36239 11 9.495V12.495C11 12.6276 11.0527 12.7548 11.1464 12.8485C11.2402 12.9423 11.3674 12.995 11.5 12.995C11.6326 12.995 11.7598 12.9423 11.8536 12.8485C11.9473 12.7548 12 12.6276 12 12.495ZM11.2222 14.0843C11.3044 14.0293 11.4011 14 11.5 14C11.6326 14 11.7598 14.0527 11.8536 14.1464C11.9473 14.2402 12 14.3674 12 14.5C12 14.5989 11.9707 14.6956 11.9157 14.7778C11.8608 14.86 11.7827 14.9241 11.6913 14.9619C11.6 14.9998 11.4994 15.0097 11.4025 14.9904C11.3055 14.9711 11.2164 14.9235 11.1464 14.8535C11.0765 14.7836 11.0289 14.6945 11.0096 14.5975C10.9903 14.5006 11.0002 14.4 11.0381 14.3087C11.0759 14.2173 11.14 14.1392 11.2222 14.0843Z" fill="#424242"/>
</g>
</g>
<defs>
<clipPath id="clip0_9202_349994">
<rect width="16" height="16" fill="white"/>
</clipPath>
<clipPath id="clip1_9202_349994">
<rect width="16" height="16" fill="white"/>
</clipPath>
</defs>
</svg>
