<svg id="Layer_1" data-name="Layer 1" xmlns="http://www.w3.org/2000/svg" viewBox="0 0 16 16"><defs><style>.cls-1{fill:none;}.cls-2{fill:#f48771;}</style></defs><g id="canvas"><path class="cls-1" d="M16,16H0V0H16Z"/></g><path class="cls-2" d="M15.834,4.647a.078.078,0,0,0,0-.11.082.082,0,0,0-.063-.022h-.04A3.818,3.818,0,0,0,12,7c0-2.5,1-5.5,3.776-6.856C15.847.109,15.808,0,15.731,0c-3.276.027-4.322.45-5.6,1.408C8,3,8,5.5,7,5.5c-1.5,0-1-2,0-3A8.332,8.332,0,0,0,2,10a6,6,0,0,0,6,6,6.485,6.485,0,0,0,2.189-.389A6,6,0,0,0,14,9.908,7.2,7.2,0,0,1,15.834,4.647ZM13,9.9a5.019,5.019,0,0,1-3.148,4.769A5.494,5.494,0,0,1,8,15a5.006,5.006,0,0,1-5-5A7.1,7.1,0,0,1,5.094,5a2.015,2.015,0,0,0,.116.388A1.826,1.826,0,0,0,7,6.5c1.1,0,1.552-.972,1.954-1.83a6.042,6.042,0,0,1,1.771-2.46,4.8,4.8,0,0,1,2.15-.99A9.144,9.144,0,0,0,11,7a1,1,0,0,0,.84.987A.951.951,0,0,0,12,8a1,1,0,0,0,.948-.684,2.415,2.415,0,0,1,.7-1.044A10.12,10.12,0,0,0,13,9.9Z"/><path class="cls-2" d="M9.486,6.548A2.051,2.051,0,0,1,7.524,8H7.5A2.7,2.7,0,0,0,5,10.5,2.5,2.5,0,0,0,7.5,13a2.962,2.962,0,0,0,2.757-3.005C10.257,8.713,9.2,7.614,9.486,6.548ZM7.467,12A1.5,1.5,0,0,1,6,10.535,1.7,1.7,0,0,1,7.524,9a3.056,3.056,0,0,0,1.36-.316.16.16,0,0,0,.01.023,3.692,3.692,0,0,1,.364,1.3A1.962,1.962,0,0,1,7.467,12Z"/><path class="cls-2" d="M9.5,6.5c-.005.016-.01.032-.014.048,0-.016.01-.032.014-.048Z"/></svg>