<svg width="16" height="16" viewBox="0 0 16 16" fill="none" xmlns="http://www.w3.org/2000/svg">
<g clip-path="url(#clip0_9202_350014)">
<mask id="mask0_9202_350014" style="mask-type:alpha" maskUnits="userSpaceOnUse" x="0" y="0" width="16" height="16">
<path fill-rule="evenodd" clip-rule="evenodd" d="M0 0H16V12.5208L13.2935 7.10787C13.1276 6.77505 12.8723 6.49507 12.5561 6.29937C12.2399 6.10367 11.8754 6 11.5035 6C11.1317 6 10.7672 6.10367 10.451 6.29937C10.1348 6.49507 9.87938 6.77505 9.71351 7.10787L6.21351 14.1079C5.98115 14.5695 5.93654 15.1033 6.08904 15.5971C6.1327 15.7385 6.19155 15.8735 6.26392 16H0V0Z" fill="#D9D9D9"/>
</mask>
<g mask="url(#mask0_9202_350014)">
<path d="M1 3.24941C1 2.55938 1.55917 2 2.24895 2H2.74852C3.4383 2 3.99747 2.55938 3.99747 3.24941V12.745C3.99747 13.435 3.4383 13.9944 2.74852 13.9944H2.24895C1.55917 13.9944 1 13.435 1 12.745V3.24941ZM2.24895 2.99953C2.11099 2.99953 1.99916 3.11141 1.99916 3.24941V12.745C1.99916 12.883 2.11099 12.9948 2.24895 12.9948H2.74852C2.88648 12.9948 2.99831 12.883 2.99831 12.745V3.24941C2.99831 3.11141 2.88648 2.99953 2.74852 2.99953H2.24895ZM4.99663 3.24941C4.99663 2.55938 5.5558 2 6.24557 2H6.74515C7.43492 2 7.9941 2.55938 7.9941 3.24941V12.745C7.9941 13.435 7.43492 13.9944 6.74515 13.9944H6.24557C5.5558 13.9944 4.99663 13.435 4.99663 12.745V3.24941ZM6.24557 2.99953C6.10762 2.99953 5.99578 3.11141 5.99578 3.24941V12.745C5.99578 12.883 6.10762 12.9948 6.24557 12.9948H6.74515C6.88311 12.9948 6.99494 12.883 6.99494 12.745V3.24941C6.99494 3.11141 6.88311 2.99953 6.74515 2.99953H6.24557ZM11.9723 4.77682C11.7231 4.15733 11.0311 3.84331 10.4011 4.06385L9.81888 4.26764C9.14658 4.50297 8.80684 5.25222 9.07268 5.91326L12.0098 13.2166C12.2589 13.8361 12.9509 14.1502 13.581 13.9296L14.1632 13.7258C14.8355 13.4904 15.1752 12.7412 14.9093 12.0802L11.9723 4.77682ZM10.7311 5.00729C10.8571 4.96318 10.9955 5.02598 11.0453 5.14988L13.9824 12.4532C14.0356 12.5854 13.9676 12.7353 13.8332 12.7823L13.251 12.9862C13.1249 13.0303 12.9865 12.9675 12.9367 12.8436L9.99964 5.5402C9.94647 5.40799 10.0144 5.25815 10.1489 5.21108L10.7311 5.00729Z" fill="#424242"/>
</g>
<g clip-path="url(#clip1_9202_350014)">
<path fill-rule="evenodd" clip-rule="evenodd" d="M12.3931 7.55201L15.8931 14.552C15.9694 14.7044 16.0056 14.8738 15.9981 15.044C15.9906 15.2143 15.9397 15.3799 15.8502 15.5249C15.7607 15.67 15.6357 15.7898 15.4869 15.8729C15.3381 15.9561 15.1705 15.9998 15.0001 16H8.00006C7.8292 16.0007 7.66101 15.9576 7.51154 15.8748C7.36207 15.792 7.23631 15.6723 7.14625 15.5271C7.0562 15.3818 7.00486 15.216 6.99712 15.0453C6.98938 14.8746 7.02551 14.7048 7.10206 14.552L10.6021 7.55201C10.6849 7.38534 10.8126 7.24509 10.9708 7.14705C11.129 7.04901 11.3114 6.99707 11.4976 6.99707C11.6837 6.99707 11.8661 7.04901 12.0243 7.14705C12.1825 7.24509 12.3102 7.38534 12.3931 7.55201ZM12 12.495V9.495C12 9.36239 11.9473 9.23521 11.8536 9.14144C11.7598 9.04767 11.6326 8.995 11.5 8.995C11.3674 8.995 11.2402 9.04767 11.1464 9.14144C11.0527 9.23521 11 9.36239 11 9.495V12.495C11 12.6276 11.0527 12.7548 11.1464 12.8485C11.2402 12.9423 11.3674 12.995 11.5 12.995C11.6326 12.995 11.7598 12.9423 11.8536 12.8485C11.9473 12.7548 12 12.6276 12 12.495ZM11.2222 14.0843C11.3044 14.0293 11.4011 14 11.5 14C11.6326 14 11.7598 14.0527 11.8536 14.1464C11.9473 14.2402 12 14.3674 12 14.5C12 14.5989 11.9707 14.6956 11.9157 14.7778C11.8608 14.86 11.7827 14.9241 11.6913 14.9619C11.6 14.9998 11.4994 15.0097 11.4025 14.9904C11.3055 14.9711 11.2164 14.9235 11.1464 14.8535C11.0765 14.7836 11.0289 14.6945 11.0096 14.5975C10.9903 14.5006 11.0002 14.4 11.0381 14.3087C11.0759 14.2173 11.14 14.1392 11.2222 14.0843Z" fill="#424242"/>
</g>
</g>
<defs>
<clipPath id="clip0_9202_350014">
<rect width="16" height="16" fill="white"/>
</clipPath>
<clipPath id="clip1_9202_350014">
<rect width="16" height="16" fill="white"/>
</clipPath>
</defs>
</svg>
