<svg width="16" height="16" viewBox="0 0 16 16" fill="none" xmlns="http://www.w3.org/2000/svg">
<g clip-path="url(#clip0_9202_350088)">
<mask id="mask0_9202_350088" style="mask-type:alpha" maskUnits="userSpaceOnUse" x="0" y="0" width="16" height="16">
<path fill-rule="evenodd" clip-rule="evenodd" d="M0 0H16V8.33692C15.0046 6.92345 13.3602 6 11.5 6C8.46243 6 6 8.46243 6 11.5C6 13.3602 6.92345 15.0046 8.33692 16H0V0ZM14.6631 16C15.1819 15.6347 15.6347 15.1819 16 14.6631V16H14.6631Z" fill="#D9D9D9"/>
</mask>
<g mask="url(#mask0_9202_350088)">
<path fill-rule="evenodd" clip-rule="evenodd" d="M3.75 2.5C3.75 3.19 3.19 3.75 2.5 3.75C1.81 3.75 1.25 3.19 1.25 2.5C1.25 1.81 1.81 1.25 2.5 1.25C3.19 1.25 3.75 1.81 3.75 2.5ZM15 7.3V11.7C15 13.523 13.523 15 11.7 15H7.3C5.477 15 4 13.523 4 11.7V7.3C4 5.477 5.477 4 7.3 4H11.7C13.523 4 15 5.477 15 7.3ZM8.375 7C8.375 6.241 7.759 5.625 7 5.625C6.241 5.625 5.625 6.241 5.625 7C5.625 7.759 6.241 8.375 7 8.375C7.759 8.375 8.375 7.759 8.375 7ZM13.75 11.5C13.75 10.257 12.743 9.25 11.5 9.25C10.257 9.25 9.25 10.257 9.25 11.5C9.25 12.743 10.257 13.75 11.5 13.75C12.743 13.75 13.75 12.743 13.75 11.5Z" fill="#424242"/>
</g>
<path fill-rule="evenodd" clip-rule="evenodd" d="M11.5 16C13.9853 16 16 13.9853 16 11.5C16 9.01472 13.9853 7 11.5 7C9.01472 7 7 9.01472 7 11.5C7 13.9853 9.01472 16 11.5 16ZM13.3536 10.3536C13.5488 10.1583 13.5488 9.84171 13.3536 9.64645C13.1583 9.45118 12.8417 9.45118 12.6464 9.64645L11.5 10.7929L10.3536 9.64645C10.1583 9.45118 9.84171 9.45118 9.64645 9.64645C9.45118 9.84171 9.45118 10.1583 9.64645 10.3536L10.7929 11.5L9.64645 12.6464C9.45118 12.8417 9.45118 13.1583 9.64645 13.3536C9.84171 13.5488 10.1583 13.5488 10.3536 13.3536L11.5 12.2071L12.6464 13.3536C12.8417 13.5488 13.1583 13.5488 13.3536 13.3536C13.5488 13.1583 13.5488 12.8417 13.3536 12.6464L12.2071 11.5L13.3536 10.3536Z" fill="#424242"/>
</g>
<defs>
<clipPath id="clip0_9202_350088">
<rect width="16" height="16" fill="white"/>
</clipPath>
</defs>
</svg>
