<svg width="16" height="16" viewBox="0 0 16 16" fill="none" xmlns="http://www.w3.org/2000/svg">
<path fill-rule="evenodd" clip-rule="evenodd" d="M3.75 2.5C3.75 3.19 3.19 3.75 2.5 3.75C1.81 3.75 1.25 3.19 1.25 2.5C1.25 1.81 1.81 1.25 2.5 1.25C3.19 1.25 3.75 1.81 3.75 2.5ZM15 7.3V11.7C15 13.523 13.523 15 11.7 15H7.3C5.477 15 4 13.523 4 11.7V7.3C4 5.477 5.477 4 7.3 4H11.7C13.523 4 15 5.477 15 7.3ZM8.375 7C8.375 6.241 7.759 5.625 7 5.625C6.241 5.625 5.625 6.241 5.625 7C5.625 7.759 6.241 8.375 7 8.375C7.759 8.375 8.375 7.759 8.375 7ZM13.75 11.5C13.75 10.257 12.743 9.25 11.5 9.25C10.257 9.25 9.25 10.257 9.25 11.5C9.25 12.743 10.257 13.75 11.5 13.75C12.743 13.75 13.75 12.743 13.75 11.5Z" fill="#c5c5c5"/>
</svg>
