<svg width="16" height="16" viewBox="0 0 16 16" fill="none" xmlns="http://www.w3.org/2000/svg">
<g clip-path="url(#clip0_9202_350070)">
<mask id="mask0_9202_350070" style="mask-type:alpha" maskUnits="userSpaceOnUse" x="0" y="0" width="16" height="16">
<path fill-rule="evenodd" clip-rule="evenodd" d="M0 0H16V9.21981C15.8449 9.13653 15.6769 9.07463 15.5 9.038V9C15.5 7.346 14.154 6 12.5 6C10.846 6 9.5 7.346 9.5 9.001V9.039C8.645 9.215 8 9.983 8 10.901V15.1C8 15.4253 8.08119 15.7319 8.22414 16H0V0Z" fill="#D9D9D9"/>
</mask>
<g mask="url(#mask0_9202_350070)">
<path fill-rule="evenodd" clip-rule="evenodd" d="M3.75 2.5C3.75 3.19 3.19 3.75 2.5 3.75C1.81 3.75 1.25 3.19 1.25 2.5C1.25 1.81 1.81 1.25 2.5 1.25C3.19 1.25 3.75 1.81 3.75 2.5ZM15 7.3V11.7C15 13.523 13.523 15 11.7 15H7.3C5.477 15 4 13.523 4 11.7V7.3C4 5.477 5.477 4 7.3 4H11.7C13.523 4 15 5.477 15 7.3ZM8.375 7C8.375 6.241 7.759 5.625 7 5.625C6.241 5.625 5.625 6.241 5.625 7C5.625 7.759 6.241 8.375 7 8.375C7.759 8.375 8.375 7.759 8.375 7ZM13.75 11.5C13.75 10.257 12.743 9.25 11.5 9.25C10.257 9.25 9.25 10.257 9.25 11.5C9.25 12.743 10.257 13.75 11.5 13.75C12.743 13.75 13.75 12.743 13.75 11.5Z" fill="#424242"/>
</g>
<path d="M10.5 9V10H9.875C9.392 10 9 10.403 9 10.9V15.1C9 15.597 9.392 16 9.875 16H15.125C15.608 16 16 15.597 16 15.1V10.9C16 10.403 15.608 10 15.125 10H14.5V9C14.5 7.895 13.605 7 12.5 7C11.395 7 10.5 7.895 10.5 9ZM12.5 8C13.052 8 13.5 8.448 13.5 9V10H11.5V9C11.5 8.448 11.948 8 12.5 8ZM12.5 13.75C12.086 13.75 11.75 13.414 11.75 13C11.75 12.586 12.086 12.25 12.5 12.25C12.914 12.25 13.25 12.586 13.25 13C13.25 13.414 12.914 13.75 12.5 13.75Z" fill="#424242"/>
</g>
<defs>
<clipPath id="clip0_9202_350070">
<rect width="16" height="16" fill="white"/>
</clipPath>
</defs>
</svg>
