<svg width="16" height="16" viewBox="0 0 16 16" fill="none" xmlns="http://www.w3.org/2000/svg">
<g clip-path="url(#clip0_9202_350041)">
<mask id="mask0_9202_350041" style="mask-type:alpha" maskUnits="userSpaceOnUse" x="0" y="0" width="16" height="16">
<path fill-rule="evenodd" clip-rule="evenodd" d="M0 0H16V8.33692C15.0046 6.92345 13.3602 6 11.5 6C8.46243 6 6 8.46243 6 11.5C6 13.3602 6.92345 15.0046 8.33692 16H0V0ZM14.6631 16C15.1819 15.6347 15.6347 15.1819 16 14.6631V16H14.6631Z" fill="#D9D9D9"/>
</mask>
<g mask="url(#mask0_9202_350041)">
<path d="M6 3C6.551 3 7 3.449 7 4L7.001 4.5H7.015C6.53 4.861 6.176 5.387 6.051 6H6V4H4V5H3V4C3 3.449 3.449 3 4 3H6Z" fill="#424242"/>
<path d="M10.5 2H13.5C14.327 2 15 2.673 15 3.5V6.5C15 7.151 14.581 7.701 14 7.908V3.5C14 3.224 13.776 3 13.5 3H10.5C10.224 3 10 3.224 10 3.5V4H9V3.5C9 2.673 9.673 2 10.5 2Z" fill="#424242"/>
<path fill-rule="evenodd" clip-rule="evenodd" d="M7 6.5C7 5.673 7.673 5 8.5 5H11.5C12.327 5 13 5.673 13 6.5V9.5C13 10.327 12.327 11 11.5 11H8.5C7.673 11 7 10.327 7 9.5V8.5H5V9C5 9.552 4.551 10 4 10H2C1.449 10 1 9.552 1 9V7C1 6.449 1.449 6 2 6H4C4.551 6 5 6.449 5 7V7.5H7V6.5ZM2 7V9H4V7H2ZM11.499 10C11.775 10 11.999 9.775 11.999 9.5V6.5C11.999 6.224 11.775 6 11.499 6H8.499C8.223 6 7.999 6.224 7.999 6.5V9.5C7.999 9.775 8.223 10 8.499 10H11.499Z" fill="#424242"/>
</g>
<path fill-rule="evenodd" clip-rule="evenodd" d="M11.5 16C13.9853 16 16 13.9853 16 11.5C16 9.01472 13.9853 7 11.5 7C9.01472 7 7 9.01472 7 11.5C7 13.9853 9.01472 16 11.5 16ZM13.3536 10.3536C13.5488 10.1583 13.5488 9.84171 13.3536 9.64645C13.1583 9.45118 12.8417 9.45118 12.6464 9.64645L11.5 10.7929L10.3536 9.64645C10.1583 9.45118 9.84171 9.45118 9.64645 9.64645C9.45118 9.84171 9.45118 10.1583 9.64645 10.3536L10.7929 11.5L9.64645 12.6464C9.45118 12.8417 9.45118 13.1583 9.64645 13.3536C9.84171 13.5488 10.1583 13.5488 10.3536 13.3536L11.5 12.2071L12.6464 13.3536C12.8417 13.5488 13.1583 13.5488 13.3536 13.3536C13.5488 13.1583 13.5488 12.8417 13.3536 12.6464L12.2071 11.5L13.3536 10.3536Z" fill="#424242"/>
</g>
<defs>
<clipPath id="clip0_9202_350041">
<rect width="16" height="16" fill="white"/>
</clipPath>
</defs>
</svg>
