<svg width="16" height="16" viewBox="0 0 16 16" fill="none" xmlns="http://www.w3.org/2000/svg">
<path d="M6 3C6.551 3 7 3.449 7 4L7.001 4.5H7.015C6.53 4.861 6.176 5.387 6.051 6H6V4H4V5H3V4C3 3.449 3.449 3 4 3H6Z" fill="#c5c5c5"/>
<path d="M10.5 2H13.5C14.327 2 15 2.673 15 3.5V6.5C15 7.151 14.581 7.701 14 7.908V3.5C14 3.224 13.776 3 13.5 3H10.5C10.224 3 10 3.224 10 3.5V4H9V3.5C9 2.673 9.673 2 10.5 2Z" fill="#c5c5c5"/>
<path fill-rule="evenodd" clip-rule="evenodd" d="M7 6.5C7 5.673 7.673 5 8.5 5H11.5C12.327 5 13 5.673 13 6.5V9.5C13 10.327 12.327 11 11.5 11H8.5C7.673 11 7 10.327 7 9.5V8.5H5V9C5 9.552 4.551 10 4 10H2C1.449 10 1 9.552 1 9V7C1 6.449 1.449 6 2 6H4C4.551 6 5 6.449 5 7V7.5H7V6.5ZM2 7V9H4V7H2ZM11.499 10C11.775 10 11.999 9.775 11.999 9.5V6.5C11.999 6.224 11.775 6 11.499 6H8.499C8.223 6 7.999 6.224 7.999 6.5V9.5C7.999 9.775 8.223 10 8.499 10H11.499Z" fill="#c5c5c5"/>
</svg>
