<svg width="16" height="16" viewBox="0 0 16 16" fill="none" xmlns="http://www.w3.org/2000/svg">
<g clip-path="url(#clip0_9202_350032)">
<mask id="mask0_9202_350032" style="mask-type:alpha" maskUnits="userSpaceOnUse" x="0" y="0" width="16" height="16">
<path fill-rule="evenodd" clip-rule="evenodd" d="M0 0H16V12.5208L13.2935 7.10787C13.1276 6.77505 12.8723 6.49507 12.5561 6.29937C12.2399 6.10367 11.8754 6 11.5035 6C11.1317 6 10.7672 6.10367 10.451 6.29937C10.1348 6.49507 9.87938 6.77505 9.71351 7.10787L6.21351 14.1079C5.98115 14.5695 5.93654 15.1033 6.08904 15.5971C6.1327 15.7385 6.19155 15.8735 6.26392 16H0V0Z" fill="#D9D9D9"/>
</mask>
<g mask="url(#mask0_9202_350032)">
<path d="M6 3C6.551 3 7 3.449 7 4L7.001 4.5H7.015C6.53 4.861 6.176 5.387 6.051 6H6V4H4V5H3V4C3 3.449 3.449 3 4 3H6Z" fill="#424242"/>
<path d="M10.5 2H13.5C14.327 2 15 2.673 15 3.5V6.5C15 7.151 14.581 7.701 14 7.908V3.5C14 3.224 13.776 3 13.5 3H10.5C10.224 3 10 3.224 10 3.5V4H9V3.5C9 2.673 9.673 2 10.5 2Z" fill="#424242"/>
<path fill-rule="evenodd" clip-rule="evenodd" d="M7 6.5C7 5.673 7.673 5 8.5 5H11.5C12.327 5 13 5.673 13 6.5V9.5C13 10.327 12.327 11 11.5 11H8.5C7.673 11 7 10.327 7 9.5V8.5H5V9C5 9.552 4.551 10 4 10H2C1.449 10 1 9.552 1 9V7C1 6.449 1.449 6 2 6H4C4.551 6 5 6.449 5 7V7.5H7V6.5ZM2 7V9H4V7H2ZM11.499 10C11.775 10 11.999 9.775 11.999 9.5V6.5C11.999 6.224 11.775 6 11.499 6H8.499C8.223 6 7.999 6.224 7.999 6.5V9.5C7.999 9.775 8.223 10 8.499 10H11.499Z" fill="#424242"/>
</g>
<g clip-path="url(#clip1_9202_350032)">
<path fill-rule="evenodd" clip-rule="evenodd" d="M12.3931 7.55201L15.8931 14.552C15.9694 14.7044 16.0056 14.8738 15.9981 15.044C15.9906 15.2143 15.9397 15.3799 15.8502 15.5249C15.7607 15.67 15.6357 15.7898 15.4869 15.8729C15.3381 15.9561 15.1705 15.9998 15.0001 16H8.00006C7.8292 16.0007 7.66101 15.9576 7.51154 15.8748C7.36207 15.792 7.23631 15.6723 7.14625 15.5271C7.0562 15.3818 7.00486 15.216 6.99712 15.0453C6.98938 14.8746 7.02551 14.7048 7.10206 14.552L10.6021 7.55201C10.6849 7.38534 10.8126 7.24509 10.9708 7.14705C11.129 7.04901 11.3114 6.99707 11.4976 6.99707C11.6837 6.99707 11.8661 7.04901 12.0243 7.14705C12.1825 7.24509 12.3102 7.38534 12.3931 7.55201ZM12 12.495V9.495C12 9.36239 11.9473 9.23521 11.8536 9.14144C11.7598 9.04767 11.6326 8.995 11.5 8.995C11.3674 8.995 11.2402 9.04767 11.1464 9.14144C11.0527 9.23521 11 9.36239 11 9.495V12.495C11 12.6276 11.0527 12.7548 11.1464 12.8485C11.2402 12.9423 11.3674 12.995 11.5 12.995C11.6326 12.995 11.7598 12.9423 11.8536 12.8485C11.9473 12.7548 12 12.6276 12 12.495ZM11.2222 14.0843C11.3044 14.0293 11.4011 14 11.5 14C11.6326 14 11.7598 14.0527 11.8536 14.1464C11.9473 14.2402 12 14.3674 12 14.5C12 14.5989 11.9707 14.6956 11.9157 14.7778C11.8608 14.86 11.7827 14.9241 11.6913 14.9619C11.6 14.9998 11.4994 15.0097 11.4025 14.9904C11.3055 14.9711 11.2164 14.9235 11.1464 14.8535C11.0765 14.7836 11.0289 14.6945 11.0096 14.5975C10.9903 14.5006 11.0002 14.4 11.0381 14.3087C11.0759 14.2173 11.14 14.1392 11.2222 14.0843Z" fill="#424242"/>
</g>
</g>
<defs>
<clipPath id="clip0_9202_350032">
<rect width="16" height="16" fill="white"/>
</clipPath>
<clipPath id="clip1_9202_350032">
<rect width="16" height="16" fill="white"/>
</clipPath>
</defs>
</svg>
