<svg width="16" height="16" viewBox="0 0 16 16" fill="none" xmlns="http://www.w3.org/2000/svg">
<g clip-path="url(#clip0_9202_350050)">
<path fill-rule="evenodd" clip-rule="evenodd" d="M8 5.5C8 4.67157 8.67157 4 9.5 4H13.5C14.3284 4 15 4.67157 15 5.5V9.5C15 10.3284 14.3284 11 13.5 11H9.5C8.67157 11 8 10.3284 8 9.5V8H6V9C6 9.55228 5.55228 10 5 10H2C1.44772 10 1 9.55228 1 9V6C1 5.44772 1.44772 5 2 5H5C5.55228 5 6 5.44772 6 6V7H8V5.5ZM9.5 5C9.22386 5 9 5.22386 9 5.5V9.5C9 9.77614 9.22386 10 9.5 10H13.5C13.7761 10 14 9.77614 14 9.5V5.5C14 5.22386 13.7761 5 13.5 5H9.5ZM2 6H5V9H2V6Z" fill="#424242"/>
</g>
<defs>
<clipPath id="clip0_9202_350050">
<rect width="16" height="16" fill="white"/>
</clipPath>
</defs>
</svg>
