<svg width="16" height="16" viewBox="0 0 16 16" fill="none" xmlns="http://www.w3.org/2000/svg">
<g clip-path="url(#clip0_9202_350052)">
<mask id="mask0_9202_350052" style="mask-type:alpha" maskUnits="userSpaceOnUse" x="0" y="0" width="16" height="16">
<path fill-rule="evenodd" clip-rule="evenodd" d="M0 0H16V9.21981C15.8449 9.13653 15.6769 9.07463 15.5 9.038V9C15.5 7.346 14.154 6 12.5 6C10.846 6 9.5 7.346 9.5 9.001V9.039C8.645 9.215 8 9.983 8 10.901V15.1C8 15.4253 8.08119 15.7319 8.22414 16H0V0Z" fill="#D9D9D9"/>
</mask>
<g mask="url(#mask0_9202_350052)">
<path fill-rule="evenodd" clip-rule="evenodd" d="M8 5.5C8 4.67157 8.67157 4 9.5 4H13.5C14.3284 4 15 4.67157 15 5.5V9.5C15 10.3284 14.3284 11 13.5 11H9.5C8.67157 11 8 10.3284 8 9.5V8H6V9C6 9.55228 5.55228 10 5 10H2C1.44772 10 1 9.55228 1 9V6C1 5.44772 1.44772 5 2 5H5C5.55228 5 6 5.44772 6 6V7H8V5.5ZM9.5 5C9.22386 5 9 5.22386 9 5.5V9.5C9 9.77614 9.22386 10 9.5 10H13.5C13.7761 10 14 9.77614 14 9.5V5.5C14 5.22386 13.7761 5 13.5 5H9.5ZM2 6H5V9H2V6Z" fill="#c5c5c5"/>
</g>
<path d="M10.5 9V10H9.875C9.392 10 9 10.403 9 10.9V15.1C9 15.597 9.392 16 9.875 16H15.125C15.608 16 16 15.597 16 15.1V10.9C16 10.403 15.608 10 15.125 10H14.5V9C14.5 7.895 13.605 7 12.5 7C11.395 7 10.5 7.895 10.5 9ZM12.5 8C13.052 8 13.5 8.448 13.5 9V10H11.5V9C11.5 8.448 11.948 8 12.5 8ZM12.5 13.75C12.086 13.75 11.75 13.414 11.75 13C11.75 12.586 12.086 12.25 12.5 12.25C12.914 12.25 13.25 12.586 13.25 13C13.25 13.414 12.914 13.75 12.5 13.75Z" fill="#c5c5c5"/>
</g>
<defs>
<clipPath id="clip0_9202_350052">
<rect width="16" height="16" fill="white"/>
</clipPath>
</defs>
</svg>
