<svg width="16" height="16" viewBox="0 0 16 16" fill="none" xmlns="http://www.w3.org/2000/svg">
<g clip-path="url(#clip0_9202_350023)">
<mask id="mask0_9202_350023" style="mask-type:alpha" maskUnits="userSpaceOnUse" x="0" y="0" width="16" height="16">
<path fill-rule="evenodd" clip-rule="evenodd" d="M0 0H16V9.21981C15.8449 9.13653 15.6769 9.07463 15.5 9.038V9C15.5 7.346 14.154 6 12.5 6C10.846 6 9.5 7.346 9.5 9.001V9.039C8.645 9.215 8 9.983 8 10.901V15.1C8 15.4253 8.08119 15.7319 8.22414 16H0V0Z" fill="#D9D9D9"/>
</mask>
<g mask="url(#mask0_9202_350023)">
<path d="M6 3C6.551 3 7 3.449 7 4L7.001 4.5H7.015C6.53 4.861 6.176 5.387 6.051 6H6V4H4V5H3V4C3 3.449 3.449 3 4 3H6Z" fill="#424242"/>
<path d="M10.5 2H13.5C14.327 2 15 2.673 15 3.5V6.5C15 7.151 14.581 7.701 14 7.908V3.5C14 3.224 13.776 3 13.5 3H10.5C10.224 3 10 3.224 10 3.5V4H9V3.5C9 2.673 9.673 2 10.5 2Z" fill="#424242"/>
<path fill-rule="evenodd" clip-rule="evenodd" d="M7 6.5C7 5.673 7.673 5 8.5 5H11.5C12.327 5 13 5.673 13 6.5V9.5C13 10.327 12.327 11 11.5 11H8.5C7.673 11 7 10.327 7 9.5V8.5H5V9C5 9.552 4.551 10 4 10H2C1.449 10 1 9.552 1 9V7C1 6.449 1.449 6 2 6H4C4.551 6 5 6.449 5 7V7.5H7V6.5ZM2 7V9H4V7H2ZM11.499 10C11.775 10 11.999 9.775 11.999 9.5V6.5C11.999 6.224 11.775 6 11.499 6H8.499C8.223 6 7.999 6.224 7.999 6.5V9.5C7.999 9.775 8.223 10 8.499 10H11.499Z" fill="#424242"/>
</g>
<path d="M10.5 9V10H9.875C9.392 10 9 10.403 9 10.9V15.1C9 15.597 9.392 16 9.875 16H15.125C15.608 16 16 15.597 16 15.1V10.9C16 10.403 15.608 10 15.125 10H14.5V9C14.5 7.895 13.605 7 12.5 7C11.395 7 10.5 7.895 10.5 9ZM12.5 8C13.052 8 13.5 8.448 13.5 9V10H11.5V9C11.5 8.448 11.948 8 12.5 8ZM12.5 13.75C12.086 13.75 11.75 13.414 11.75 13C11.75 12.586 12.086 12.25 12.5 12.25C12.914 12.25 13.25 12.586 13.25 13C13.25 13.414 12.914 13.75 12.5 13.75Z" fill="#424242"/>
</g>
<defs>
<clipPath id="clip0_9202_350023">
<rect width="16" height="16" fill="white"/>
</clipPath>
</defs>
</svg>
