<svg width="16" height="16" viewBox="0 0 16 16" fill="none" xmlns="http://www.w3.org/2000/svg">
<g clip-path="url(#clip0_9202_350201)">
<path fill-rule="evenodd" clip-rule="evenodd" d="M8.00006 4.08167L6.83711 2.40697C6.73757 2.28013 6.61049 2.17757 6.46549 2.10705C6.32049 2.03652 6.16136 1.99988 6.00011 1.99988C5.83887 1.99988 5.67974 2.03652 5.53474 2.10705C5.38974 2.17757 5.26266 2.28013 5.16312 2.40697L1.67611 7.42797C1.56118 7.59172 1.49951 7.78691 1.49951 7.98697C1.49951 8.18703 1.56118 8.38222 1.67611 8.54597L5.16212 13.566C5.25664 13.7001 5.38202 13.8095 5.52768 13.8851C5.67335 13.9606 5.83503 14 5.99911 14C6.1632 14 6.32488 13.9606 6.47055 13.8851C6.61621 13.8095 6.74159 13.7001 6.83611 13.566L7.99917 11.8913L9.16211 13.566C9.25664 13.7001 9.38202 13.8095 9.52768 13.8851C9.67335 13.9606 9.83503 14 9.99911 14C10.1632 14 10.3249 13.9606 10.4705 13.8851C10.6162 13.8095 10.7416 13.7001 10.8361 13.566L14.3231 8.54497C14.4381 8.38122 14.4997 8.18603 14.4997 7.98597C14.4997 7.78591 14.4381 7.59072 14.3231 7.42697L10.8371 2.40697C10.7376 2.28013 10.6105 2.17757 10.4655 2.10705C10.3205 2.03652 10.1614 1.99988 10.0001 1.99988C9.83887 1.99988 9.67974 2.03652 9.53474 2.10705C9.38974 2.17757 9.26266 2.28013 9.16312 2.40697L8.00006 4.08167ZM8.61396 4.9657L10.3231 7.42697C10.4381 7.59072 10.4997 7.78591 10.4997 7.98597C10.4997 8.18603 10.4381 8.38122 10.3231 8.54497L8.60917 11.0129L10.0001 13L13.5001 7.97597L10.0001 2.97597L8.61396 4.9657ZM8.0049 5.83995L9.50011 7.97597L7.99533 10.136L6.50011 7.99997L8.0049 5.83995ZM7.38951 4.96082L5.67612 7.42797C5.56118 7.59172 5.49951 7.78691 5.49951 7.98697C5.49951 8.18703 5.56118 8.38222 5.67612 8.54597L7.38682 11.0095L6.00011 13L2.50011 7.99997L6.00011 2.97597L7.38951 4.96082Z" fill="#424242"/>
</g>
<defs>
<clipPath id="clip0_9202_350201">
<rect width="16" height="16" fill="white"/>
</clipPath>
</defs>
</svg>
