<svg width="16" height="16" viewBox="0 0 16 16" fill="none" xmlns="http://www.w3.org/2000/svg">
<g clip-path="url(#clip0_9202_350203)">
<path opacity="0.25" d="M3.01045 5.99003C2.96024 5.98838 2.91 5.99173 2.86045 6.00003C2.81028 5.99337 2.75929 5.99677 2.71045 6.01003H3.41045C3.28045 6.00003 3.14045 5.99003 3.01045 5.99003Z" fill="#c5c5c5"/>
<path d="M3.00048 6H1.99048V6.01H3.00048V6Z" fill="#c5c5c5"/>
<mask id="mask0_9202_350203" style="mask-type:alpha" maskUnits="userSpaceOnUse" x="0" y="0" width="16" height="16">
<path fill-rule="evenodd" clip-rule="evenodd" d="M16 0H0V8.42253C0.0404609 7.63138 0.697004 7 1.49802 7H5.50002C6.32702 7 7.00002 7.673 7.00002 8.5C7.00002 9.152 6.58202 9.708 6.00002 9.914V11.077L7.67702 13.749C7.73102 13.818 7.78902 13.933 7.83102 14.063C7.94102 14.319 7.99902 14.598 7.99902 14.879C7.99902 15.2886 7.88136 15.6737 7.67752 16H16V0ZM0 12.6699L0.998024 11.075V9.914C0.439224 9.71621 0.0316092 9.19577 0 8.5775V12.6699Z" fill="#D9D9D9"/>
</mask>
<g mask="url(#mask0_9202_350203)">
<path d="M4.5 2C3.11929 2 2 3.11929 2 4.5V11.5C2 12.8807 3.11929 14 4.5 14H11.5C12.8807 14 14 12.8807 14 11.5V4.5C14 3.11929 12.8807 2 11.5 2H4.5ZM13 5H3V4.5C3 3.67157 3.67157 3 4.5 3H11.5C12.3284 3 13 3.67157 13 4.5V5ZM3 6H13V11.5C13 12.3284 12.3284 13 11.5 13H4.5C3.67157 13 3 12.3284 3 11.5V6Z" fill="#c5c5c5"/>
</g>
<path d="M0.11 14.41C0.12 14.36 0.14 14.32 0.17 14.28L0.973 13H6.027L6.83 14.28C6.86 14.32 6.88 14.36 6.89 14.41C6.96 14.55 7 14.71 7 14.88C7 15.47 6.55 15.95 5.98 15.99C5.95 16 5.91 16 5.88 16H1.12C1.09 16 1.05 16 1.02 15.99C0.45 15.95 0 15.47 0 14.88C0 14.71 0.0399997 14.55 0.11 14.41V14.41Z" fill="#c5c5c5"/>
<path d="M5.5 9H5V11.2C5 11.3 5.03 11.4 5.08 11.49L5.4 12H1.6L1.92 11.49C1.97 11.4 2 11.3 2 11.2V9H1.5C1.224 9 1 8.776 1 8.5C1 8.224 1.224 8 1.5 8H5.5C5.776 8 6 8.224 6 8.5C6 8.776 5.776 9 5.5 9Z" fill="#c5c5c5"/>
</g>
<defs>
<clipPath id="clip0_9202_350203">
<rect width="16" height="16" fill="white"/>
</clipPath>
</defs>
</svg>
