<svg width="16" height="16" viewBox="0 0 16 16" fill="none" xmlns="http://www.w3.org/2000/svg">
<path d="M8 3C7.0111 3 6.0444 3.29324 5.22215 3.84265C4.39991 4.39206 3.75904 5.17295 3.3806 6.08658C3.00217 7.00021 2.90315 8.00555 3.09608 8.97545C3.289 9.94536 3.76521 10.8363 4.46447 11.5355C5.16373 12.2348 6.05465 12.711 7.02455 12.9039C7.99446 13.0969 8.99979 12.9978 9.91342 12.6194C10.827 12.241 11.6079 11.6001 12.1573 10.7779C12.7068 9.95561 13 8.98891 13 8C12.9984 6.6744 12.4711 5.40356 11.5338 4.46622C10.5964 3.52888 9.3256 3.00159 8 3V3ZM8 12C7.82 12 7.405 11.309 7.17 10H8.83C8.6 11.309 8.18 12 8 12ZM7.041 9C7.016 8.689 7 8.358 7 8C7 7.642 7.016 7.311 7.041 7H8.959C8.984 7.311 9 7.642 9 8C9 8.358 8.984 8.689 8.959 9H7.041ZM4 8C4.00423 7.66195 4.05195 7.32586 4.142 7H6.037C6.013 7.332 6 7.668 6 8C6 8.332 6.013 8.668 6.037 9H4.142C4.05195 8.67414 4.00423 8.33805 4 8V8ZM8 4C8.18 4 8.6 4.691 8.83 6H7.17C7.405 4.691 7.82 4 8 4ZM9.963 7H11.863C11.9514 7.32608 11.9974 7.66217 12 8C11.9958 8.33805 11.9481 8.67414 11.858 9H9.958C9.982 8.668 9.995 8.332 9.995 8C9.995 7.668 9.987 7.332 9.963 7ZM11.444 6H9.844C9.7596 5.40437 9.6045 4.82092 9.382 4.262C10.2498 4.58519 10.9786 5.19945 11.444 6V6ZM6.613 4.262C6.3905 4.82092 6.23541 5.40437 6.151 6H4.556C5.02019 5.20034 5.74707 4.58618 6.613 4.262V4.262ZM4.556 10H6.151C6.23541 10.5956 6.3905 11.1791 6.613 11.738C5.74707 11.4138 5.02019 10.7997 4.556 10V10ZM9.387 11.738C9.60951 11.1791 9.7646 10.5956 9.849 10H11.449C10.9836 10.8005 10.2548 11.4148 9.387 11.738Z" fill="#424242"/>
</svg>
