<svg width="16" height="16" viewBox="0 0 16 16" fill="none" xmlns="http://www.w3.org/2000/svg">
<g clip-path="url(#clip0_9202_350214)">
<mask id="mask0_9202_350214" style="mask-type:alpha" maskUnits="userSpaceOnUse" x="0" y="0" width="16" height="16">
<path fill-rule="evenodd" clip-rule="evenodd" d="M0 0H16V16H7.66447C9.07716 15.0045 10 13.3605 10 11.501C10 8.46341 7.53757 6.00098 4.5 6.00098C2.63984 6.00098 0.995367 6.92443 0 8.3379V0ZM0 14.6641C0.365013 15.1824 0.817315 15.6348 1.33553 16H0V14.6641Z" fill="#D9D9D9"/>
</mask>
<g mask="url(#mask0_9202_350214)">
<path d="M4.5 2C3.11929 2 2 3.11929 2 4.5V11.5C2 12.8807 3.11929 14 4.5 14H11.5C12.8807 14 14 12.8807 14 11.5V4.5C14 3.11929 12.8807 2 11.5 2H4.5ZM13 5H3V4.5C3 3.67157 3.67157 3 4.5 3H11.5C12.3284 3 13 3.67157 13 4.5V5ZM3 6H13V11.5C13 12.3284 12.3284 13 11.5 13H4.5C3.67157 13 3 12.3284 3 11.5V6Z" fill="#424242"/>
</g>
<path d="M5.98914 12.001H3.01114C3.03643 13.0231 3.2507 14.0318 3.64314 14.976C4.06514 15.901 4.44314 16.001 4.50014 16.001C4.55714 16.001 4.93514 15.901 5.35714 14.976C5.74958 14.0318 5.96386 13.0231 5.98914 12.001V12.001ZM8.97314 12.001C8.88126 12.8206 8.5659 13.5992 8.06152 14.2517C7.55714 14.9042 6.88314 15.4055 6.11314 15.701C6.67045 14.5459 6.9697 13.2833 6.99014 12.001H8.97314ZM8.97314 11.001H6.99014C6.9697 9.71862 6.67045 8.45608 6.11314 7.30098C6.88314 7.59641 7.55714 8.09777 8.06152 8.75029C8.5659 9.4028 8.88126 10.1814 8.97314 11.001ZM4.50014 7.00098C4.55714 7.00098 4.93514 7.10098 5.35714 8.02598C5.74958 8.97015 5.96386 9.97881 5.98914 11.001H3.01114C3.03643 9.97881 3.2507 8.97015 3.64314 8.02598C4.06514 7.10098 4.44314 7.00098 4.50014 7.00098ZM0.0271454 11.001C0.119033 10.1814 0.43439 9.4028 0.938768 8.75029C1.44315 8.09777 2.11715 7.59641 2.88714 7.30098C2.32984 8.45608 2.03059 9.71862 2.01014 11.001H0.0271454ZM2.88714 15.701C2.11715 15.4055 1.44315 14.9042 0.938768 14.2517C0.43439 13.5992 0.119033 12.8206 0.0271454 12.001H2.01014C2.03059 13.2833 2.32984 14.5459 2.88714 15.701V15.701Z" fill="#424242"/>
</g>
<defs>
<clipPath id="clip0_9202_350214">
<rect width="16" height="16" fill="white"/>
</clipPath>
</defs>
</svg>
