<svg width="16" height="16" viewBox="0 0 16 16" fill="none" xmlns="http://www.w3.org/2000/svg">
<path opacity="0.25" d="M3.01045 5.99003C2.96024 5.98838 2.91 5.99173 2.86045 6.00003C2.81028 5.99337 2.75929 5.99677 2.71045 6.01003H3.41045C3.28045 6.00003 3.14045 5.99003 3.01045 5.99003Z" fill="#c5c5c5"/>
<path d="M3.00048 6H1.99048V6.01H3.00048V6Z" fill="#c5c5c5"/>
<mask id="mask0_9202_350153" style="mask-type:alpha" maskUnits="userSpaceOnUse" x="0" y="0" width="16" height="16">
<path fill-rule="evenodd" clip-rule="evenodd" d="M0 0H16V16H10.9483C11.0491 15.9014 11.1442 15.7963 11.2331 15.6853C11.7294 15.0648 11.9999 14.294 12 13.4994C11.9999 12.7049 11.7294 11.934 11.2331 11.3135C10.7367 10.6931 10.044 10.26 9.26885 10.0855C8.49369 9.91095 7.68222 10.0054 6.96784 10.3532C6.25347 10.701 5.6787 11.2816 5.33804 11.9994H3.49304C3.17822 11.5797 2.7393 11.2696 2.23846 11.1131C1.73762 10.9567 1.20025 10.9618 0.702473 11.1277C0.448769 11.2123 0.211905 11.3364 0 11.4942V0ZM5.33804 14.9994C5.51633 15.3751 5.75875 15.7132 6.05174 16H0V15.5046C0.211905 15.6624 0.448769 15.7866 0.702473 15.8711C1.20025 16.0371 1.73762 16.0422 2.23846 15.8857C2.7393 15.7293 3.17822 15.4192 3.49304 14.9994H5.33804Z" fill="#D9D9D9"/>
</mask>
<g mask="url(#mask0_9202_350153)">
<path d="M2 5V11C2 12.1046 2.89543 13 4 13H12C13.1046 13 14 12.1046 14 11V6C14 4.89543 13.1046 4 12 4H7.17539L6.06235 3.10957C5.97369 3.03864 5.86354 3 5.75 3H4C2.89543 3 2 3.89543 2 5ZM3 5C3 4.44772 3.44772 4 4 4H5.57461L6.44274 4.6945L5.5567 5.49998H3V5ZM7.5933 5H12C12.5523 5 13 5.44772 13 6V11C13 11.5523 12.5523 12 12 12H4C3.44772 12 3 11.5523 3 11V6.49998H5.75C5.87438 6.49998 5.9943 6.45362 6.08634 6.36995L7.5933 5Z" fill="#c5c5c5"/>
</g>
<g clip-path="url(#clip0_9202_350153)">
<path d="M8.49987 10.9994C7.92371 10.9995 7.36528 11.1986 6.91903 11.5631C6.47278 11.9275 6.1661 12.4349 6.05087 12.9994H2.90787C2.78992 12.6658 2.55783 12.3846 2.25263 12.2056C1.94742 12.0265 1.58875 11.9612 1.24 12.021C0.891252 12.0808 0.574884 12.262 0.346813 12.5326C0.118742 12.8031 -0.00634766 13.1455 -0.00634766 13.4994C-0.00634766 13.8532 0.118742 14.1957 0.346813 14.4662C0.574884 14.7368 0.891252 14.918 1.24 14.9778C1.58875 15.0376 1.94742 14.9722 2.25263 14.7932C2.55783 14.6142 2.78992 14.333 2.90787 13.9994H6.05087C6.14548 14.4629 6.36965 14.89 6.69735 15.2312C7.02505 15.5724 7.44282 15.8136 7.90214 15.9268C8.36145 16.04 8.84346 16.0205 9.29216 15.8707C9.74087 15.7209 10.1379 15.4468 10.437 15.0803C10.7362 14.7139 10.9252 14.2701 10.9822 13.8005C11.0391 13.3308 10.9617 12.8547 10.7588 12.4273C10.556 12 10.236 11.639 9.83616 11.3862C9.4363 11.1334 8.97292 10.9993 8.49987 10.9994V10.9994ZM1.49987 13.9994C1.40098 13.9994 1.30431 13.9701 1.22208 13.9151C1.13986 13.8602 1.07577 13.7821 1.03793 13.6907C1.00008 13.5994 0.990181 13.4988 1.00947 13.4018C1.02877 13.3049 1.07639 13.2158 1.14631 13.1458C1.21624 13.0759 1.30533 13.0283 1.40232 13.009C1.49931 12.9897 1.59984 12.9996 1.69121 13.0374C1.78257 13.0753 1.86066 13.1394 1.9156 13.2216C1.97054 13.3038 1.99987 13.4005 1.99987 13.4994C1.99987 13.632 1.94719 13.7592 1.85342 13.8529C1.75965 13.9467 1.63247 13.9994 1.49987 13.9994ZM8.49987 14.9994C8.20319 14.9994 7.91318 14.9114 7.66651 14.7466C7.41984 14.5818 7.22758 14.3475 7.11405 14.0734C7.00052 13.7993 6.97081 13.4977 7.02869 13.2068C7.08657 12.9158 7.22943 12.6485 7.43921 12.4387C7.64898 12.229 7.91626 12.0861 8.20723 12.0282C8.4982 11.9703 8.7998 12 9.07389 12.1136C9.34798 12.2271 9.58225 12.4194 9.74707 12.666C9.91189 12.9127 9.99987 13.2027 9.99987 13.4994C9.99987 13.8972 9.84183 14.2787 9.56053 14.5601C9.27922 14.8414 8.89769 14.9994 8.49987 14.9994V14.9994Z" fill="#c5c5c5"/>
</g>
<defs>
<clipPath id="clip0_9202_350153">
<rect width="16" height="16" fill="white"/>
</clipPath>
</defs>
</svg>
