<svg width="16" height="16" viewBox="0 0 16 16" fill="none" xmlns="http://www.w3.org/2000/svg">
<path opacity="0.25" d="M3.01045 5.99003C2.96024 5.98838 2.91 5.99173 2.86045 6.00003C2.81028 5.99337 2.75929 5.99677 2.71045 6.01003H3.41045C3.28045 6.00003 3.14045 5.99003 3.01045 5.99003Z" fill="#424242"/>
<path d="M3.00048 6H1.99048V6.01H3.00048V6Z" fill="#424242"/>
<mask id="mask0_9202_350190" style="mask-type:alpha" maskUnits="userSpaceOnUse" x="0" y="0" width="16" height="16">
<path fill-rule="evenodd" clip-rule="evenodd" d="M0 0H16V16H7.12201L8.561 14.561C8.70039 14.4217 8.81097 14.2563 8.88641 14.0743C8.96185 13.8922 9.00068 13.6971 9.00068 13.5C9.00068 13.3029 8.96185 13.1078 8.88641 12.9258C8.81097 12.7437 8.70039 12.5783 8.561 12.439L6.561 10.439C6.35122 10.2291 6.08388 10.0861 5.79282 10.0282C5.50176 9.97025 5.20006 9.99996 4.92588 10.1135C4.65171 10.2271 4.41739 10.4195 4.25258 10.6663C4.08777 10.9131 3.99987 11.2032 4 11.5C4.00014 11.2032 3.91224 10.9131 3.74742 10.6663C3.58261 10.4195 3.34829 10.2271 3.07412 10.1135C2.79995 9.99996 2.49824 9.97025 2.20718 10.0282C1.91612 10.0861 1.64878 10.2291 1.439 10.439L0 11.878V0ZM4 15.5C3.99992 15.6712 4.02915 15.8402 4.08554 16H3.91446C3.97085 15.8402 4.00008 15.6712 4 15.5ZM0 15.122L0.877992 16H0V15.122Z" fill="#D9D9D9"/>
</mask>
<g mask="url(#mask0_9202_350190)">
<path d="M2 5V11C2 12.1046 2.89543 13 4 13H12C13.1046 13 14 12.1046 14 11V6C14 4.89543 13.1046 4 12 4H7.17539L6.06235 3.10957C5.97369 3.03864 5.86354 3 5.75 3H4C2.89543 3 2 3.89543 2 5ZM3 5C3 4.44772 3.44772 4 4 4H5.57461L6.44274 4.6945L5.5567 5.49998H3V5ZM7.5933 5H12C12.5523 5 13 5.44772 13 6V11C13 11.5523 12.5523 12 12 12H4C3.44772 12 3 11.5523 3 11V6.49998H5.75C5.87438 6.49998 5.9943 6.45362 6.08634 6.36995L7.5933 5Z" fill="#424242"/>
</g>
<g clip-path="url(#clip0_9202_350190)">
<path d="M7.85392 13.854L5.85392 15.854C5.76003 15.9479 5.63269 16.0007 5.49992 16.0007C5.36714 16.0007 5.2398 15.9479 5.14592 15.854C5.05203 15.7601 4.99929 15.6328 4.99929 15.5C4.99929 15.3672 5.05203 15.2399 5.14592 15.146L6.29292 14H1.70692L2.85392 15.146C2.9478 15.2399 3.00055 15.3672 3.00055 15.5C3.00055 15.6328 2.9478 15.7601 2.85392 15.854C2.76003 15.9479 2.63269 16.0007 2.49992 16.0007C2.36714 16.0007 2.2398 15.9479 2.14592 15.854L0.145917 13.854C0.099354 13.8076 0.0624111 13.7524 0.0372047 13.6917C0.0119982 13.6309 -0.000976562 13.5658 -0.000976562 13.5C-0.000976562 13.4343 0.0119982 13.3691 0.0372047 13.3084C0.0624111 13.2476 0.099354 13.1925 0.145917 13.146L2.14592 11.146C2.2398 11.0521 2.36714 10.9994 2.49992 10.9994C2.63269 10.9994 2.76003 11.0521 2.85392 11.146C2.9478 11.2399 3.00055 11.3672 3.00055 11.5C3.00055 11.6328 2.9478 11.7601 2.85392 11.854L1.70692 13H6.29292L5.14592 11.854C5.05203 11.7601 4.99929 11.6328 4.99929 11.5C4.99929 11.3672 5.05203 11.2399 5.14592 11.146C5.2398 11.0521 5.36714 10.9994 5.49992 10.9994C5.63269 10.9994 5.76003 11.0521 5.85392 11.146L7.85392 13.146C7.90048 13.1925 7.93742 13.2476 7.96263 13.3084C7.98784 13.3691 8.00081 13.4343 8.00081 13.5C8.00081 13.5658 7.98784 13.6309 7.96263 13.6917C7.93742 13.7524 7.90048 13.8076 7.85392 13.854Z" fill="#424242"/>
</g>
<defs>
<clipPath id="clip0_9202_350190">
<rect width="16" height="16" fill="white"/>
</clipPath>
</defs>
</svg>
