<svg width="16" height="16" viewBox="0 0 16 16" fill="none" xmlns="http://www.w3.org/2000/svg">
<path opacity="0.25" d="M3.01045 5.99003C2.96024 5.98838 2.91 5.99173 2.86045 6.00003C2.81028 5.99337 2.75929 5.99677 2.71045 6.01003H3.41045C3.28045 6.00003 3.14045 5.99003 3.01045 5.99003Z" fill="#424242"/>
<path d="M3.00048 6H1.99048V6.01H3.00048V6Z" fill="#424242"/>
<mask id="mask0_9202_350164" style="mask-type:alpha" maskUnits="userSpaceOnUse" x="0" y="0" width="16" height="16">
<path fill-rule="evenodd" clip-rule="evenodd" d="M0 0H16V16H6.583C6.66035 15.9475 6.73265 15.8879 6.799 15.822L8.061 14.561C8.20039 14.4217 8.31096 14.2563 8.38641 14.0742C8.46185 13.8922 8.50068 13.6971 8.50068 13.5C8.50068 13.3029 8.46185 13.1078 8.38641 12.9258C8.31096 12.7437 8.20039 12.5783 8.061 12.439L7.561 11.939C7.40931 11.7874 7.22687 11.6701 7.026 11.595L8.061 10.561C8.20039 10.4217 8.31096 10.2563 8.38641 10.0742C8.46185 9.8922 8.50068 9.69706 8.50068 9.5C8.50068 9.30294 8.46185 9.1078 8.38641 8.92575C8.31096 8.7437 8.20039 8.5783 8.061 8.439L7.561 7.939C7.4217 7.79961 7.2563 7.68904 7.07425 7.61359C6.8922 7.53815 6.69706 7.49932 6.5 7.49932C6.30294 7.49932 6.1078 7.53815 5.92575 7.61359C5.7437 7.68904 5.5783 7.79961 5.439 7.939L5.379 8H5.229C5.17816 7.69252 5.03193 7.40881 4.811 7.189L3.811 6.189C3.6717 6.04961 3.5063 5.93904 3.32425 5.86359C3.1422 5.78815 2.94706 5.74932 2.75 5.74932C2.55294 5.74932 2.3578 5.78815 2.17575 5.86359C1.9937 5.93904 1.8283 6.04961 1.689 6.189L0 7.879V0ZM4.653 15.797C4.72793 15.8732 4.81073 15.9412 4.9 16H0V10.621L0.689 11.311C0.858312 11.4802 1.06567 11.6065 1.29374 11.6792C1.52181 11.7519 1.76398 11.769 2 11.729V13C1.99985 13.5222 2.20396 14.0238 2.56872 14.3975C2.93347 14.7712 3.42993 14.9875 3.952 15C4.01169 15.1033 4.08316 15.1992 4.165 15.286L4.653 15.797Z" fill="#D9D9D9"/>
</mask>
<g mask="url(#mask0_9202_350164)">
<path d="M2 5V11C2 12.1046 2.89543 13 4 13H12C13.1046 13 14 12.1046 14 11V6C14 4.89543 13.1046 4 12 4H7.17539L6.06235 3.10957C5.97369 3.03864 5.86354 3 5.75 3H4C2.89543 3 2 3.89543 2 5ZM3 5C3 4.44772 3.44772 4 4 4H5.57461L6.44274 4.6945L5.5567 5.49998H3V5ZM7.5933 5H12C12.5523 5 13 5.44772 13 6V11C13 11.5523 12.5523 12 12 12H4C3.44772 12 3 11.5523 3 11V6.49998H5.75C5.87438 6.49998 5.9943 6.45362 6.08634 6.36995L7.5933 5Z" fill="#424242"/>
</g>
<path d="M0.396935 8.89657C0.201673 9.09183 0.201673 9.40842 0.396935 9.60368L1.39678 10.6035C1.59205 10.7988 1.90863 10.7988 2.10389 10.6035L2.70741 10H3.00011V13C3.00011 13.2652 3.10546 13.5196 3.293 13.7071C3.48054 13.8947 3.73489 14 4.00011 14H4.81696C4.70856 14.1876 4.73176 14.4309 4.88817 14.595L5.37617 15.107C5.4691 15.2045 5.59743 15.2604 5.73211 15.262C5.86679 15.2636 5.99642 15.2108 6.09166 15.1156L7.35366 13.8536C7.54892 13.6583 7.54892 13.3417 7.35366 13.1465L6.85366 12.6465C6.6584 12.4512 6.34182 12.4512 6.14655 12.6465L5.793 13H4.00011V10H4.82227C4.72163 10.1859 4.7471 10.4223 4.9002 10.583L5.3882 11.095C5.48112 11.1925 5.60945 11.2484 5.74413 11.25C5.87881 11.2516 6.00845 11.1988 6.10369 11.1036L7.35369 9.85356C7.54895 9.6583 7.54895 9.34172 7.35369 9.14645L6.85369 8.64645C6.65842 8.45119 6.34184 8.45119 6.14658 8.64645L5.79303 9.00001H3.70741L4.10359 8.60383C4.29885 8.40857 4.29885 8.09198 4.10359 7.89672L3.10374 6.89687C2.90848 6.70161 2.5919 6.70161 2.39663 6.89687L0.396935 8.89657Z" fill="#424242"/>
</svg>
