<svg width="16" height="16" viewBox="0 0 16 16" fill="none" xmlns="http://www.w3.org/2000/svg">
<path opacity="0.25" d="M3.01045 5.99003C2.96024 5.98838 2.91 5.99173 2.86045 6.00003C2.81028 5.99337 2.75929 5.99677 2.71045 6.01003H3.41045C3.28045 6.00003 3.14045 5.99003 3.01045 5.99003Z" fill="#c5c5c5"/>
<path d="M3.00048 6H1.99048V6.01H3.00048V6Z" fill="#c5c5c5"/>
<mask id="mask0_9202_350142" style="mask-type:alpha" maskUnits="userSpaceOnUse" x="0" y="0" width="16" height="16">
<path fill-rule="evenodd" clip-rule="evenodd" d="M16 0H0V7.83098C0.137239 7.78372 0.280903 7.75775 0.426 7.75398C0.620724 7.7541 0.813497 7.79278 0.993197 7.86778C1.03124 7.88366 1.06855 7.90111 1.10501 7.92005L1 7.5L1.78224 6.71776C1.78004 6.70686 1.77796 6.69594 1.776 6.68498C1.74867 6.52934 1.74631 6.37035 1.769 6.21398C1.80385 5.96952 1.90318 5.73876 2.05679 5.54542C2.2104 5.35209 2.41274 5.20317 2.643 5.11398C2.75585 5.07175 2.87336 5.04322 2.993 5.02898C3.16732 5.00963 3.34261 5.00028 3.518 5.00098C4.1114 4.9995 4.69921 5.11566 5.24744 5.34274C5.79567 5.56983 6.29345 5.90333 6.712 6.32398C7.2353 6.85094 7.62156 7.49806 7.83702 8.20877C8.05249 8.91947 8.09059 9.67214 7.948 10.401L10.266 12.721C10.6958 13.148 10.9537 13.7181 10.9906 14.3229C11.0274 14.9272 10.841 15.5241 10.4668 16H16V0ZM3.19715 9.10571L3.28419 8.93163C3.26672 8.99453 3.23722 9.05369 3.19715 9.10571ZM6.45302 16L4.4 13.949C3.67104 14.0941 2.91753 14.0573 2.20621 13.8417C1.49489 13.6261 0.847713 13.2384 0.322 12.713C0.208369 12.5981 0.100886 12.4772 0 12.351V16H6.45302Z" fill="#D9D9D9"/>
</mask>
<g mask="url(#mask0_9202_350142)">
<path d="M2 5V11C2 12.1046 2.89543 13 4 13H12C13.1046 13 14 12.1046 14 11V6C14 4.89543 13.1046 4 12 4H7.17539L6.06235 3.10957C5.97369 3.03864 5.86354 3 5.75 3H4C2.89543 3 2 3.89543 2 5ZM3 5C3 4.44772 3.44772 4 4 4H5.57461L6.44274 4.6945L5.5567 5.49998H3V5ZM7.5933 5H12C12.5523 5 13 5.44772 13 6V11C13 11.5523 12.5523 12 12 12H4C3.44772 12 3 11.5523 3 11V6.49998H5.75C5.87438 6.49998 5.9943 6.45362 6.08634 6.36995L7.5933 5Z" fill="#c5c5c5"/>
</g>
<g clip-path="url(#clip0_9202_350142)">
<path d="M2.75788 6.36195C2.76677 6.29323 2.7939 6.22814 2.83646 6.17344C2.87902 6.11875 2.93544 6.07646 2.99988 6.05095C3.03452 6.03739 3.07086 6.02864 3.10788 6.02495C3.70219 5.9554 4.30442 6.03854 4.85765 6.26652C5.41088 6.49449 5.89685 6.85977 6.26962 7.32783C6.64239 7.7959 6.88965 8.35128 6.98803 8.9415C7.08641 9.53172 7.03267 10.1373 6.83188 10.701L9.55788 13.427C9.70352 13.5657 9.81995 13.7321 9.9003 13.9165C9.98066 14.1009 10.0233 14.2995 10.0258 14.5006C10.0282 14.7017 9.99042 14.9013 9.91458 15.0875C9.83875 15.2738 9.72642 15.4431 9.5842 15.5853C9.44198 15.7275 9.27275 15.8398 9.08646 15.9157C8.90018 15.9915 8.70061 16.0293 8.49949 16.0268C8.29838 16.0244 8.09979 15.9817 7.91541 15.9014C7.73103 15.821 7.56459 15.7046 7.42588 15.559L4.69988 12.833C4.13621 13.0337 3.53065 13.0875 2.94043 12.9891C2.35021 12.8907 1.79482 12.6435 1.32676 12.2707C0.858695 11.8979 0.493416 11.412 0.265441 10.8587C0.037466 10.3055 -0.0456738 9.70326 0.0238791 9.10895C0.0358875 9.02842 0.0708814 8.95307 0.12466 8.89194C0.17844 8.83081 0.248718 8.7865 0.327061 8.76433C0.405403 8.74216 0.488479 8.74306 0.566318 8.76694C0.644156 8.79083 0.713449 8.83666 0.765879 8.89895L1.74088 9.87395C2.02588 10.1454 2.40572 10.2946 2.79926 10.2898C3.19281 10.285 3.56889 10.1266 3.8472 9.84827C4.1255 9.56997 4.28397 9.19389 4.28877 8.80034C4.29357 8.40679 4.14431 8.02696 3.87288 7.74195L2.89788 6.76695C2.82637 6.69644 2.77821 6.60569 2.75988 6.50695C2.75173 6.45901 2.75106 6.4101 2.75788 6.36195V6.36195Z" fill="#c5c5c5"/>
</g>
<defs>
<clipPath id="clip0_9202_350142">
<rect width="16" height="16" fill="white" transform="matrix(-1 0 0 1 16 0.000976562)"/>
</clipPath>
</defs>
</svg>
