<svg width="16" height="16" viewBox="0 0 16 16" fill="none" xmlns="http://www.w3.org/2000/svg">
<path opacity="0.25" d="M3.01045 5.99003C2.96024 5.98838 2.91 5.99173 2.86045 6.00003C2.81028 5.99337 2.75929 5.99677 2.71045 6.01003H3.41045C3.28045 6.00003 3.14045 5.99003 3.01045 5.99003Z" fill="#c5c5c5"/>
<path d="M3.00048 6H1.99048V6.01H3.00048V6Z" fill="#c5c5c5"/>
<mask id="mask0_9202_350175" style="mask-type:alpha" maskUnits="userSpaceOnUse" x="0" y="0" width="16" height="16">
<path fill-rule="evenodd" clip-rule="evenodd" d="M0 0H16V16H10.6211C10.8604 15.6425 11 15.2125 11 14.75V10.25C11 9.00736 9.99264 8 8.75 8H1.25C0.787463 8 0.357525 8.13957 0 8.37889V0Z" fill="#D9D9D9"/>
</mask>
<g mask="url(#mask0_9202_350175)">
<path d="M2 5V11C2 12.1046 2.89543 13 4 13H12C13.1046 13 14 12.1046 14 11V6C14 4.89543 13.1046 4 12 4H7.17539L6.06235 3.10957C5.97369 3.03864 5.86354 3 5.75 3H4C2.89543 3 2 3.89543 2 5ZM3 5C3 4.44772 3.44772 4 4 4H5.57461L6.44274 4.6945L5.5567 5.49998H3V5ZM7.5933 5H12C12.5523 5 13 5.44772 13 6V11C13 11.5523 12.5523 12 12 12H4C3.44772 12 3 11.5523 3 11V6.49998H5.75C5.87438 6.49998 5.9943 6.45362 6.08634 6.36995L7.5933 5Z" fill="#c5c5c5"/>
</g>
<path d="M8.75 16H1.25C0.561 16 0 15.439 0 14.75V10.25C0 9.561 0.561 9 1.25 9H8.75C9.439 9 10 9.561 10 10.25V14.75C10 15.439 9.439 16 8.75 16ZM1.25 10C1.112 10 1 10.112 1 10.25V14.75C1 14.888 1.112 15 1.25 15H8.75C8.888 15 9 14.888 9 14.75V10.25C9 10.112 8.888 10 8.75 10H1.25ZM4 14H3C2.449 14 2 13.552 2 13V12C2 11.448 2.449 11 3 11H4C4.551 11 5 11.448 5 12V13C5 13.552 4.551 14 4 14ZM3 12V13H4V12H3ZM8 11.5C8 11.224 7.776 11 7.5 11H6.5C6.224 11 6 11.224 6 11.5C6 11.776 6.224 12 6.5 12H7.5C7.776 12 8 11.776 8 11.5ZM8 13.5C8 13.224 7.776 13 7.5 13H6.5C6.224 13 6 13.224 6 13.5C6 13.776 6.224 14 6.5 14H7.5C7.776 14 8 13.776 8 13.5Z" fill="#c5c5c5"/>
</svg>
