<svg xmlns="http://www.w3.org/2000/svg" viewBox="0 0 384 512">
  <!-- Font Awesome Free 6 ghost icon by @fontawesome - https://fontawesome.com/license/free (Icons: CC BY 4.0) -->
  <path fill="#fff" d="M186.1.1032C81 3.2292 0 94.8532 0 200v264c0 14.25 17.3 21.38 27.3 11.25l24.95-18.5c6.625-5.001 16-4.001 21.5 2.25l43 48.31c6.25 6.251 16.37 6.251 22.62 0l40.62-45.81c6.375-7.251 17.62-7.251 24 0l40.63 45.81c6.25 6.251 16.38 6.251 22.62 0l43-48.31c5.5-6.251 14.88-7.251 21.5-2.25l24.95 18.5C366.7 485.38 384 478.252 384 464V192C384 83.98 294.9-3.147 186.1.1032zM128 224c-17.62 0-31.1-14.38-31.1-32.01s14.38-32.01 31.1-32.01 32 14.38 32 32.01S145.6 224 128 224zm128 0c-17.62 0-32-14.38-32-32.01s14.38-32.01 32-32.01 32 14.38 32 32.01S273.6 224 256 224z"/>
</svg>
